<svg width="28" height="28" viewBox="0 0 28 28" fill="none" xmlns="http://www.w3.org/2000/svg">
<path d="M21.4095 9.2005C20.8297 9.2005 20.3595 8.73033 20.3595 8.1505V7.43183C20.3595 6.852 20.8297 6.38183 21.4095 6.38183C21.9893 6.38183 22.4595 6.852 22.4595 7.43183V8.14933C22.4595 8.72916 21.9893 9.2005 21.4095 9.2005Z" fill="black"/>
<path d="M18.2572 9.2005C17.6773 9.2005 17.2072 8.73033 17.2072 8.1505V7.43183C17.2072 6.852 17.6773 6.38183 18.2572 6.38183C18.837 6.38183 19.3072 6.852 19.3072 7.43183V8.14933C19.3083 8.72916 18.837 9.2005 18.2572 9.2005Z" fill="black"/>
<path d="M19.8333 14.0002C16.6168 14.0002 14 11.3833 14 8.16683C14 4.95033 16.6168 2.3335 19.8333 2.3335C23.0498 2.3335 25.6667 4.95033 25.6667 8.16683C25.6667 11.3833 23.0498 14.0002 19.8333 14.0002ZM19.8333 4.66683C17.9037 4.66683 16.3333 6.23716 16.3333 8.16683C16.3333 10.0965 17.9037 11.6668 19.8333 11.6668C21.763 11.6668 23.3333 10.0965 23.3333 8.16683C23.3333 6.23716 21.763 4.66683 19.8333 4.66683Z" fill="black"/>
<path d="M19.8333 25.6668C16.6168 25.6668 14 23.05 14 19.8335C14 16.617 16.6168 14.0002 19.8333 14.0002C23.0498 14.0002 25.6667 16.617 25.6667 19.8335C25.6667 23.05 23.0498 25.6668 19.8333 25.6668ZM19.8333 16.3335C17.9037 16.3335 16.3333 17.9038 16.3333 19.8335C16.3333 21.7632 17.9037 23.3335 19.8333 23.3335C21.763 23.3335 23.3333 21.7632 23.3333 19.8335C23.3333 17.9038 21.763 16.3335 19.8333 16.3335Z" fill="black"/>
<path d="M8.16668 14.0002C4.95018 14.0002 2.33334 11.3833 2.33334 8.16683C2.33334 4.95033 4.95018 2.3335 8.16668 2.3335C11.3832 2.3335 14 4.95033 14 8.16683C14 11.3833 11.3832 14.0002 8.16668 14.0002ZM8.16668 4.66683C6.23701 4.66683 4.66668 6.23716 4.66668 8.16683C4.66668 10.0965 6.23701 11.6668 8.16668 11.6668C10.0963 11.6668 11.6667 10.0965 11.6667 8.16683C11.6667 6.23716 10.0963 4.66683 8.16668 4.66683Z" fill="black"/>
<path d="M9.74284 20.8672C9.16301 20.8672 8.69284 20.397 8.69284 19.8172V19.0985C8.69284 18.5187 9.16301 18.0485 9.74284 18.0485C10.3227 18.0485 10.7928 18.5187 10.7928 19.0985V19.816C10.7928 20.3958 10.3227 20.8672 9.74284 20.8672Z" fill="black"/>
<path d="M6.59051 20.8672C6.01068 20.8672 5.54051 20.397 5.54051 19.8172V19.0985C5.54051 18.5187 6.01068 18.0485 6.59051 18.0485C7.17034 18.0485 7.64051 18.5187 7.64051 19.0985V19.816C7.64168 20.3958 7.17034 20.8672 6.59051 20.8672Z" fill="black"/>
<path d="M8.16668 25.6668C4.95018 25.6668 2.33334 23.05 2.33334 19.8335C2.33334 16.617 4.95018 14.0002 8.16668 14.0002C11.3832 14.0002 14 16.617 14 19.8335C14 23.05 11.3832 25.6668 8.16668 25.6668ZM8.16668 16.3335C6.23701 16.3335 4.66668 17.9038 4.66668 19.8335C4.66668 21.7632 6.23701 23.3335 8.16668 23.3335C10.0963 23.3335 11.6667 21.7632 11.6667 19.8335C11.6667 17.9038 10.0963 16.3335 8.16668 16.3335Z" fill="black"/>
</svg>
