<svg width="28" height="28" viewBox="0 0 28 28" fill="none" xmlns="http://www.w3.org/2000/svg">
<path d="M21.4095 9.20037C20.8297 9.20037 20.3595 8.73021 20.3595 8.15037V7.43171C20.3595 6.85187 20.8297 6.38171 21.4095 6.38171C21.9894 6.38171 22.4595 6.85187 22.4595 7.43171V8.14921C22.4595 8.72904 21.9894 9.20037 21.4095 9.20037Z" fill="black"/>
<path d="M18.2572 9.20037C17.6774 9.20037 17.2072 8.73021 17.2072 8.15037V7.43171C17.2072 6.85187 17.6774 6.38171 18.2572 6.38171C18.837 6.38171 19.3072 6.85187 19.3072 7.43171V8.14921C19.3084 8.72904 18.837 9.20037 18.2572 9.20037Z" fill="black"/>
<path d="M19.8334 14C16.6169 14 14 11.3832 14 8.16671C14 4.95021 16.6169 2.33337 19.8334 2.33337C23.0499 2.33337 25.6667 4.95021 25.6667 8.16671C25.6667 11.3832 23.0499 14 19.8334 14ZM19.8334 4.66671C17.9037 4.66671 16.3334 6.23704 16.3334 8.16671C16.3334 10.0964 17.9037 11.6667 19.8334 11.6667C21.763 11.6667 23.3334 10.0964 23.3334 8.16671C23.3334 6.23704 21.763 4.66671 19.8334 4.66671Z" fill="black"/>
<path d="M19.8334 25.6667C16.6169 25.6667 14 23.0499 14 19.8334C14 16.6169 16.6169 14 19.8334 14C23.0499 14 25.6667 16.6169 25.6667 19.8334C25.6667 23.0499 23.0499 25.6667 19.8334 25.6667ZM19.8334 16.3334C17.9037 16.3334 16.3334 17.9037 16.3334 19.8334C16.3334 21.763 17.9037 23.3334 19.8334 23.3334C21.763 23.3334 23.3334 21.763 23.3334 19.8334C23.3334 17.9037 21.763 16.3334 19.8334 16.3334Z" fill="black"/>
<path d="M8.16671 14C4.95021 14 2.33337 11.3832 2.33337 8.16671C2.33337 4.95021 4.95021 2.33337 8.16671 2.33337C11.3832 2.33337 14 4.95021 14 8.16671C14 11.3832 11.3832 14 8.16671 14ZM8.16671 4.66671C6.23704 4.66671 4.66671 6.23704 4.66671 8.16671C4.66671 10.0964 6.23704 11.6667 8.16671 11.6667C10.0964 11.6667 11.6667 10.0964 11.6667 8.16671C11.6667 6.23704 10.0964 4.66671 8.16671 4.66671Z" fill="black"/>
<path d="M9.74287 20.867C9.16304 20.867 8.69287 20.3969 8.69287 19.817V19.0984C8.69287 18.5185 9.16304 18.0484 9.74287 18.0484C10.3227 18.0484 10.7929 18.5185 10.7929 19.0984V19.8159C10.7929 20.3957 10.3227 20.867 9.74287 20.867Z" fill="black"/>
<path d="M6.59054 20.867C6.01071 20.867 5.54054 20.3969 5.54054 19.817V19.0984C5.54054 18.5185 6.01071 18.0484 6.59054 18.0484C7.17037 18.0484 7.64054 18.5185 7.64054 19.0984V19.8159C7.64171 20.3957 7.17037 20.867 6.59054 20.867Z" fill="black"/>
<path d="M8.16671 25.6667C4.95021 25.6667 2.33337 23.0499 2.33337 19.8334C2.33337 16.6169 4.95021 14 8.16671 14C11.3832 14 14 16.6169 14 19.8334C14 23.0499 11.3832 25.6667 8.16671 25.6667ZM8.16671 16.3334C6.23704 16.3334 4.66671 17.9037 4.66671 19.8334C4.66671 21.763 6.23704 23.3334 8.16671 23.3334C10.0964 23.3334 11.6667 21.763 11.6667 19.8334C11.6667 17.9037 10.0964 16.3334 8.16671 16.3334Z" fill="black"/>
</svg>
