<svg width="28" height="28" viewBox="0 0 28 28" fill="none" xmlns="http://www.w3.org/2000/svg">
<path d="M21.4095 9.20037C20.8296 9.20037 20.3595 8.73021 20.3595 8.15037V7.43171C20.3595 6.85187 20.8296 6.38171 21.4095 6.38171C21.9893 6.38171 22.4595 6.85187 22.4595 7.43171V8.14921C22.4595 8.72904 21.9893 9.20037 21.4095 9.20037Z" fill="black"/>
<path d="M18.2571 9.20037C17.6773 9.20037 17.2071 8.73021 17.2071 8.15037V7.43171C17.2071 6.85187 17.6773 6.38171 18.2571 6.38171C18.837 6.38171 19.3071 6.85187 19.3071 7.43171V8.14921C19.3083 8.72904 18.837 9.20037 18.2571 9.20037Z" fill="black"/>
<path d="M19.8333 14C16.6168 14 14 11.3832 14 8.16671C14 4.95021 16.6168 2.33337 19.8333 2.33337C23.0498 2.33337 25.6666 4.95021 25.6666 8.16671C25.6666 11.3832 23.0498 14 19.8333 14ZM19.8333 4.66671C17.9036 4.66671 16.3333 6.23704 16.3333 8.16671C16.3333 10.0964 17.9036 11.6667 19.8333 11.6667C21.763 11.6667 23.3333 10.0964 23.3333 8.16671C23.3333 6.23704 21.763 4.66671 19.8333 4.66671Z" fill="black"/>
<path d="M19.8333 25.6667C16.6168 25.6667 14 23.0499 14 19.8334C14 16.6169 16.6168 14 19.8333 14C23.0498 14 25.6666 16.6169 25.6666 19.8334C25.6666 23.0499 23.0498 25.6667 19.8333 25.6667ZM19.8333 16.3334C17.9036 16.3334 16.3333 17.9037 16.3333 19.8334C16.3333 21.763 17.9036 23.3334 19.8333 23.3334C21.763 23.3334 23.3333 21.763 23.3333 19.8334C23.3333 17.9037 21.763 16.3334 19.8333 16.3334Z" fill="black"/>
<path d="M8.16665 14C4.95015 14 2.33331 11.3832 2.33331 8.16671C2.33331 4.95021 4.95015 2.33337 8.16665 2.33337C11.3831 2.33337 14 4.95021 14 8.16671C14 11.3832 11.3831 14 8.16665 14ZM8.16665 4.66671C6.23698 4.66671 4.66665 6.23704 4.66665 8.16671C4.66665 10.0964 6.23698 11.6667 8.16665 11.6667C10.0963 11.6667 11.6666 10.0964 11.6666 8.16671C11.6666 6.23704 10.0963 4.66671 8.16665 4.66671Z" fill="black"/>
<path d="M9.74281 20.867C9.16298 20.867 8.69281 20.3969 8.69281 19.817V19.0984C8.69281 18.5185 9.16298 18.0484 9.74281 18.0484C10.3226 18.0484 10.7928 18.5185 10.7928 19.0984V19.8159C10.7928 20.3957 10.3226 20.867 9.74281 20.867Z" fill="black"/>
<path d="M6.59048 20.867C6.01065 20.867 5.54048 20.3969 5.54048 19.817V19.0984C5.54048 18.5185 6.01065 18.0484 6.59048 18.0484C7.17031 18.0484 7.64048 18.5185 7.64048 19.0984V19.8159C7.64165 20.3957 7.17031 20.867 6.59048 20.867Z" fill="black"/>
<path d="M8.16665 25.6667C4.95015 25.6667 2.33331 23.0499 2.33331 19.8334C2.33331 16.6169 4.95015 14 8.16665 14C11.3831 14 14 16.6169 14 19.8334C14 23.0499 11.3831 25.6667 8.16665 25.6667ZM8.16665 16.3334C6.23698 16.3334 4.66665 17.9037 4.66665 19.8334C4.66665 21.763 6.23698 23.3334 8.16665 23.3334C10.0963 23.3334 11.6666 21.763 11.6666 19.8334C11.6666 17.9037 10.0963 16.3334 8.16665 16.3334Z" fill="black"/>
</svg>
