<svg width="28" height="28" viewBox="0 0 28 28" fill="none" xmlns="http://www.w3.org/2000/svg">
<path d="M21.4095 9.20025C20.8296 9.20025 20.3595 8.73009 20.3595 8.15025V7.43159C20.3595 6.85175 20.8296 6.38159 21.4095 6.38159C21.9893 6.38159 22.4595 6.85175 22.4595 7.43159V8.14909C22.4595 8.72892 21.9893 9.20025 21.4095 9.20025Z" fill="black"/>
<path d="M18.2571 9.20025C17.6773 9.20025 17.2071 8.73009 17.2071 8.15025V7.43159C17.2071 6.85175 17.6773 6.38159 18.2571 6.38159C18.837 6.38159 19.3071 6.85175 19.3071 7.43159V8.14909C19.3083 8.72892 18.837 9.20025 18.2571 9.20025Z" fill="black"/>
<path d="M19.8333 13.9999C16.6168 13.9999 14 11.3831 14 8.16659C14 4.95009 16.6168 2.33325 19.8333 2.33325C23.0498 2.33325 25.6666 4.95009 25.6666 8.16659C25.6666 11.3831 23.0498 13.9999 19.8333 13.9999ZM19.8333 4.66659C17.9036 4.66659 16.3333 6.23692 16.3333 8.16659C16.3333 10.0963 17.9036 11.6666 19.8333 11.6666C21.763 11.6666 23.3333 10.0963 23.3333 8.16659C23.3333 6.23692 21.763 4.66659 19.8333 4.66659Z" fill="black"/>
<path d="M19.8333 25.6666C16.6168 25.6666 14 23.0498 14 19.8333C14 16.6168 16.6168 13.9999 19.8333 13.9999C23.0498 13.9999 25.6666 16.6168 25.6666 19.8333C25.6666 23.0498 23.0498 25.6666 19.8333 25.6666ZM19.8333 16.3333C17.9036 16.3333 16.3333 17.9036 16.3333 19.8333C16.3333 21.7629 17.9036 23.3333 19.8333 23.3333C21.763 23.3333 23.3333 21.7629 23.3333 19.8333C23.3333 17.9036 21.763 16.3333 19.8333 16.3333Z" fill="black"/>
<path d="M8.16665 13.9999C4.95015 13.9999 2.33331 11.3831 2.33331 8.16659C2.33331 4.95009 4.95015 2.33325 8.16665 2.33325C11.3831 2.33325 14 4.95009 14 8.16659C14 11.3831 11.3831 13.9999 8.16665 13.9999ZM8.16665 4.66659C6.23698 4.66659 4.66665 6.23692 4.66665 8.16659C4.66665 10.0963 6.23698 11.6666 8.16665 11.6666C10.0963 11.6666 11.6666 10.0963 11.6666 8.16659C11.6666 6.23692 10.0963 4.66659 8.16665 4.66659Z" fill="black"/>
<path d="M9.74281 20.8669C9.16298 20.8669 8.69281 20.3968 8.69281 19.8169V19.0983C8.69281 18.5184 9.16298 18.0483 9.74281 18.0483C10.3226 18.0483 10.7928 18.5184 10.7928 19.0983V19.8158C10.7928 20.3956 10.3226 20.8669 9.74281 20.8669Z" fill="black"/>
<path d="M6.59048 20.8669C6.01065 20.8669 5.54048 20.3968 5.54048 19.8169V19.0983C5.54048 18.5184 6.01065 18.0483 6.59048 18.0483C7.17031 18.0483 7.64048 18.5184 7.64048 19.0983V19.8158C7.64165 20.3956 7.17031 20.8669 6.59048 20.8669Z" fill="black"/>
<path d="M8.16665 25.6666C4.95015 25.6666 2.33331 23.0498 2.33331 19.8333C2.33331 16.6168 4.95015 13.9999 8.16665 13.9999C11.3831 13.9999 14 16.6168 14 19.8333C14 23.0498 11.3831 25.6666 8.16665 25.6666ZM8.16665 16.3333C6.23698 16.3333 4.66665 17.9036 4.66665 19.8333C4.66665 21.7629 6.23698 23.3333 8.16665 23.3333C10.0963 23.3333 11.6666 21.7629 11.6666 19.8333C11.6666 17.9036 10.0963 16.3333 8.16665 16.3333Z" fill="black"/>
</svg>
