<svg width="28" height="28" viewBox="0 0 28 28" fill="none" xmlns="http://www.w3.org/2000/svg">
<path d="M23.3334 12.8335H6.89502L14.8167 4.91179C15.2717 4.45679 15.2717 3.72179 14.8167 3.26679C14.3617 2.81179 13.6267 2.81179 13.1717 3.26679L3.25502 13.1835C3.18502 13.2535 3.15002 13.3351 3.10335 13.4168C3.06835 13.4635 3.03335 13.5101 3.01002 13.5685C2.95169 13.6968 2.91669 13.8485 2.91669 14.0001C2.91669 14.0351 2.92835 14.0585 2.92835 14.0818C2.94002 14.1985 2.95169 14.3268 2.99835 14.4435C3.05669 14.5951 3.15002 14.7235 3.25502 14.8285L13.16 24.7335C13.3934 24.9668 13.685 25.0718 13.9884 25.0718C14.2917 25.0718 14.5834 24.9551 14.8167 24.7335C15.2717 24.2785 15.2717 23.5435 14.8167 23.0885L6.90669 15.1668H23.3334C23.975 15.1668 24.5 14.6418 24.5 14.0001C24.5 13.3585 23.975 12.8335 23.3334 12.8335Z" fill="black"/>
</svg>
