<svg width="28" height="28" viewBox="0 0 28 28" fill="none" xmlns="http://www.w3.org/2000/svg">
<path d="M14.8737 23.6236L14.8737 7.18524L22.7954 15.1069C23.2504 15.5619 23.9854 15.5619 24.4404 15.1069C24.8954 14.6519 24.8954 13.9169 24.4404 13.4619L14.5237 3.54524C14.4537 3.47524 14.372 3.44024 14.2904 3.39358C14.2437 3.35858 14.197 3.32358 14.1387 3.30024C14.0104 3.24191 13.8587 3.20691 13.707 3.20691C13.672 3.20691 13.6487 3.21858 13.6254 3.21858C13.5087 3.23024 13.3804 3.24191 13.2637 3.28858C13.112 3.34691 12.9837 3.44024 12.8787 3.54524L2.9737 13.4502C2.74037 13.6836 2.63537 13.9752 2.63537 14.2786C2.63537 14.5819 2.75203 14.8736 2.9737 15.1069C3.4287 15.5619 4.1637 15.5619 4.6187 15.1069L12.5404 7.19691L12.5404 23.6236C12.5404 24.2652 13.0654 24.7902 13.707 24.7902C14.3487 24.7902 14.8737 24.2652 14.8737 23.6236Z" fill="black"/>
</svg>
