<svg width="28" height="28" viewBox="0 0 28 28" fill="none" xmlns="http://www.w3.org/2000/svg">
<path d="M12.5433 4.37349L12.5433 20.8118L4.62163 12.8902C4.16663 12.4352 3.43163 12.4352 2.97663 12.8902C2.52163 13.3452 2.52163 14.0802 2.97663 14.5352L12.8933 24.4518C12.9633 24.5218 13.045 24.5568 13.1266 24.6035C13.1733 24.6385 13.22 24.6735 13.2783 24.6968C13.4066 24.7552 13.5583 24.7902 13.71 24.7902C13.745 24.7902 13.7683 24.7785 13.7916 24.7785C13.9083 24.7668 14.0366 24.7552 14.1533 24.7085C14.305 24.6502 14.4333 24.5568 14.5383 24.4518L24.4433 14.5468C24.6766 14.3135 24.7816 14.0218 24.7816 13.7185C24.7816 13.4152 24.665 13.1235 24.4433 12.8902C23.9883 12.4352 23.2533 12.4352 22.7983 12.8902L14.8766 20.8002L14.8766 4.37349C14.8766 3.73183 14.3516 3.20683 13.71 3.20683C13.0683 3.20683 12.5433 3.73183 12.5433 4.37349Z" fill="black"/>
</svg>
