<svg width="28" height="28" viewBox="0 0 28 28" fill="none" xmlns="http://www.w3.org/2000/svg">
<path d="M4.08333 15.1639L20.5217 15.1639L12.6 23.0855C12.145 23.5405 12.145 24.2755 12.6 24.7305C13.055 25.1855 13.79 25.1855 14.245 24.7305L24.1617 14.8139C24.2317 14.7439 24.2667 14.6622 24.3133 14.5805C24.3483 14.5339 24.3833 14.4872 24.4067 14.4289C24.465 14.3005 24.5 14.1489 24.5 13.9972C24.5 13.9622 24.4883 13.9389 24.4883 13.9155C24.4767 13.7989 24.465 13.6705 24.4183 13.5539C24.36 13.4022 24.2667 13.2739 24.1617 13.1689L14.2567 3.26386C14.0233 3.03053 13.7317 2.92553 13.4283 2.92553C13.125 2.92553 12.8333 3.04219 12.6 3.26386C12.145 3.71886 12.145 4.45386 12.6 4.90886L20.51 12.8305L4.08333 12.8305C3.44167 12.8305 2.91667 13.3555 2.91667 13.9972C2.91667 14.6389 3.44167 15.1639 4.08333 15.1639Z" fill="black"/>
</svg>
