<svg width="28" height="28" viewBox="0 0 28 28" fill="none" xmlns="http://www.w3.org/2000/svg">
<path d="M12.5433 4.37362L12.5433 20.8119L4.62163 12.8903C4.16663 12.4353 3.43163 12.4353 2.97663 12.8903C2.52163 13.3453 2.52163 14.0803 2.97663 14.5353L12.8933 24.4519C12.9633 24.5219 13.045 24.5569 13.1266 24.6036C13.1733 24.6386 13.22 24.6736 13.2783 24.6969C13.4066 24.7553 13.5583 24.7903 13.71 24.7903C13.745 24.7903 13.7683 24.7786 13.7916 24.7786C13.9083 24.7669 14.0366 24.7553 14.1533 24.7086C14.305 24.6503 14.4333 24.5569 14.5383 24.4519L24.4433 14.5469C24.6766 14.3136 24.7816 14.0219 24.7816 13.7186C24.7816 13.4153 24.665 13.1236 24.4433 12.8903C23.9883 12.4353 23.2533 12.4353 22.7983 12.8903L14.8766 20.8003L14.8766 4.37362C14.8766 3.73195 14.3516 3.20695 13.71 3.20695C13.0683 3.20695 12.5433 3.73195 12.5433 4.37362Z" fill="black"/>
</svg>
