<svg width="28" height="28" viewBox="0 0 28 28" fill="none" xmlns="http://www.w3.org/2000/svg">
<path d="M23.3333 12.8332H6.89499L14.8167 4.91154C15.2717 4.45654 15.2717 3.72154 14.8167 3.26654C14.3617 2.81154 13.6267 2.81154 13.1717 3.26654L3.25499 13.1832C3.18499 13.2532 3.14999 13.3349 3.10332 13.4165C3.06832 13.4632 3.03332 13.5099 3.00999 13.5682C2.95166 13.6965 2.91666 13.8482 2.91666 13.9999C2.91666 14.0349 2.92832 14.0582 2.92832 14.0815C2.93999 14.1982 2.95166 14.3265 2.99832 14.4432C3.05666 14.5949 3.14999 14.7232 3.25499 14.8282L13.16 24.7332C13.3933 24.9665 13.685 25.0715 13.9883 25.0715C14.2917 25.0715 14.5833 24.9549 14.8167 24.7332C15.2717 24.2782 15.2717 23.5432 14.8167 23.0882L6.90666 15.1665H23.3333C23.975 15.1665 24.5 14.6415 24.5 13.9999C24.5 13.3582 23.975 12.8332 23.3333 12.8332Z" fill="black"/>
</svg>
