<svg width="28" height="28" viewBox="0 0 28 28" fill="none" xmlns="http://www.w3.org/2000/svg">
<path d="M4.08333 15.1637L20.5217 15.1637L12.6 23.0854C12.145 23.5404 12.145 24.2754 12.6 24.7304C13.055 25.1854 13.79 25.1854 14.245 24.7304L24.1617 14.8137C24.2317 14.7437 24.2667 14.6621 24.3133 14.5804C24.3483 14.5337 24.3833 14.4871 24.4067 14.4287C24.465 14.3004 24.5 14.1487 24.5 13.9971C24.5 13.9621 24.4883 13.9387 24.4883 13.9154C24.4767 13.7987 24.465 13.6704 24.4183 13.5537C24.36 13.4021 24.2667 13.2737 24.1617 13.1687L14.2567 3.26374C14.0233 3.03041 13.7317 2.92541 13.4283 2.92541C13.125 2.92541 12.8333 3.04207 12.6 3.26374C12.145 3.71874 12.145 4.45374 12.6 4.90874L20.51 12.8304L4.08333 12.8304C3.44167 12.8304 2.91667 13.3554 2.91667 13.9971C2.91667 14.6387 3.44167 15.1637 4.08333 15.1637Z" fill="black"/>
</svg>
