<svg width="28" height="28" viewBox="0 0 28 28" fill="none" xmlns="http://www.w3.org/2000/svg">
<path d="M23.3334 12.8333H6.89502L14.8167 4.91167C15.2717 4.45667 15.2717 3.72166 14.8167 3.26667C14.3617 2.81167 13.6267 2.81167 13.1717 3.26667L3.25502 13.1833C3.18502 13.2533 3.15002 13.335 3.10335 13.4167C3.06835 13.4633 3.03335 13.51 3.01002 13.5683C2.95169 13.6967 2.91669 13.8483 2.91669 14C2.91669 14.035 2.92835 14.0583 2.92835 14.0817C2.94002 14.1983 2.95169 14.3267 2.99835 14.4433C3.05669 14.595 3.15002 14.7233 3.25502 14.8283L13.16 24.7333C13.3934 24.9667 13.685 25.0717 13.9884 25.0717C14.2917 25.0717 14.5834 24.955 14.8167 24.7333C15.2717 24.2783 15.2717 23.5433 14.8167 23.0883L6.90669 15.1667H23.3334C23.975 15.1667 24.5 14.6417 24.5 14C24.5 13.3583 23.975 12.8333 23.3334 12.8333Z" fill="black"/>
</svg>
