<svg width="28" height="28" viewBox="0 0 28 28" fill="none" xmlns="http://www.w3.org/2000/svg">
<path d="M12.5433 4.37337L12.5433 20.8117L4.62163 12.89C4.16663 12.435 3.43163 12.435 2.97663 12.89C2.52163 13.345 2.52163 14.08 2.97663 14.535L12.8933 24.4517C12.9633 24.5217 13.045 24.5567 13.1266 24.6034C13.1733 24.6384 13.22 24.6734 13.2783 24.6967C13.4066 24.755 13.5583 24.79 13.71 24.79C13.745 24.79 13.7683 24.7784 13.7916 24.7784C13.9083 24.7667 14.0366 24.755 14.1533 24.7084C14.305 24.65 14.4333 24.5567 14.5383 24.4517L24.4433 14.5467C24.6766 14.3134 24.7816 14.0217 24.7816 13.7184C24.7816 13.415 24.665 13.1234 24.4433 12.89C23.9883 12.435 23.2533 12.435 22.7983 12.89L14.8766 20.8L14.8766 4.37337C14.8766 3.7317 14.3516 3.20671 13.71 3.20671C13.0683 3.20671 12.5433 3.7317 12.5433 4.37337Z" fill="black"/>
</svg>
