<svg width="28" height="28" viewBox="0 0 28 28" fill="none" xmlns="http://www.w3.org/2000/svg">
<path d="M23.3333 12.8333H6.89496L14.8166 4.91167C15.2716 4.45667 15.2716 3.72166 14.8166 3.26667C14.3616 2.81167 13.6266 2.81167 13.1716 3.26667L3.25496 13.1833C3.18496 13.2533 3.14996 13.335 3.10329 13.4167C3.06829 13.4633 3.03329 13.51 3.00996 13.5683C2.95163 13.6967 2.91663 13.8483 2.91663 14C2.91663 14.035 2.92829 14.0583 2.92829 14.0817C2.93996 14.1983 2.95163 14.3267 2.99829 14.4433C3.05663 14.595 3.14996 14.7233 3.25496 14.8283L13.16 24.7333C13.3933 24.9667 13.685 25.0717 13.9883 25.0717C14.2916 25.0717 14.5833 24.955 14.8166 24.7333C15.2716 24.2783 15.2716 23.5433 14.8166 23.0883L6.90663 15.1667H23.3333C23.975 15.1667 24.5 14.6417 24.5 14C24.5 13.3583 23.975 12.8333 23.3333 12.8333Z" fill="black"/>
</svg>
