<svg width="28" height="28" viewBox="0 0 28 28" fill="none" xmlns="http://www.w3.org/2000/svg">
<path d="M14.8737 23.6237L14.8737 7.18536L22.7954 15.107C23.2504 15.562 23.9854 15.562 24.4404 15.107C24.8954 14.652 24.8954 13.917 24.4404 13.462L14.5237 3.54536C14.4537 3.47536 14.372 3.44036 14.2904 3.3937C14.2437 3.3587 14.197 3.3237 14.1387 3.30036C14.0104 3.24203 13.8587 3.20703 13.707 3.20703C13.672 3.20703 13.6487 3.2187 13.6254 3.2187C13.5087 3.23036 13.3804 3.24203 13.2637 3.2887C13.112 3.34703 12.9837 3.44036 12.8787 3.54536L2.9737 13.4504C2.74037 13.6837 2.63537 13.9754 2.63537 14.2787C2.63537 14.582 2.75203 14.8737 2.9737 15.107C3.4287 15.562 4.1637 15.562 4.6187 15.107L12.5404 7.19703L12.5404 23.6237C12.5404 24.2654 13.0654 24.7904 13.707 24.7904C14.3487 24.7904 14.8737 24.2654 14.8737 23.6237Z" fill="black"/>
</svg>
