<svg width="28" height="28" viewBox="0 0 28 28" fill="none" xmlns="http://www.w3.org/2000/svg">
<path d="M9.33338 5.8345C9.33338 5.59767 9.17938 5.39233 8.95538 5.32583L7.02221 4.64567L6.34905 2.74517C6.29305 2.50367 6.08188 2.3345 5.83221 2.3345C5.58255 2.3345 5.37255 2.50367 5.33055 2.6985L4.64455 4.64567L2.74288 5.31767C2.50138 5.37367 2.33221 5.58717 2.33338 5.8345C2.33338 6.083 2.50371 6.29417 2.69855 6.335L4.64571 7.021L5.31771 8.9215C5.37255 9.16533 5.58488 9.33333 5.83338 9.33333C6.08188 9.33333 6.29421 9.16417 6.33621 8.96933L7.02221 7.02217L8.92388 6.349C9.16421 6.29533 9.33338 6.083 9.33338 5.8345Z" fill="black"/>
<path d="M17.8489 25.3167C16.8992 25.039 16.1689 24.276 15.883 23.3333H13.09L12.1894 20.6313C12.0307 20.1542 11.5862 19.8333 11.0834 19.8333C10.5805 19.8333 10.136 20.1542 9.97738 20.6313L9.07555 23.3333H7.78288C8.11421 22.6077 8.46421 21.7047 8.71505 20.699C8.94488 19.782 9.08955 18.8697 9.17938 18.0833H17.654C17.7077 18.5477 17.7882 19.061 17.8862 19.5895C17.8909 19.5883 17.8944 19.586 17.899 19.5848L19.1427 19.145L19.6012 17.8465C19.8194 17.1045 20.335 16.4978 21.0012 16.1303V13.4167C21.0012 12.7715 20.4797 12.25 19.8345 12.25H16.3345V4.66667C16.3345 3.05783 15.0267 1.75 13.4179 1.75C11.809 1.75 10.5 3.05783 10.5 4.66667V12.25H7.00005C6.35488 12.25 5.83338 12.7715 5.83338 13.4167V16.9167C5.83338 17.5012 6.26971 17.9632 6.82971 18.0495C6.74805 18.697 6.63138 19.4145 6.45171 20.1343C5.92788 22.2273 4.87205 23.8385 4.86155 23.8537C4.62471 24.213 4.60255 24.6727 4.80671 25.0507C5.00971 25.4298 5.40405 25.6667 5.83338 25.6667H9.91671C10.4195 25.6667 10.864 25.3458 11.0227 24.8687L11.0834 24.689L11.144 24.8687C11.3027 25.3458 11.7472 25.6667 12.25 25.6667H17.8489V25.3167ZM12.8334 4.66667C12.8334 4.34583 13.0959 4.08333 13.4167 4.08333C13.7375 4.08333 14 4.34583 14 4.66667V12.25H12.8334V4.66667ZM8.16671 14.5833H18.6667V15.75H8.16671V14.5833Z" fill="black"/>
<path d="M26.8334 22.4595C26.8334 22.1632 26.6409 21.9065 26.3609 21.8237L23.9435 20.9732L23.1024 18.5978C23.0335 18.2945 22.7687 18.0833 22.4572 18.0833C22.1457 18.0833 21.882 18.2945 21.8295 18.5383L20.972 20.972L18.5955 21.812C18.2934 21.882 18.0822 22.148 18.0834 22.4583C18.0834 22.7687 18.2957 23.0335 18.5395 23.0848L20.9732 23.9423L21.8132 26.3177C21.8809 26.621 22.1469 26.831 22.4572 26.831C22.7675 26.831 23.0335 26.6198 23.086 26.3748L23.9435 23.9412L26.32 23.1C26.6222 23.0347 26.8334 22.7698 26.8334 22.4595Z" fill="black"/>
</svg>
