<svg width="28" height="28" viewBox="0 0 28 28" fill="none" xmlns="http://www.w3.org/2000/svg">
<path fill-rule="evenodd" clip-rule="evenodd" d="M14 4.66671C8.84487 4.66671 4.66671 8.84487 4.66671 14C4.66671 16.1576 5.39748 18.1427 6.62663 19.7235L19.7235 6.62663C18.1427 5.39748 16.1576 4.66671 14 4.66671ZM21.3735 8.27654L8.27654 21.3735C9.85741 22.6026 11.8425 23.3334 14 23.3334C19.1552 23.3334 23.3334 19.1552 23.3334 14C23.3334 11.8425 22.6026 9.85741 21.3735 8.27654ZM5.75027 22.2498C3.64032 20.1399 2.33337 17.2216 2.33337 14C2.33337 7.55621 7.55621 2.33337 14 2.33337C17.2216 2.33337 20.1399 3.64032 22.2498 5.75027C24.3598 7.86022 25.6667 10.7785 25.6667 14C25.6667 20.4439 20.4439 25.6667 14 25.6667C10.7785 25.6667 7.86022 24.3598 5.75027 22.2498Z" fill="black"/>
</svg>
