<svg width="28" height="28" viewBox="0 0 28 28" fill="none" xmlns="http://www.w3.org/2000/svg">
<path fill-rule="evenodd" clip-rule="evenodd" d="M14 4.66683C8.84487 4.66683 4.66671 8.845 4.66671 14.0002C4.66671 16.1577 5.39748 18.1428 6.62663 19.7237L19.7235 6.62675C18.1427 5.3976 16.1576 4.66683 14 4.66683ZM21.3735 8.27667L8.27654 21.3736C9.85741 22.6027 11.8425 23.3335 14 23.3335C19.1552 23.3335 23.3334 19.1553 23.3334 14.0002C23.3334 11.8426 22.6026 9.85753 21.3735 8.27667ZM5.75027 22.2499C3.64032 20.14 2.33337 17.2217 2.33337 14.0002C2.33337 7.55633 7.55621 2.3335 14 2.3335C17.2216 2.3335 20.1399 3.64044 22.2498 5.75039C24.3598 7.86034 25.6667 10.7786 25.6667 14.0002C25.6667 20.444 20.4439 25.6668 14 25.6668C10.7785 25.6668 7.86022 24.3599 5.75027 22.2499Z" fill="black"/>
</svg>
