<svg width="28" height="28" viewBox="0 0 28 28" fill="none" xmlns="http://www.w3.org/2000/svg">
<path d="M25.1137 19.0715C24.4183 17.6354 23.254 14.7467 23.254 11.5442C23.2552 6.29304 19.2757 2.33337 14 2.33337C8.72435 2.33337 4.74485 6.29304 4.74485 11.5442C4.74485 14.7467 3.58051 17.6354 2.88518 19.0715C2.62035 19.6187 2.65535 20.251 2.97735 20.7644C3.29935 21.2765 3.85468 21.5834 4.46135 21.5834H9.28201C9.62735 23.8887 11.6002 25.6667 14 25.6667C16.3998 25.6667 18.3727 23.8887 18.7168 21.5834H23.5375C24.1453 21.5834 24.6995 21.2765 25.0203 20.7644C25.3447 20.2499 25.3785 19.6175 25.1137 19.0715ZM14 23.3334C12.8928 23.3334 11.9653 22.5925 11.6608 21.5834H16.3403C16.0347 22.5925 15.1072 23.3334 14 23.3334Z" fill="black"/>
</svg>
