<svg width="28" height="28" viewBox="0 0 28 28" fill="none" xmlns="http://www.w3.org/2000/svg">
<path d="M25.1137 19.0717C24.4183 17.6355 23.254 14.7468 23.254 11.5443C23.2552 6.29316 19.2757 2.3335 14 2.3335C8.72435 2.3335 4.74485 6.29316 4.74485 11.5443C4.74485 14.7468 3.58051 17.6355 2.88518 19.0717C2.62035 19.6188 2.65535 20.2512 2.97735 20.7645C3.29935 21.2767 3.85468 21.5835 4.46135 21.5835H9.28201C9.62735 23.8888 11.6002 25.6668 14 25.6668C16.3998 25.6668 18.3727 23.8888 18.7168 21.5835H23.5375C24.1453 21.5835 24.6995 21.2767 25.0203 20.7645C25.3447 20.25 25.3785 19.6177 25.1137 19.0717ZM14 23.3335C12.8928 23.3335 11.9653 22.5927 11.6608 21.5835H16.3403C16.0347 22.5927 15.1072 23.3335 14 23.3335Z" fill="black"/>
</svg>
