<svg width="28" height="28" viewBox="0 0 28 28" fill="none" xmlns="http://www.w3.org/2000/svg">
<path d="M25.1136 19.0717C24.4183 17.6355 23.2539 14.7468 23.2539 11.5443C23.2551 6.29316 19.2756 2.3335 13.9999 2.3335C8.72428 2.3335 4.74478 6.29316 4.74478 11.5443C4.74478 14.748 3.58044 17.6367 2.88628 19.0717C2.62144 19.6188 2.65644 20.2512 2.97844 20.7645C3.29928 21.2767 3.85344 21.5835 4.46128 21.5835H9.28311C9.62728 23.8888 11.6013 25.6668 13.9999 25.6668C16.3998 25.6668 18.3726 23.8888 18.7168 21.5835H23.5374C24.1453 21.5835 24.6994 21.2767 25.0203 20.7645C25.3446 20.25 25.3784 19.6177 25.1136 19.0717ZM13.9999 23.3335C12.8928 23.3335 11.9653 22.5927 11.6608 21.5835H16.3403C16.0346 22.5927 15.1071 23.3335 13.9999 23.3335ZM5.37011 19.2502C6.13311 17.4803 7.07928 14.6605 7.07928 11.5443C7.07811 7.62316 10.0543 4.66683 13.9999 4.66683C17.9456 4.66683 20.9218 7.62316 20.9218 11.5443C20.9218 14.6605 21.8679 17.4815 22.6309 19.2502H5.37011Z" fill="black"/>
</svg>
