<svg width="28" height="28" viewBox="0 0 28 28" fill="none" xmlns="http://www.w3.org/2000/svg">
<path d="M25.1136 19.0715C24.4183 17.6354 23.2539 14.7467 23.2539 11.5442C23.2551 6.29304 19.2756 2.33337 13.9999 2.33337C8.72428 2.33337 4.74478 6.29304 4.74478 11.5442C4.74478 14.7479 3.58044 17.6365 2.88628 19.0715C2.62144 19.6187 2.65644 20.251 2.97844 20.7644C3.29928 21.2765 3.85344 21.5834 4.46128 21.5834H9.28311C9.62728 23.8887 11.6013 25.6667 13.9999 25.6667C16.3998 25.6667 18.3726 23.8887 18.7168 21.5834H23.5374C24.1453 21.5834 24.6994 21.2765 25.0203 20.7644C25.3446 20.2499 25.3784 19.6175 25.1136 19.0715ZM13.9999 23.3334C12.8928 23.3334 11.9653 22.5925 11.6608 21.5834H16.3403C16.0346 22.5925 15.1071 23.3334 13.9999 23.3334ZM5.37011 19.25C6.13311 17.4802 7.07928 14.6604 7.07928 11.5442C7.07811 7.62304 10.0543 4.66671 13.9999 4.66671C17.9456 4.66671 20.9218 7.62304 20.9218 11.5442C20.9218 14.6604 21.8679 17.4814 22.6309 19.25H5.37011Z" fill="black"/>
</svg>
