<svg width="28" height="28" viewBox="0 0 28 28" fill="none" xmlns="http://www.w3.org/2000/svg">
<path d="M19.25 2.91663C17.0824 2.91663 15.162 3.80096 14 5.15196C12.838 3.80096 10.9177 2.91663 8.75004 2.91663C5.21154 2.91663 2.33337 5.27213 2.33337 8.16663V22.582C2.33337 23.3041 2.76504 23.9411 3.43237 24.206C4.10437 24.472 4.85921 24.3028 5.35621 23.7731C6.12621 22.953 7.39437 22.463 8.74887 22.463C10.3647 22.463 11.8359 23.1571 12.495 24.2328C12.824 24.766 13.3864 25.0833 14 25.0833C14.6137 25.0833 15.1772 24.766 15.5039 24.2328C16.163 23.1571 17.6342 22.463 19.25 22.463C20.6045 22.463 21.8739 22.953 22.6427 23.7731C23.1409 24.3028 23.8969 24.4755 24.5654 24.206C25.235 23.9411 25.6667 23.3053 25.6667 22.582V8.16663C25.6667 5.27213 22.7874 2.91663 19.25 2.91663ZM8.75004 20.1296C7.22987 20.1296 5.80071 20.5531 4.66671 21.3196V8.16663C4.66671 6.58579 6.53687 5.24996 8.75004 5.24996C10.9632 5.24996 12.8334 6.58579 12.8334 8.16663V21.3255C11.7075 20.5671 10.2807 20.1296 8.75004 20.1296ZM23.3334 21.3173C22.1982 20.5531 20.7702 20.1285 19.25 20.1285C17.7205 20.1285 16.2925 20.566 15.1667 21.3243V8.16663C15.1667 6.58579 17.0369 5.24996 19.25 5.24996C21.4632 5.24996 23.3334 6.58579 23.3334 8.16663V21.3173Z" fill="black"/>
</svg>
