<svg width="28" height="28" viewBox="0 0 28 28" fill="none" xmlns="http://www.w3.org/2000/svg">
<path d="M19.25 2.9165C17.0824 2.9165 15.162 3.80084 14 5.15184C12.838 3.80084 10.9177 2.9165 8.75004 2.9165C5.21154 2.9165 2.33337 5.272 2.33337 8.1665V22.5818C2.33337 23.304 2.76504 23.941 3.43237 24.2058C4.10437 24.4718 4.85921 24.3027 5.35621 23.773C6.12621 22.9528 7.39437 22.4628 8.74887 22.4628C10.3647 22.4628 11.8359 23.157 12.495 24.2327C12.824 24.7658 13.3864 25.0832 14 25.0832C14.6137 25.0832 15.1772 24.7658 15.5039 24.2327C16.163 23.157 17.6342 22.4628 19.25 22.4628C20.6045 22.4628 21.8739 22.9528 22.6427 23.773C23.1409 24.3027 23.8969 24.4753 24.5654 24.2058C25.235 23.941 25.6667 23.3052 25.6667 22.5818V8.1665C25.6667 5.272 22.7874 2.9165 19.25 2.9165ZM8.75004 20.1295C7.22987 20.1295 5.80071 20.553 4.66671 21.3195V8.1665C4.66671 6.58567 6.53687 5.24984 8.75004 5.24984C10.9632 5.24984 12.8334 6.58567 12.8334 8.1665V21.3253C11.7075 20.567 10.2807 20.1295 8.75004 20.1295ZM23.3334 21.3172C22.1982 20.553 20.7702 20.1283 19.25 20.1283C17.7205 20.1283 16.2925 20.5658 15.1667 21.3242V8.1665C15.1667 6.58567 17.0369 5.24984 19.25 5.24984C21.4632 5.24984 23.3334 6.58567 23.3334 8.1665V21.3172Z" fill="black"/>
</svg>
