<svg width="28" height="28" viewBox="0 0 28 28" fill="none" xmlns="http://www.w3.org/2000/svg">
<path d="M18.6671 12.8333H14.5837V5.24992C14.5837 3.64225 13.2747 2.33325 11.6671 2.33325C10.0594 2.33325 8.75039 3.64225 8.75039 5.24992V12.8333H4.66706C4.02306 12.8333 3.50039 13.3559 3.50039 13.9999V17.4999C3.50039 18.1008 3.96006 18.5779 4.54339 18.6421C4.46406 19.1613 4.33573 19.8484 4.11756 20.7176C3.59373 22.8106 2.53789 24.4217 2.52739 24.4369C2.29056 24.7963 2.26839 25.2559 2.47256 25.6339C2.67673 26.0119 3.07106 26.2499 3.50039 26.2499H7.58373C8.08656 26.2499 8.53106 25.9291 8.69089 25.4519L8.75039 25.2723L8.80989 25.4519C8.96973 25.9291 9.41423 26.2499 9.91706 26.2499H15.1671C15.5567 26.2499 15.9207 26.0551 16.1377 25.7308C16.1902 25.6526 17.4246 23.7836 18.0487 21.2834C18.3311 20.1541 18.4827 19.2908 18.5656 18.6678H18.6671C19.3122 18.6678 19.8337 18.1463 19.8337 17.5011V14.0011C19.8337 13.3559 19.3122 12.8333 18.6671 12.8333ZM11.0837 5.24992C11.0837 4.92792 11.3451 4.66659 11.6671 4.66659C11.9891 4.66659 12.2504 4.92792 12.2504 5.24992V12.8333H11.0837V5.24992ZM5.83373 15.1666H17.5004V16.3333H5.83373V15.1666ZM15.7854 20.7176C15.4389 22.1024 14.8591 23.2761 14.5032 23.9166H10.7571L9.85639 21.2146C9.69773 20.7374 9.25323 20.4166 8.75039 20.4166C8.24756 20.4166 7.80306 20.7374 7.64323 21.2146L6.74256 23.9166H5.44989C5.78123 23.1909 6.13123 22.2879 6.38206 21.2823C6.66439 20.1529 6.81489 19.2896 6.89889 18.6666H16.2077C16.1272 19.1834 15.9989 19.8624 15.7854 20.7176Z" fill="black"/>
<path d="M20.4171 25.6666C21.3836 25.6666 22.1671 24.8831 22.1671 23.9166C22.1671 22.9501 21.3836 22.1666 20.4171 22.1666C19.4506 22.1666 18.6671 22.9501 18.6671 23.9166C18.6671 24.8831 19.4506 25.6666 20.4171 25.6666Z" fill="black"/>
<path d="M23.3337 21.5833C23.9781 21.5833 24.5004 21.0609 24.5004 20.4166C24.5004 19.7723 23.9781 19.2499 23.3337 19.2499C22.6894 19.2499 22.1671 19.7723 22.1671 20.4166C22.1671 21.0609 22.6894 21.5833 23.3337 21.5833Z" fill="black"/>
</svg>
