<svg width="28" height="28" viewBox="0 0 28 28" fill="none" xmlns="http://www.w3.org/2000/svg">
<path d="M18.667 12.8333H14.5837V5.24998C14.5837 3.64231 13.2747 2.33331 11.667 2.33331C10.0594 2.33331 8.75036 3.64231 8.75036 5.24998V12.8333H4.66703C4.02303 12.8333 3.50036 13.356 3.50036 14V17.5C3.50036 18.1008 3.96003 18.578 4.54336 18.6421C4.46403 19.1613 4.3357 19.8485 4.11753 20.7176C3.5937 22.8106 2.53786 24.4218 2.52736 24.437C2.29053 24.7963 2.26836 25.256 2.47253 25.634C2.6767 26.012 3.07103 26.25 3.50036 26.25H7.5837C8.08653 26.25 8.53103 25.9291 8.69086 25.452L8.75036 25.2723L8.80986 25.452C8.9697 25.9291 9.4142 26.25 9.91703 26.25H15.167C15.5567 26.25 15.9207 26.0551 16.1377 25.7308C16.1902 25.6526 17.4245 23.7836 18.0487 21.2835C18.331 20.1541 18.4827 19.2908 18.5655 18.6678H18.667C19.3122 18.6678 19.8337 18.1463 19.8337 17.5011V14.0011C19.8337 13.356 19.3122 12.8333 18.667 12.8333ZM11.0837 5.24998C11.0837 4.92798 11.345 4.66665 11.667 4.66665C11.989 4.66665 12.2504 4.92798 12.2504 5.24998V12.8333H11.0837V5.24998ZM5.8337 15.1666H17.5004V16.3333H5.8337V15.1666ZM15.7854 20.7176C15.4389 22.1025 14.859 23.2761 14.5032 23.9166H10.757L9.85636 21.2146C9.6977 20.7375 9.2532 20.4166 8.75036 20.4166C8.24753 20.4166 7.80303 20.7375 7.6432 21.2146L6.74253 23.9166H5.44986C5.7812 23.191 6.1312 22.288 6.38203 21.2823C6.66436 20.153 6.81486 19.2896 6.89886 18.6666H16.2077C16.1272 19.1835 15.9989 19.8625 15.7854 20.7176Z" fill="black"/>
<path d="M20.417 25.6666C21.3835 25.6666 22.167 24.8831 22.167 23.9166C22.167 22.9501 21.3835 22.1666 20.417 22.1666C19.4505 22.1666 18.667 22.9501 18.667 23.9166C18.667 24.8831 19.4505 25.6666 20.417 25.6666Z" fill="black"/>
<path d="M23.3337 21.5833C23.978 21.5833 24.5004 21.061 24.5004 20.4166C24.5004 19.7723 23.978 19.25 23.3337 19.25C22.6894 19.25 22.167 19.7723 22.167 20.4166C22.167 21.061 22.6894 21.5833 23.3337 21.5833Z" fill="black"/>
</svg>
