<svg width="28" height="28" viewBox="0 0 28 28" fill="none" xmlns="http://www.w3.org/2000/svg">
<path d="M22.1667 23.9166H5.83333C3.58167 23.9166 1.75 22.0849 1.75 19.8333V11.0833C1.75 8.83159 3.58167 6.99992 5.83333 6.99992H8.08967L9.50017 4.64909C9.71017 4.29792 10.0905 4.08325 10.5 4.08325H17.5C17.9107 4.08325 18.2898 4.29792 18.4998 4.64909L19.9103 6.99992H22.1667C24.4183 6.99992 26.25 8.83159 26.25 11.0833V19.8333C26.25 22.0849 24.4183 23.9166 22.1667 23.9166ZM5.83333 9.33325C4.8685 9.33325 4.08333 10.1184 4.08333 11.0833V19.8333C4.08333 20.7981 4.8685 21.5833 5.83333 21.5833H22.1667C23.1315 21.5833 23.9167 20.7981 23.9167 19.8333V11.0833C23.9167 10.1184 23.1315 9.33325 22.1667 9.33325H19.25C18.8393 9.33325 18.4602 9.11859 18.2502 8.76742L16.8397 6.41659H11.1603L9.74983 8.76742C9.53983 9.11859 9.1595 9.33325 8.75 9.33325H5.83333Z" fill="black"/>
<path d="M14.0012 20.1249C11.1078 20.1249 8.7535 17.7694 8.7535 14.8749C8.7535 11.9804 11.1078 9.62492 14.0012 9.62492C16.8922 9.62492 19.2453 11.9804 19.2453 14.8749C19.2453 17.7694 16.8922 20.1249 14.0012 20.1249ZM14.0012 11.9583C12.3947 11.9583 11.0868 13.2673 11.0868 14.8749C11.0868 16.4838 12.3947 17.7916 14.0012 17.7916C15.6053 17.7916 16.912 16.4838 16.912 14.8749C16.912 13.2673 15.6065 11.9583 14.0012 11.9583Z" fill="black"/>
</svg>
