<svg width="28" height="28" viewBox="0 0 28 28" fill="none" xmlns="http://www.w3.org/2000/svg">
<path d="M22.1667 23.9166H5.83333C3.58167 23.9166 1.75 22.085 1.75 19.8333V11.0833C1.75 8.83165 3.58167 6.99998 5.83333 6.99998H8.08967L9.50017 4.64915C9.71017 4.29798 10.0905 4.08331 10.5 4.08331H17.5C17.9107 4.08331 18.2898 4.29798 18.4998 4.64915L19.9103 6.99998H22.1667C24.4183 6.99998 26.25 8.83165 26.25 11.0833V19.8333C26.25 22.085 24.4183 23.9166 22.1667 23.9166ZM5.83333 9.33331C4.8685 9.33331 4.08333 10.1185 4.08333 11.0833V19.8333C4.08333 20.7981 4.8685 21.5833 5.83333 21.5833H22.1667C23.1315 21.5833 23.9167 20.7981 23.9167 19.8333V11.0833C23.9167 10.1185 23.1315 9.33331 22.1667 9.33331H19.25C18.8393 9.33331 18.4602 9.11865 18.2502 8.76748L16.8397 6.41665H11.1603L9.74983 8.76748C9.53983 9.11865 9.1595 9.33331 8.75 9.33331H5.83333Z" fill="black"/>
<path d="M14.0012 20.125C11.1078 20.125 8.7535 17.7695 8.7535 14.875C8.7535 11.9805 11.1078 9.62498 14.0012 9.62498C16.8922 9.62498 19.2453 11.9805 19.2453 14.875C19.2453 17.7695 16.8922 20.125 14.0012 20.125ZM14.0012 11.9583C12.3947 11.9583 11.0868 13.2673 11.0868 14.875C11.0868 16.4838 12.3947 17.7916 14.0012 17.7916C15.6053 17.7916 16.912 16.4838 16.912 14.875C16.912 13.2673 15.6065 11.9583 14.0012 11.9583Z" fill="black"/>
</svg>
