<svg width="28" height="28" viewBox="0 0 28 28" fill="none" xmlns="http://www.w3.org/2000/svg">
<path d="M23.9167 6.41665H9.91669V3.49998C9.91669 2.85598 9.39402 2.33331 8.75002 2.33331H7.58335C5.00969 2.33331 2.91669 4.42631 2.91669 6.99998V21C2.91669 23.5736 5.00969 25.6666 7.58335 25.6666H23.9167C24.5619 25.6666 25.0834 25.1451 25.0834 24.5V7.58331C25.0834 6.93931 24.5619 6.41665 23.9167 6.41665ZM5.25002 6.99998C5.25002 5.71315 6.29652 4.66665 7.58335 4.66665V16.3333C6.73402 16.3333 5.93719 16.5608 5.25002 16.9598V6.99998ZM22.75 23.3333H7.58335C6.29652 23.3333 5.25002 22.2868 5.25002 21C5.25002 19.7131 6.29652 18.6666 7.58335 18.6666H8.75002C9.39402 18.6666 9.91669 18.1451 9.91669 17.5V8.74998H22.75V23.3333Z" fill="black"/>
</svg>
