<svg width="28" height="28" viewBox="0 0 28 28" fill="none" xmlns="http://www.w3.org/2000/svg">
<path d="M23.9167 6.41671H9.91669V3.50004C9.91669 2.85604 9.39402 2.33337 8.75002 2.33337H7.58335C5.00969 2.33337 2.91669 4.42637 2.91669 7.00004V21C2.91669 23.5737 5.00969 25.6667 7.58335 25.6667H23.9167C24.5619 25.6667 25.0834 25.1452 25.0834 24.5V7.58337C25.0834 6.93937 24.5619 6.41671 23.9167 6.41671ZM5.25002 7.00004C5.25002 5.71321 6.29652 4.66671 7.58335 4.66671V16.3334C6.73402 16.3334 5.93719 16.5609 5.25002 16.9599V7.00004ZM22.75 23.3334H7.58335C6.29652 23.3334 5.25002 22.2869 5.25002 21C5.25002 19.7132 6.29652 18.6667 7.58335 18.6667H8.75002C9.39402 18.6667 9.91669 18.1452 9.91669 17.5V8.75004H22.75V23.3334Z" fill="black"/>
</svg>
