<svg width="28" height="28" viewBox="0 0 28 28" fill="none" xmlns="http://www.w3.org/2000/svg">
<path d="M14 11.7833C14.7117 11.7833 15.2834 11.2117 15.2834 10.5C15.2834 9.78835 14.7117 9.21668 14 9.21668C13.2884 9.21668 12.7167 9.78835 12.7167 10.5C12.7167 11.2117 13.2884 11.7833 14 11.7833Z" fill="black"/>
<path d="M21.6417 23.9167H6.35836C5.7517 23.9167 5.14503 23.7533 4.62003 23.45C3.80336 22.9833 3.2317 22.2367 2.97503 21.3267C2.73003 20.4283 2.8467 19.4833 3.31336 18.6667L10.9667 5.29668C11.2817 4.74835 11.725 4.30501 12.2734 3.99001C13.9534 3.03335 16.0884 3.61668 17.045 5.29668L24.6867 18.6783C24.99 19.2033 25.1534 19.81 25.1534 20.4167C25.1417 22.3417 23.5784 23.9167 21.6417 23.9167ZM12.985 6.46335L5.34336 19.8333C5.1917 20.1017 5.14503 20.4167 5.2267 20.72C5.30836 21.0233 5.5067 21.2683 5.77503 21.4317C5.95003 21.5367 6.14836 21.5833 6.35836 21.5833H21.6534C22.295 21.5833 22.82 21.0583 22.82 20.4167C22.82 20.2183 22.7617 20.02 22.6684 19.8333L15.015 6.45168C14.7 5.89168 13.9767 5.69335 13.4284 6.02001C13.2417 6.12501 13.09 6.27668 12.985 6.46335ZM14 20.4167C13.3584 20.4167 12.8334 19.8917 12.8334 19.25V14.5833C12.8334 13.9417 13.3584 13.4167 14 13.4167C14.6417 13.4167 15.1667 13.9417 15.1667 14.5833V19.25C15.1667 19.8917 14.6417 20.4167 14 20.4167Z" fill="black"/>
</svg>
