<svg width="28" height="28" viewBox="0 0 28 28" fill="none" xmlns="http://www.w3.org/2000/svg">
<path d="M14 11.7833C14.7116 11.7833 15.2833 11.2117 15.2833 10.5C15.2833 9.78835 14.7116 9.21668 14 9.21668C13.2883 9.21668 12.7166 9.78835 12.7166 10.5C12.7166 11.2117 13.2883 11.7833 14 11.7833Z" fill="black"/>
<path d="M21.6416 23.9167H6.3583C5.75164 23.9167 5.14497 23.7533 4.61997 23.45C3.8033 22.9833 3.23164 22.2367 2.97497 21.3267C2.72997 20.4283 2.84664 19.4833 3.3133 18.6667L10.9666 5.29668C11.2816 4.74835 11.725 4.30501 12.2733 3.99001C13.9533 3.03335 16.0883 3.61668 17.045 5.29668L24.6866 18.6783C24.99 19.2033 25.1533 19.81 25.1533 20.4167C25.1416 22.3417 23.5783 23.9167 21.6416 23.9167ZM12.985 6.46335L5.3433 19.8333C5.19164 20.1017 5.14497 20.4167 5.22664 20.72C5.3083 21.0233 5.50664 21.2683 5.77497 21.4317C5.94997 21.5367 6.1483 21.5833 6.3583 21.5833H21.6533C22.295 21.5833 22.82 21.0583 22.82 20.4167C22.82 20.2183 22.7616 20.02 22.6683 19.8333L15.015 6.45168C14.7 5.89168 13.9766 5.69335 13.4283 6.02001C13.2416 6.12501 13.09 6.27668 12.985 6.46335ZM14 20.4167C13.3583 20.4167 12.8333 19.8917 12.8333 19.25V14.5833C12.8333 13.9417 13.3583 13.4167 14 13.4167C14.6416 13.4167 15.1666 13.9417 15.1666 14.5833V19.25C15.1666 19.8917 14.6416 20.4167 14 20.4167Z" fill="black"/>
</svg>
