<svg width="28" height="28" viewBox="0 0 28 28" fill="none" xmlns="http://www.w3.org/2000/svg">
<path d="M15.9017 11.0249L14.805 12.1099C14.5483 12.3666 14.4783 12.7866 14.84 13.1599C15.4178 13.7413 15.7421 14.5277 15.7421 15.3474C15.7421 16.1671 15.4178 16.9535 14.84 17.5349L10.535 21.8516C9.94253 22.3753 9.1725 22.6531 8.38213 22.6283C7.59176 22.6035 6.84069 22.2778 6.28228 21.7179C5.72388 21.1581 5.40027 20.4061 5.37754 19.6157C5.35481 18.8253 5.63468 18.056 6.15999 17.4649L8.11999 15.4932C7.77839 14.6111 7.60048 13.6742 7.59499 12.7282L4.50332 15.8082C3.49798 16.8307 2.93729 18.209 2.94335 19.6429C2.9494 21.0768 3.52171 22.4503 4.53566 23.4642C5.54961 24.4782 6.92308 25.0505 8.357 25.0565C9.79092 25.0626 11.1692 24.5019 12.1917 23.4966L16.4967 19.1799C17.5126 18.1608 18.0831 16.7805 18.0831 15.3416C18.0831 13.9026 17.5126 12.5223 16.4967 11.5032C16.31 11.3282 16.1 11.1766 15.9017 11.0249Z" fill="black"/>
<path d="M23.4967 4.50311C22.4771 3.48363 21.0943 2.91089 19.6525 2.91089C18.2107 2.91089 16.8279 3.48363 15.8083 4.50311L11.5033 8.81978C10.4874 9.83886 9.91693 11.2191 9.91693 12.6581C9.91693 14.0971 10.4874 15.4774 11.5033 16.4964C11.69 16.6714 11.9 16.8231 12.0983 16.9748L13.195 15.8898C13.5683 15.4698 13.3933 15.0731 13.16 14.8398C12.5822 14.2584 12.2579 13.472 12.2579 12.6523C12.2579 11.8326 12.5822 11.0462 13.16 10.4648L17.465 6.14811C17.7514 5.85922 18.0921 5.62991 18.4675 5.47341C18.843 5.31692 19.2457 5.23635 19.6525 5.23635C20.0593 5.23635 20.462 5.31692 20.8375 5.47341C21.2129 5.62991 21.5536 5.85922 21.84 6.14811C22.4213 6.73002 22.7479 7.51891 22.7479 8.34145C22.7479 9.16399 22.4213 9.95288 21.84 10.5348L19.88 12.5064C20.23 13.3931 20.405 14.3264 20.405 15.2714L23.4967 12.1914C24.5162 11.1719 25.0889 9.78911 25.0889 8.34728C25.0889 6.90545 24.5162 5.52268 23.4967 4.50311Z" fill="black"/>
</svg>
