<svg width="28" height="28" viewBox="0 0 28 28" fill="none" xmlns="http://www.w3.org/2000/svg">
<path d="M15.9017 11.025L14.805 12.11C14.5484 12.3666 14.4784 12.7866 14.84 13.16C15.4178 13.7414 15.7421 14.5278 15.7421 15.3475C15.7421 16.1671 15.4178 16.9535 14.84 17.535L10.535 21.8516C9.9426 22.3754 9.17256 22.6532 8.38219 22.6283C7.59183 22.6035 6.84075 22.2779 6.28234 21.718C5.72394 21.1581 5.40033 20.4062 5.3776 19.6157C5.35487 18.8253 5.63474 18.056 6.16005 17.465L8.12005 15.4933C7.77845 14.6112 7.60054 13.6742 7.59505 12.7283L4.50338 15.8083C3.49804 16.8308 2.93735 18.209 2.94341 19.643C2.94947 21.0769 3.52178 22.4503 4.53572 23.4643C5.54967 24.4782 6.92314 25.0505 8.35706 25.0566C9.79099 25.0627 11.1692 24.502 12.1917 23.4966L16.4967 19.18C17.5126 18.1609 18.0831 16.7806 18.0831 15.3416C18.0831 13.9027 17.5126 12.5224 16.4967 11.5033C16.31 11.3283 16.1 11.1766 15.9017 11.025Z" fill="black"/>
<path d="M23.4967 4.50318C22.4772 3.48369 21.0944 2.91095 19.6526 2.91095C18.2107 2.91095 16.828 3.48369 15.8084 4.50318L11.5034 8.81984C10.4875 9.83893 9.91699 11.2192 9.91699 12.6582C9.91699 14.0971 10.4875 15.4774 11.5034 16.4965C11.6901 16.6715 11.9001 16.8232 12.0984 16.9748L13.1951 15.8898C13.5684 15.4698 13.3934 15.0732 13.1601 14.8398C12.5823 14.2584 12.258 13.472 12.258 12.6523C12.258 11.8327 12.5823 11.0463 13.1601 10.4648L17.4651 6.14818C17.7514 5.85928 18.0922 5.62997 18.4676 5.47348C18.8431 5.31698 19.2458 5.23641 19.6526 5.23641C20.0593 5.23641 20.4621 5.31698 20.8375 5.47348C21.213 5.62997 21.5537 5.85928 21.8401 6.14818C22.4214 6.73008 22.748 7.51897 22.748 8.34151C22.748 9.16405 22.4214 9.95294 21.8401 10.5348L19.8801 12.5065C20.2301 13.3932 20.4051 14.3265 20.4051 15.2715L23.4967 12.1915C24.5162 11.1719 25.089 9.78917 25.089 8.34734C25.089 6.90552 24.5162 5.52274 23.4967 4.50318Z" fill="black"/>
</svg>
