<svg width="28" height="28" viewBox="0 0 28 28" fill="none" xmlns="http://www.w3.org/2000/svg">
<path d="M8.75004 23.3333C8.61004 23.3333 8.47004 23.31 8.34171 23.2633C7.88671 23.0883 7.58337 22.6566 7.58337 22.1666V18.6666H6.41671C4.16504 18.6666 2.33337 16.835 2.33337 14.5833V6.41665C2.33337 4.16498 4.16504 2.33331 6.41671 2.33331H16.9167C19.1684 2.33331 21 4.16498 21 6.41665V14.5833C21 16.835 19.1684 18.6666 16.9167 18.6666H13.3584L9.62504 22.9366C9.40337 23.1933 9.07671 23.3333 8.75004 23.3333ZM6.41671 4.66665C5.44837 4.66665 4.66671 5.44831 4.66671 6.41665V14.5833C4.66671 15.5516 5.44837 16.3333 6.41671 16.3333H8.75004C9.39171 16.3333 9.91671 16.8583 9.91671 17.5V19.0633L11.9584 16.73C12.18 16.4733 12.495 16.3333 12.8334 16.3333H16.9167C17.885 16.3333 18.6667 15.5516 18.6667 14.5833V6.41665C18.6667 5.44831 17.885 4.66665 16.9167 4.66665H6.41671Z" fill="black"/>
<path d="M7.87504 11.9583C8.68046 11.9583 9.33337 11.3054 9.33337 10.5C9.33337 9.69456 8.68046 9.04165 7.87504 9.04165C7.06963 9.04165 6.41671 9.69456 6.41671 10.5C6.41671 11.3054 7.06963 11.9583 7.87504 11.9583Z" fill="black"/>
<path d="M11.6667 11.9583C12.4721 11.9583 13.125 11.3054 13.125 10.5C13.125 9.69456 12.4721 9.04165 11.6667 9.04165C10.8613 9.04165 10.2084 9.69456 10.2084 10.5C10.2084 11.3054 10.8613 11.9583 11.6667 11.9583Z" fill="black"/>
<path d="M15.4584 11.9583C16.2638 11.9583 16.9167 11.3054 16.9167 10.5C16.9167 9.69456 16.2638 9.04165 15.4584 9.04165C14.653 9.04165 14 9.69456 14 10.5C14 11.3054 14.653 11.9583 15.4584 11.9583Z" fill="black"/>
<path d="M23.3334 14V21H21C20.4984 21 20.0784 21.315 19.9034 21.7583L19.4834 21.3383C19.2734 21.1283 18.9817 21 18.6667 21H14.42L13.6034 21.9216C13.965 22.75 14.7934 23.3333 15.75 23.3333H18.1884L20.1834 25.3283C20.3934 25.55 20.6967 25.6666 21 25.6666C21.1517 25.6666 21.3034 25.6433 21.4434 25.5733C21.8867 25.3983 22.1667 24.9666 22.1667 24.5V23.3333H23.3334C24.6167 23.3333 25.6667 22.2833 25.6667 21V16.3333C25.6667 15.05 24.6167 14 23.3334 14Z" fill="black"/>
</svg>
