<svg width="28" height="28" viewBox="0 0 28 28" fill="none" xmlns="http://www.w3.org/2000/svg">
<path d="M14 7.00001C14.6443 7.00001 15.1666 7.52234 15.1666 8.16668V12.8333H19.8333C20.4776 12.8333 21 13.3557 21 14C21 14.6443 20.4776 15.1667 19.8333 15.1667H15.1666V19.8333C15.1666 20.4777 14.6443 21 14 21C13.3556 21 12.8333 20.4777 12.8333 19.8333V15.1667H8.16665C7.52231 15.1667 6.99998 14.6443 6.99998 14C6.99998 13.3557 7.52231 12.8333 8.16665 12.8333H12.8333V8.16668C12.8333 7.52234 13.3556 7.00001 14 7.00001Z" fill="black"/>
<path fill-rule="evenodd" clip-rule="evenodd" d="M14 2.33334C7.55666 2.33334 2.33331 7.55669 2.33331 14C2.33331 20.4433 7.55666 25.6667 14 25.6667C20.4433 25.6667 25.6666 20.4433 25.6666 14C25.6666 7.55669 20.4433 2.33334 14 2.33334ZM4.66665 14C4.66665 8.84535 8.84532 4.66668 14 4.66668C19.1546 4.66668 23.3333 8.84535 23.3333 14C23.3333 19.1547 19.1546 23.3333 14 23.3333C8.84532 23.3333 4.66665 19.1547 4.66665 14Z" fill="black"/>
</svg>
