<svg width="28" height="28" viewBox="0 0 28 28" fill="none" xmlns="http://www.w3.org/2000/svg">
<path d="M10.3333 9.33334C9.78103 9.33334 9.33331 9.78106 9.33331 10.3333V17.6667C9.33331 18.219 9.78103 18.6667 10.3333 18.6667H17.6666C18.2189 18.6667 18.6666 18.219 18.6666 17.6667V10.3333C18.6666 9.78106 18.2189 9.33334 17.6666 9.33334H10.3333Z" fill="black"/>
<path fill-rule="evenodd" clip-rule="evenodd" d="M14 2.33334C7.55666 2.33334 2.33331 7.55669 2.33331 14C2.33331 20.4433 7.55666 25.6667 14 25.6667C20.4433 25.6667 25.6666 20.4433 25.6666 14C25.6666 7.55669 20.4433 2.33334 14 2.33334ZM4.66665 14C4.66665 8.84535 8.84532 4.66668 14 4.66668C19.1546 4.66668 23.3333 8.84535 23.3333 14C23.3333 19.1547 19.1546 23.3333 14 23.3333C8.84532 23.3333 4.66665 19.1547 4.66665 14Z" fill="black"/>
</svg>
