<svg width="28" height="28" viewBox="0 0 28 28" fill="none" xmlns="http://www.w3.org/2000/svg">
<path d="M10.3333 9.33325C9.78103 9.33325 9.33331 9.78097 9.33331 10.3333V17.6666C9.33331 18.2189 9.78103 18.6666 10.3333 18.6666H17.6666C18.2189 18.6666 18.6666 18.2189 18.6666 17.6666V10.3333C18.6666 9.78097 18.2189 9.33325 17.6666 9.33325H10.3333Z" fill="black"/>
<path fill-rule="evenodd" clip-rule="evenodd" d="M14 2.33325C7.55666 2.33325 2.33331 7.5566 2.33331 13.9999C2.33331 20.4432 7.55666 25.6666 14 25.6666C20.4433 25.6666 25.6666 20.4432 25.6666 13.9999C25.6666 7.5566 20.4433 2.33325 14 2.33325ZM4.66665 13.9999C4.66665 8.84526 8.84532 4.66659 14 4.66659C19.1546 4.66659 23.3333 8.84526 23.3333 13.9999C23.3333 19.1546 19.1546 23.3333 14 23.3333C8.84532 23.3333 4.66665 19.1546 4.66665 13.9999Z" fill="black"/>
</svg>
