<svg width="28" height="28" viewBox="0 0 28 28" fill="none" xmlns="http://www.w3.org/2000/svg">
<path d="M14 6.99992C14.6443 6.99992 15.1667 7.52225 15.1667 8.16658V12.8333H19.8333C20.4777 12.8333 21 13.3556 21 13.9999C21 14.6443 20.4777 15.1666 19.8333 15.1666H15.1667V19.8333C15.1667 20.4776 14.6443 20.9999 14 20.9999C13.3557 20.9999 12.8333 20.4776 12.8333 19.8333V15.1666H8.16668C7.52234 15.1666 7.00001 14.6443 7.00001 13.9999C7.00001 13.3556 7.52234 12.8333 8.16668 12.8333H12.8333V8.16658C12.8333 7.52225 13.3557 6.99992 14 6.99992Z" fill="black"/>
<path fill-rule="evenodd" clip-rule="evenodd" d="M14 2.33325C7.55669 2.33325 2.33334 7.5566 2.33334 13.9999C2.33334 20.4432 7.55669 25.6666 14 25.6666C20.4433 25.6666 25.6667 20.4432 25.6667 13.9999C25.6667 7.5566 20.4433 2.33325 14 2.33325ZM4.66668 13.9999C4.66668 8.84526 8.84535 4.66659 14 4.66659C19.1547 4.66659 23.3333 8.84526 23.3333 13.9999C23.3333 19.1546 19.1547 23.3333 14 23.3333C8.84535 23.3333 4.66668 19.1546 4.66668 13.9999Z" fill="black"/>
</svg>
