<svg width="28" height="28" viewBox="0 0 28 28" fill="none" xmlns="http://www.w3.org/2000/svg">
<path d="M14.084 25.6666C10.2282 25.6666 7.09216 22.3999 7.09216 18.3843V7.60775C7.09333 4.69925 9.37533 2.33325 12.18 2.33325C13.5473 2.33325 14.8295 2.88975 15.792 3.89775C16.7382 4.89175 17.2597 6.20892 17.2585 7.60775V17.2818C17.2585 19.0808 15.8398 20.5438 14.0957 20.5438C12.3515 20.5438 10.9328 19.0808 10.9328 17.2818V9.91659C10.9328 9.27259 11.4555 8.74992 12.0995 8.74992C12.7435 8.74992 13.2662 9.27259 13.2662 9.91659V17.2818C13.2662 17.7928 13.6383 18.2104 14.0957 18.2104C14.553 18.2104 14.9252 17.7939 14.9252 17.2818V7.60775C14.9252 6.81092 14.6335 6.06542 14.1015 5.50775C13.5858 4.96525 12.9033 4.66659 12.18 4.66659C10.6622 4.66659 9.42666 5.98609 9.4255 7.60775V18.3843C9.4255 21.1131 11.5162 23.3333 14.084 23.3333C16.653 23.3333 18.7425 21.1131 18.7425 18.3843V9.91659C18.7425 9.27259 19.264 8.74992 19.9092 8.74992C20.5543 8.74992 21.0758 9.27259 21.0758 9.91659V18.3843C21.0758 22.3999 17.9398 25.6666 14.084 25.6666Z" fill="black"/>
</svg>
