<svg width="28" height="28" viewBox="0 0 28 28" fill="none" xmlns="http://www.w3.org/2000/svg">
<path d="M14.084 25.6667C10.2282 25.6667 7.09216 22.4 7.09216 18.3843V7.60784C7.09333 4.69934 9.37533 2.33334 12.18 2.33334C13.5473 2.33334 14.8295 2.88984 15.792 3.89784C16.7382 4.89184 17.2597 6.20901 17.2585 7.60784V17.2818C17.2585 19.0808 15.8398 20.5438 14.0957 20.5438C12.3515 20.5438 10.9328 19.0808 10.9328 17.2818V9.91668C10.9328 9.27268 11.4555 8.75001 12.0995 8.75001C12.7435 8.75001 13.2662 9.27268 13.2662 9.91668V17.2818C13.2662 17.7928 13.6383 18.2105 14.0957 18.2105C14.553 18.2105 14.9252 17.794 14.9252 17.2818V7.60784C14.9252 6.81101 14.6335 6.06551 14.1015 5.50784C13.5858 4.96534 12.9033 4.66668 12.18 4.66668C10.6622 4.66668 9.42666 5.98618 9.4255 7.60784V18.3843C9.4255 21.1132 11.5162 23.3333 14.084 23.3333C16.653 23.3333 18.7425 21.1132 18.7425 18.3843V9.91668C18.7425 9.27268 19.264 8.75001 19.9092 8.75001C20.5543 8.75001 21.0758 9.27268 21.0758 9.91668V18.3843C21.0758 22.4 17.9398 25.6667 14.084 25.6667Z" fill="black"/>
</svg>
