<svg width="28" height="28" viewBox="0 0 28 28" fill="none" xmlns="http://www.w3.org/2000/svg">
<path d="M7.24162 5.59171C6.78601 5.1361 6.04732 5.1361 5.59171 5.59171C5.1361 6.04732 5.1361 6.78601 5.59171 7.24162L12.3501 14L5.59171 20.7584C5.1361 21.214 5.1361 21.9527 5.59171 22.4083C6.04732 22.8639 6.78601 22.8639 7.24162 22.4083L14 15.6499L20.7584 22.4083C21.214 22.8639 21.9527 22.8639 22.4083 22.4083C22.8639 21.9527 22.8639 21.214 22.4083 20.7584L15.6499 14L22.4083 7.24162C22.8639 6.78601 22.8639 6.04732 22.4083 5.59171C21.9527 5.1361 21.214 5.1361 20.7584 5.59171L14 12.3501L7.24162 5.59171Z" fill="black"/>
</svg>
