<svg width="28" height="28" viewBox="0 0 28 28" fill="none" xmlns="http://www.w3.org/2000/svg">
<path d="M24.6583 5.99162C25.1139 5.53601 25.1139 4.79732 24.6583 4.34171C24.2027 3.8861 23.464 3.8861 23.0084 4.34171L18 9.35008V5.75C18 5.10567 17.4777 4.58333 16.8333 4.58333C16.189 4.58333 15.6667 5.10567 15.6667 5.75V12.1667C15.6667 12.811 16.189 13.3333 16.8333 13.3333H23.25C23.8943 13.3333 24.4167 12.811 24.4167 12.1667C24.4167 11.5223 23.8943 11 23.25 11H19.6499L24.6583 5.99162Z" fill="black"/>
<path d="M5.75 15.6667C5.10567 15.6667 4.58333 16.189 4.58333 16.8333C4.58333 17.4777 5.10567 18 5.75 18H9.35008L4.34171 23.0084C3.8861 23.464 3.8861 24.2027 4.34171 24.6583C4.79732 25.1139 5.53601 25.1139 5.99162 24.6583L11 19.6499V23.25C11 23.8943 11.5223 24.4167 12.1667 24.4167C12.811 24.4167 13.3333 23.8943 13.3333 23.25V16.8333C13.3333 16.189 12.811 15.6667 12.1667 15.6667H5.75Z" fill="black"/>
</svg>
