<svg width="28" height="28" viewBox="0 0 28 28" fill="none" xmlns="http://www.w3.org/2000/svg">
<path d="M24.0508 8.37675L19.6221 3.94925C18.9571 3.28308 18.0716 2.91675 17.1313 2.91675H10.8686C9.92713 2.91675 9.04279 3.28308 8.37663 3.94925L3.94913 8.37675C3.28296 9.04175 2.91663 9.92725 2.91663 10.8687V17.1302C2.91663 18.0717 3.28296 18.9561 3.94913 19.6222L8.37779 24.0509C9.04279 24.7159 9.92829 25.0834 10.8698 25.0834H17.1313C18.0728 25.0834 18.9571 24.7171 19.6233 24.0509L24.052 19.6222C24.717 18.9572 25.0845 18.0717 25.0845 17.1302V10.8687C25.0833 9.92725 24.717 9.04175 24.0508 8.37675ZM22.75 17.1314C22.75 17.4487 22.6263 17.7486 22.4011 17.9737L17.9725 22.4024C17.7485 22.6264 17.4486 22.7512 17.1301 22.7512H10.8686C10.5513 22.7512 10.2515 22.6276 10.0263 22.4024L5.59763 17.9737C5.37363 17.7486 5.24996 17.4487 5.24996 17.1314V10.8687C5.24996 10.5502 5.37363 10.2516 5.59879 10.0264L10.0275 5.59891C10.2515 5.37375 10.5513 5.25008 10.8686 5.25008H17.1301C17.4475 5.25008 17.7473 5.37375 17.9725 5.59891L22.4011 10.0264C22.6263 10.2516 22.75 10.5502 22.75 10.8687V17.1314Z" fill="black"/>
<path d="M17.2491 13.1391H14.861V9.11991C14.861 8.74075 14.6125 8.40591 14.2496 8.29508C13.888 8.18541 13.4936 8.32658 13.2836 8.64158L10.0345 13.5217C9.85829 13.7866 9.84196 14.1261 9.99129 14.4061C10.1418 14.6861 10.4335 14.8611 10.7508 14.8611H13.139V18.8791C13.139 19.2582 13.3875 19.5931 13.7503 19.7027C13.8331 19.7272 13.9171 19.7401 14 19.7401C14.2823 19.7401 14.5541 19.6001 14.7163 19.3562L17.9655 14.4761C18.1416 14.2112 18.158 13.8717 18.0075 13.5917C17.8593 13.3141 17.5676 13.1391 17.2491 13.1391Z" fill="black"/>
</svg>
