<svg width="28" height="28" viewBox="0 0 28 28" fill="none" xmlns="http://www.w3.org/2000/svg">
<path d="M14 25.6666C7.57171 25.6666 2.33337 20.4283 2.33337 13.9999C2.33337 7.57159 7.57171 2.33325 14 2.33325C20.4284 2.33325 25.6667 7.57159 25.6667 13.9999C25.6667 20.4283 20.4284 25.6666 14 25.6666ZM14 4.66659C8.85504 4.66659 4.66671 8.85492 4.66671 13.9999C4.66671 19.1449 8.85504 23.3333 14 23.3333C19.145 23.3333 23.3334 19.1449 23.3334 13.9999C23.3334 8.85492 19.145 4.66659 14 4.66659Z" fill="black"/>
<path d="M9.39171 20.5333C8.89004 20.5333 8.41171 20.3349 8.02671 19.9616C7.49004 19.4133 7.31504 18.6432 7.58337 17.9199L9.84671 11.8883C10.15 10.9783 10.8967 10.2199 11.8884 9.84658L17.92 7.58325C18.6317 7.31492 19.4134 7.48992 19.9617 8.02659C20.4984 8.57492 20.6734 9.34492 20.405 10.0683L18.1417 16.0999C17.8384 17.0099 17.0917 17.7683 16.1 18.1416L10.0684 20.4166C9.84671 20.4983 9.62504 20.5333 9.39171 20.5333ZM17.9084 10.0916L12.705 12.0399C12.4717 12.1333 12.1684 12.3083 12.04 12.6699L10.08 17.9083L15.2834 15.9599C15.5167 15.8666 15.82 15.6916 15.9484 15.3299L17.9084 10.0916Z" fill="black"/>
<path d="M14 15.2833C14.7088 15.2833 15.2834 14.7087 15.2834 13.9999C15.2834 13.2912 14.7088 12.7166 14 12.7166C13.2913 12.7166 12.7167 13.2912 12.7167 13.9999C12.7167 14.7087 13.2913 15.2833 14 15.2833Z" fill="black"/>
</svg>
