<svg width="28" height="28" viewBox="0 0 28 28" fill="none" xmlns="http://www.w3.org/2000/svg">
<path d="M14 25.6667C7.57171 25.6667 2.33337 20.4283 2.33337 14C2.33337 7.57168 7.57171 2.33334 14 2.33334C20.4284 2.33334 25.6667 7.57168 25.6667 14C25.6667 20.4283 20.4284 25.6667 14 25.6667ZM14 4.66668C8.85504 4.66668 4.66671 8.85501 4.66671 14C4.66671 19.145 8.85504 23.3333 14 23.3333C19.145 23.3333 23.3334 19.145 23.3334 14C23.3334 8.85501 19.145 4.66668 14 4.66668Z" fill="black"/>
<path d="M9.39171 20.5333C8.89004 20.5333 8.41171 20.335 8.02671 19.9617C7.49004 19.4133 7.31504 18.6433 7.58337 17.92L9.84671 11.8883C10.15 10.9783 10.8967 10.22 11.8884 9.84668L17.92 7.58334C18.6317 7.31501 19.4134 7.49001 19.9617 8.02668C20.4984 8.57501 20.6734 9.34501 20.405 10.0683L18.1417 16.1C17.8384 17.01 17.0917 17.7683 16.1 18.1417L10.0684 20.4167C9.84671 20.4983 9.62504 20.5333 9.39171 20.5333ZM17.9084 10.0917L12.705 12.04C12.4717 12.1333 12.1684 12.3083 12.04 12.67L10.08 17.9083L15.2834 15.96C15.5167 15.8667 15.82 15.6917 15.9484 15.33L17.9084 10.0917Z" fill="black"/>
<path d="M14 15.2833C14.7088 15.2833 15.2834 14.7088 15.2834 14C15.2834 13.2912 14.7088 12.7167 14 12.7167C13.2913 12.7167 12.7167 13.2912 12.7167 14C12.7167 14.7088 13.2913 15.2833 14 15.2833Z" fill="black"/>
</svg>
