<svg width="28" height="28" viewBox="0 0 28 28" fill="none" xmlns="http://www.w3.org/2000/svg">
<path d="M24.0508 8.37666L19.6221 3.94916C18.9571 3.28299 18.0716 2.91666 17.1313 2.91666H10.8686C9.92713 2.91666 9.04279 3.28299 8.37663 3.94916L3.94913 8.37666C3.28296 9.04166 2.91663 9.92716 2.91663 10.8687V17.1302C2.91663 18.0717 3.28296 18.956 3.94913 19.6222L8.37779 24.0508C9.04279 24.7158 9.92829 25.0833 10.8698 25.0833H17.1313C18.0728 25.0833 18.9571 24.717 19.6233 24.0508L24.052 19.6222C24.717 18.9572 25.0845 18.0717 25.0845 17.1302V10.8687C25.0833 9.92716 24.717 9.04166 24.0508 8.37666ZM22.75 17.1313C22.75 17.4487 22.6263 17.7485 22.4011 17.9737L17.9725 22.4023C17.7485 22.6263 17.4486 22.7512 17.1301 22.7512H10.8686C10.5513 22.7512 10.2515 22.6275 10.0263 22.4023L5.59763 17.9737C5.37363 17.7485 5.24996 17.4487 5.24996 17.1313V10.8687C5.24996 10.5502 5.37363 10.2515 5.59879 10.0263L10.0275 5.59882C10.2515 5.37366 10.5513 5.24999 10.8686 5.24999H17.1301C17.4475 5.24999 17.7473 5.37366 17.9725 5.59882L22.4011 10.0263C22.6263 10.2515 22.75 10.5502 22.75 10.8687V17.1313Z" fill="black"/>
<path d="M17.2491 13.139H14.861V9.11982C14.861 8.74066 14.6125 8.40582 14.2496 8.29499C13.888 8.18532 13.4936 8.32649 13.2836 8.64149L10.0345 13.5217C9.85829 13.7865 9.84196 14.126 9.99129 14.406C10.1418 14.686 10.4335 14.861 10.7508 14.861H13.139V18.879C13.139 19.2582 13.3875 19.593 13.7503 19.7027C13.8331 19.7272 13.9171 19.74 14 19.74C14.2823 19.74 14.5541 19.6 14.7163 19.3562L17.9655 14.476C18.1416 14.2112 18.158 13.8717 18.0075 13.5917C17.8593 13.314 17.5676 13.139 17.2491 13.139Z" fill="black"/>
</svg>
