<svg width="28" height="28" viewBox="0 0 28 28" fill="none" xmlns="http://www.w3.org/2000/svg">
<path d="M22.75 23.9166H5.24996C2.99829 23.9166 1.16663 22.0849 1.16663 19.8333V8.16659C1.16663 5.91492 2.99829 4.08325 5.24996 4.08325H22.75C25.0016 4.08325 26.8333 5.91492 26.8333 8.16659V19.8333C26.8333 22.0849 25.0016 23.9166 22.75 23.9166ZM5.24996 6.41659C4.28513 6.41659 3.49996 7.20175 3.49996 8.16659V19.8333C3.49996 20.7981 4.28513 21.5833 5.24996 21.5833H22.75C23.7148 21.5833 24.5 20.7981 24.5 19.8333V8.16659C24.5 7.20175 23.7148 6.41659 22.75 6.41659H5.24996Z" fill="black"/>
<path fill-rule="evenodd" clip-rule="evenodd" d="M6.62779 9.24809C6.99763 8.72075 7.72446 8.59242 8.25296 8.96109L14.0863 13.0444C14.3978 13.2626 14.5833 13.6196 14.5833 13.9999C14.5833 14.3803 14.3978 14.7373 14.0851 14.9554L8.25179 19.0388C7.72446 19.4086 6.99646 19.2803 6.62663 18.7518C6.25679 18.2244 6.38513 17.4964 6.91363 17.1266L11.382 13.9999L6.91363 10.8721C6.38629 10.5034 6.25796 9.77542 6.62779 9.24809Z" fill="black"/>
<path fill-rule="evenodd" clip-rule="evenodd" d="M15.75 18.0833C15.75 17.4393 16.2726 16.9166 16.9166 16.9166H20.4166C21.0606 16.9166 21.5833 17.4393 21.5833 18.0833C21.5833 18.7273 21.0606 19.2499 20.4166 19.2499H16.9166C16.2726 19.2499 15.75 18.7273 15.75 18.0833Z" fill="black"/>
</svg>
