<svg width="28" height="28" viewBox="0 0 28 28" fill="none" xmlns="http://www.w3.org/2000/svg">
<path d="M22.75 23.9167H5.24996C2.99829 23.9167 1.16663 22.085 1.16663 19.8333V8.16668C1.16663 5.91501 2.99829 4.08334 5.24996 4.08334H22.75C25.0016 4.08334 26.8333 5.91501 26.8333 8.16668V19.8333C26.8333 22.085 25.0016 23.9167 22.75 23.9167ZM5.24996 6.41668C4.28513 6.41668 3.49996 7.20184 3.49996 8.16668V19.8333C3.49996 20.7982 4.28513 21.5833 5.24996 21.5833H22.75C23.7148 21.5833 24.5 20.7982 24.5 19.8333V8.16668C24.5 7.20184 23.7148 6.41668 22.75 6.41668H5.24996Z" fill="black"/>
<path fill-rule="evenodd" clip-rule="evenodd" d="M6.62779 9.24818C6.99763 8.72084 7.72446 8.59251 8.25296 8.96118L14.0863 13.0445C14.3978 13.2627 14.5833 13.6197 14.5833 14C14.5833 14.3803 14.3978 14.7373 14.0851 14.9555L8.25179 19.0388C7.72446 19.4087 6.99646 19.2803 6.62663 18.7518C6.25679 18.2245 6.38513 17.4965 6.91363 17.1267L11.382 14L6.91363 10.8722C6.38629 10.5035 6.25796 9.77551 6.62779 9.24818Z" fill="black"/>
<path fill-rule="evenodd" clip-rule="evenodd" d="M15.75 18.0833C15.75 17.4393 16.2726 16.9167 16.9166 16.9167H20.4166C21.0606 16.9167 21.5833 17.4393 21.5833 18.0833C21.5833 18.7273 21.0606 19.25 20.4166 19.25H16.9166C16.2726 19.25 15.75 18.7273 15.75 18.0833Z" fill="black"/>
</svg>
