<svg width="28" height="28" viewBox="0 0 28 28" fill="none" xmlns="http://www.w3.org/2000/svg">
<path d="M23.3333 4.08334C22.6881 4.08334 22.1666 4.60601 22.1666 5.25001V22.75C22.1666 23.3952 22.6881 23.9167 23.3333 23.9167C23.9785 23.9167 24.5 23.3952 24.5 22.75V5.25001C24.5 4.60601 23.9785 4.08334 23.3333 4.08334Z" fill="black"/>
<path d="M20.0631 13.1705L11.3248 4.42518C10.8686 3.96901 10.1301 3.97018 9.67396 4.42518C9.21779 4.88134 9.21779 5.61984 9.67396 6.07601L16.4313 12.838H4.08329C3.43929 12.838 2.91663 13.3607 2.91663 14.0047C2.91663 14.6487 3.43929 15.1713 4.08329 15.1713H16.4301L9.67513 21.9263C9.21896 22.3825 9.21896 23.1198 9.67513 23.576C9.90263 23.8023 10.2013 23.9167 10.5 23.9167C10.7986 23.9167 11.0973 23.8023 11.3248 23.5748L20.0631 14.8365C20.2801 14.6242 20.4166 14.3313 20.4166 14.0035C20.4166 13.6757 20.2801 13.3828 20.0631 13.1705Z" fill="black"/>
</svg>
