<svg width="28" height="28" viewBox="0 0 28 28" fill="none" xmlns="http://www.w3.org/2000/svg">
<path d="M23.3333 4.08325C22.6881 4.08325 22.1666 4.60592 22.1666 5.24992V22.7499C22.1666 23.3951 22.6881 23.9166 23.3333 23.9166C23.9785 23.9166 24.5 23.3951 24.5 22.7499V5.24992C24.5 4.60592 23.9785 4.08325 23.3333 4.08325Z" fill="black"/>
<path d="M20.0631 13.1704L11.3248 4.42509C10.8686 3.96892 10.1301 3.97009 9.67396 4.42509C9.21779 4.88125 9.21779 5.61975 9.67396 6.07592L16.4313 12.8379H4.08329C3.43929 12.8379 2.91663 13.3606 2.91663 14.0046C2.91663 14.6486 3.43929 15.1713 4.08329 15.1713H16.4301L9.67513 21.9263C9.21896 22.3824 9.21896 23.1198 9.67513 23.5759C9.90263 23.8023 10.2013 23.9166 10.5 23.9166C10.7986 23.9166 11.0973 23.8023 11.3248 23.5748L20.0631 14.8364C20.2801 14.6241 20.4166 14.3313 20.4166 14.0034C20.4166 13.6756 20.2801 13.3828 20.0631 13.1704Z" fill="black"/>
</svg>
