<svg width="28" height="28" viewBox="0 0 28 28" fill="none" xmlns="http://www.w3.org/2000/svg">
<path d="M24.7391 8.81534L18.5663 2.67284C18.3481 2.45468 18.053 2.33334 17.7438 2.33334H10.1605C9.51529 2.33334 8.99379 2.85484 8.99379 3.50001V6.10751H11.3271V4.66668H16.5806V9.64251C16.5806 10.2877 17.1021 10.8092 17.7473 10.8092H22.75V17.2258H21.3395V19.5592H23.9166C24.5618 19.5592 25.0833 19.0377 25.0833 18.3925V9.64251C25.0833 9.33218 24.9596 9.03351 24.7391 8.81534ZM18.914 6.31051L21.0898 8.47584H18.914V6.31051Z" fill="black"/>
<path d="M18.662 14.9228L12.4891 8.78034C12.271 8.56334 11.9758 8.44084 11.6666 8.44084H4.08329C3.43813 8.44084 2.91663 8.96234 2.91663 9.60751V24.5C2.91663 25.1452 3.43813 25.6667 4.08329 25.6667H17.8395C18.4846 25.6667 19.0061 25.1452 19.0061 24.5V15.75C19.0061 15.4397 18.8825 15.1422 18.662 14.9228ZM12.8368 12.418L15.0126 14.5833H12.8368V12.418ZM5.24996 23.3333V10.7742H10.5035V15.75C10.5035 16.3952 11.025 16.9167 11.6701 16.9167H16.6728V23.3333H5.24996Z" fill="black"/>
</svg>
