<svg width="28" height="28" viewBox="0 0 28 28" fill="none" xmlns="http://www.w3.org/2000/svg">
<path d="M24.7391 8.81525L18.5663 2.67275C18.3481 2.45459 18.053 2.33325 17.7438 2.33325H10.1605C9.51529 2.33325 8.99379 2.85475 8.99379 3.49992V6.10742H11.3271V4.66659H16.5806V9.64242C16.5806 10.2876 17.1021 10.8091 17.7473 10.8091H22.75V17.2258H21.3395V19.5591H23.9166C24.5618 19.5591 25.0833 19.0376 25.0833 18.3924V9.64242C25.0833 9.33209 24.9596 9.03342 24.7391 8.81525ZM18.914 6.31042L21.0898 8.47575H18.914V6.31042Z" fill="black"/>
<path d="M18.662 14.9228L12.4891 8.78025C12.271 8.56325 11.9758 8.44075 11.6666 8.44075H4.08329C3.43813 8.44075 2.91663 8.96225 2.91663 9.60742V24.4999C2.91663 25.1451 3.43813 25.6666 4.08329 25.6666H17.8395C18.4846 25.6666 19.0061 25.1451 19.0061 24.4999V15.7499C19.0061 15.4396 18.8825 15.1421 18.662 14.9228ZM12.8368 12.4179L15.0126 14.5833H12.8368V12.4179ZM5.24996 23.3333V10.7741H10.5035V15.7499C10.5035 16.3951 11.025 16.9166 11.6701 16.9166H16.6728V23.3333H5.24996Z" fill="black"/>
</svg>
