<svg width="28" height="28" viewBox="0 0 28 28" fill="none" xmlns="http://www.w3.org/2000/svg">
<path d="M25.1078 7.75355L14.6078 1.33688C14.2345 1.10938 13.7643 1.10938 13.391 1.33688L2.89101 7.75355C2.54568 7.96588 2.33334 8.34272 2.33334 8.74988V12.2499H4.66668V9.40438L14 3.70055L23.2178 9.33322H25.6667V8.74988C25.6667 8.34272 25.4543 7.96588 25.1078 7.75355Z" fill="black"/>
<path d="M24.5 11.6666H19.8333C19.1882 11.6666 18.6667 12.1881 18.6667 12.8332V21.4479L17.5 22.1607V10.4999C17.5 9.85588 16.9785 9.33322 16.3333 9.33322H11.6667C11.0227 9.33322 10.5 9.85588 10.5 10.4999V22.1607L9.33334 21.4479V15.7499C9.33334 15.1047 8.81184 14.5832 8.16668 14.5832H3.50001C2.85484 14.5832 2.33334 15.1047 2.33334 15.7499V19.2499C2.33334 19.6559 2.54451 20.0327 2.89101 20.2451L7.55768 23.1046C7.57168 23.1127 7.58684 23.1151 7.60084 23.1232L11.0553 25.2349L11.0588 25.2372L13.391 26.6629C13.5777 26.7761 13.7877 26.8332 13.9988 26.8332C14.21 26.8332 14.42 26.7761 14.6067 26.6629L20.398 23.1232C20.412 23.1151 20.4272 23.1127 20.4412 23.1046L25.1078 20.2451C25.4555 20.0327 25.6667 19.6559 25.6667 19.2499V12.8332C25.6667 12.1881 25.1452 11.6666 24.5 11.6666ZM12.8333 11.6666H15.1667V23.5864L14 24.2992L12.8333 23.5864V11.6666ZM4.66668 16.9166H7.00001V20.0222L6.07134 19.4552L6.06901 19.4576L4.66668 18.5965V16.9166ZM23.3333 18.5965L21.9322 19.4552L21.931 19.4529L21 20.0222V13.9999H23.3333V18.5965Z" fill="black"/>
</svg>
