<svg width="28" height="28" viewBox="0 0 28 28" fill="none" xmlns="http://www.w3.org/2000/svg">
<path d="M25.1078 7.75367L14.6078 1.337C14.2345 1.1095 13.7643 1.1095 13.391 1.337L2.89098 7.75367C2.54565 7.966 2.33331 8.34283 2.33331 8.75V12.25H4.66665V9.4045L14 3.70067L23.2178 9.33333H25.6666V8.75C25.6666 8.34283 25.4543 7.966 25.1078 7.75367Z" fill="black"/>
<path d="M24.5 11.6667H19.8333C19.1881 11.6667 18.6666 12.1882 18.6666 12.8333V21.448L17.5 22.1608V10.5C17.5 9.856 16.9785 9.33333 16.3333 9.33333H11.6666C11.0226 9.33333 10.5 9.856 10.5 10.5V22.1608L9.33331 21.448V15.75C9.33331 15.1048 8.81181 14.5833 8.16665 14.5833H3.49998C2.85481 14.5833 2.33331 15.1048 2.33331 15.75V19.25C2.33331 19.656 2.54448 20.0328 2.89098 20.2452L7.55765 23.1047C7.57165 23.1128 7.58681 23.1152 7.60081 23.1233L11.0553 25.235L11.0588 25.2373L13.391 26.663C13.5776 26.7762 13.7876 26.8333 13.9988 26.8333C14.21 26.8333 14.42 26.7762 14.6066 26.663L20.398 23.1233C20.412 23.1152 20.4271 23.1128 20.4411 23.1047L25.1078 20.2452C25.4555 20.0328 25.6666 19.656 25.6666 19.25V12.8333C25.6666 12.1882 25.1451 11.6667 24.5 11.6667ZM12.8333 11.6667H15.1666V23.5865L14 24.2993L12.8333 23.5865V11.6667ZM4.66665 16.9167H6.99998V20.0223L6.07131 19.4553L6.06898 19.4577L4.66665 18.5967V16.9167ZM23.3333 18.5967L21.9321 19.4553L21.931 19.453L21 20.0223V14H23.3333V18.5967Z" fill="black"/>
</svg>
