<svg width="28" height="28" viewBox="0 0 28 28" fill="none" xmlns="http://www.w3.org/2000/svg">
<path d="M15.8212 14.4807C15.176 14.4807 14.6545 13.9581 14.6545 13.3141V11.6667C14.6545 11.0227 15.176 10.5001 15.8212 10.5001C16.4663 10.5001 16.9878 11.0227 16.9878 11.6667V13.3141C16.9878 13.9581 16.4652 14.4807 15.8212 14.4807Z" fill="black"/>
<path d="M10.3297 14.4807C9.68568 14.4807 9.16301 13.9581 9.16301 13.3141V11.6667C9.16301 11.0227 9.68568 10.5001 10.3297 10.5001C10.9737 10.5001 11.4963 11.0227 11.4963 11.6667V13.3141C11.4963 13.9581 10.9748 14.4807 10.3297 14.4807Z" fill="black"/>
<path d="M13.0923 20.0504C11.1417 20.0504 9.34268 19.1602 8.15734 17.6086C7.76651 17.0964 7.86451 16.3649 8.37551 15.9729C8.88884 15.5821 9.61918 15.6789 10.0112 16.1922C10.752 17.1617 11.8755 17.7182 13.0923 17.7182C14.3092 17.7182 15.4327 17.1617 16.1723 16.1922C16.5632 15.6824 17.2923 15.5809 17.808 15.9729C18.319 16.3637 18.417 17.0964 18.0273 17.6086C16.8408 19.1602 15.043 20.0504 13.0923 20.0504Z" fill="black"/>
<path d="M25.6013 21.5834H23.8513V19.8334C23.8513 19.1882 23.3298 18.6667 22.6847 18.6667C22.0395 18.6667 21.518 19.1882 21.518 19.8334V21.5834H19.768C19.1228 21.5834 18.6013 22.1049 18.6013 22.7501C18.6013 23.3952 19.1228 23.9167 19.768 23.9167H21.518V25.6667C21.518 26.3119 22.0395 26.8334 22.6847 26.8334C23.3298 26.8334 23.8513 26.3119 23.8513 25.6667V23.9167H25.6013C26.2465 23.9167 26.768 23.3952 26.768 22.7501C26.768 22.1049 26.2465 21.5834 25.6013 21.5834Z" fill="black"/>
<path d="M21.5168 12.6094V16.5399C21.8832 16.4092 22.2752 16.3334 22.6847 16.3334C23.0942 16.3334 23.485 16.4092 23.8502 16.5399V12.6094C23.8502 6.99425 19.3258 2.91675 13.0912 2.91675C6.85651 2.91675 2.33334 6.99308 2.33334 12.6094V23.9167C2.33334 24.5619 2.85484 25.0834 3.50001 25.0834C4.14518 25.0834 4.66668 24.5619 4.66668 23.9167V12.6094C4.66668 8.27641 8.13168 5.25008 13.0923 5.25008C18.053 5.25008 21.5168 8.27641 21.5168 12.6094Z" fill="black"/>
</svg>
