<svg width="28" height="28" viewBox="0 0 28 28" fill="none" xmlns="http://www.w3.org/2000/svg">
<path d="M15.8211 14.4807C15.176 14.4807 14.6545 13.958 14.6545 13.314V11.6667C14.6545 11.0227 15.176 10.5 15.8211 10.5C16.4663 10.5 16.9878 11.0227 16.9878 11.6667V13.314C16.9878 13.958 16.4651 14.4807 15.8211 14.4807Z" fill="black"/>
<path d="M10.3296 14.4807C9.68565 14.4807 9.16298 13.958 9.16298 13.314V11.6667C9.16298 11.0227 9.68565 10.5 10.3296 10.5C10.9736 10.5 11.4963 11.0227 11.4963 11.6667V13.314C11.4963 13.958 10.9748 14.4807 10.3296 14.4807Z" fill="black"/>
<path d="M13.0923 20.0503C11.1416 20.0503 9.34265 19.1602 8.15731 17.6085C7.76648 17.0963 7.86448 16.3648 8.37548 15.9728C8.88881 15.582 9.61915 15.6788 10.0111 16.1922C10.752 17.1617 11.8755 17.7182 13.0923 17.7182C14.3091 17.7182 15.4326 17.1617 16.1723 16.1922C16.5631 15.6823 17.2923 15.5808 17.808 15.9728C18.319 16.3637 18.417 17.0963 18.0273 17.6085C16.8408 19.1602 15.043 20.0503 13.0923 20.0503Z" fill="black"/>
<path d="M25.6013 21.5833H23.8513V19.8333C23.8513 19.1882 23.3298 18.6667 22.6846 18.6667C22.0395 18.6667 21.518 19.1882 21.518 19.8333V21.5833H19.768C19.1228 21.5833 18.6013 22.1048 18.6013 22.75C18.6013 23.3952 19.1228 23.9167 19.768 23.9167H21.518V25.6667C21.518 26.3118 22.0395 26.8333 22.6846 26.8333C23.3298 26.8333 23.8513 26.3118 23.8513 25.6667V23.9167H25.6013C26.2465 23.9167 26.768 23.3952 26.768 22.75C26.768 22.1048 26.2465 21.5833 25.6013 21.5833Z" fill="black"/>
<path d="M21.5168 12.6093V16.5398C21.8831 16.4092 22.2751 16.3333 22.6846 16.3333C23.0941 16.3333 23.485 16.4092 23.8501 16.5398V12.6093C23.8501 6.99416 19.3258 2.91666 13.0911 2.91666C6.85648 2.91666 2.33331 6.993 2.33331 12.6093V23.9167C2.33331 24.5618 2.85481 25.0833 3.49998 25.0833C4.14515 25.0833 4.66665 24.5618 4.66665 23.9167V12.6093C4.66665 8.27633 8.13165 5.25 13.0923 5.25C18.053 5.25 21.5168 8.27633 21.5168 12.6093Z" fill="black"/>
</svg>
