<svg width="28" height="28" viewBox="0 0 28 28" fill="none" xmlns="http://www.w3.org/2000/svg">
<path fill-rule="evenodd" clip-rule="evenodd" d="M14 4.66666C14.4149 4.66666 14.7986 4.88706 15.0077 5.24548L18.5841 11.3765L23.4834 9.41677C23.8746 9.26027 24.3199 9.32693 24.6482 9.59116C24.9765 9.85539 25.1367 10.2761 25.0674 10.6918L23.3174 21.1918C23.2237 21.7543 22.737 22.1667 22.1667 22.1667H5.83332C5.26301 22.1667 4.77628 21.7543 4.68253 21.1918L2.93253 10.6918C2.86325 10.2761 3.02352 9.85539 3.3518 9.59116C3.68008 9.32693 4.12534 9.26027 4.51661 9.41677L9.41584 11.3765L12.9922 5.24548C13.2013 4.88706 13.585 4.66666 14 4.66666ZM14 8.14874L10.9244 13.4212C10.6331 13.9205 10.0201 14.1312 9.48336 13.9166L5.57494 12.3532L6.82163 19.8333H21.1783L22.425 12.3532L18.5166 13.9166C17.9799 14.1312 17.3669 13.9205 17.0756 13.4212L14 8.14874Z" fill="black"/>
</svg>
