<svg width="28" height="28" viewBox="0 0 28 28" fill="none" xmlns="http://www.w3.org/2000/svg">
<path fill-rule="evenodd" clip-rule="evenodd" d="M14 4.66675C14.4149 4.66675 14.7986 4.88714 15.0077 5.24557L18.5841 11.3765L23.4834 9.41686C23.8746 9.26035 24.3199 9.32701 24.6482 9.59124C24.9765 9.85547 25.1367 10.2762 25.0674 10.6919L23.3174 21.1919C23.2237 21.7544 22.737 22.1667 22.1667 22.1667H5.83332C5.26301 22.1667 4.77628 21.7544 4.68253 21.1919L2.93253 10.6919C2.86325 10.2762 3.02352 9.85547 3.3518 9.59124C3.68008 9.32701 4.12534 9.26035 4.51661 9.41686L9.41584 11.3765L12.9922 5.24557C13.2013 4.88714 13.585 4.66675 14 4.66675ZM14 8.14882L10.9244 13.4213C10.6331 13.9206 10.0201 14.1313 9.48336 13.9166L5.57494 12.3533L6.82163 19.8334H21.1783L22.425 12.3533L18.5166 13.9166C17.9799 14.1313 17.3669 13.9206 17.0756 13.4213L14 8.14882Z" fill="black"/>
</svg>
