<svg width="28" height="28" viewBox="0 0 28 28" fill="none" xmlns="http://www.w3.org/2000/svg">
<path d="M23.9167 7.00008H19.11V6.41675C19.11 4.49175 17.535 2.91675 15.61 2.91675H12.6934C10.7684 2.91675 9.19335 4.49175 9.19335 6.41675V7.00008H4.08335C3.44169 7.00008 2.91669 7.52508 2.91669 8.16675C2.91669 8.80841 3.44169 9.33341 4.08335 9.33341H6.27669V21.5834C6.27669 23.5084 7.85169 25.0834 9.77669 25.0834H18.235C20.125 25.0834 21.7 23.5434 21.735 21.6301V9.33341H23.9284C24.57 9.33341 25.095 8.80841 25.095 8.16675C25.095 7.52508 24.5584 7.00008 23.9167 7.00008ZM11.5267 6.41675C11.5267 5.77508 12.0517 5.25008 12.6934 5.25008H15.61C16.2517 5.25008 16.7767 5.77508 16.7767 6.41675V7.00008H11.5267V6.41675ZM19.39 21.6067C19.3784 22.2367 18.8534 22.7501 18.2234 22.7501H9.77669C9.13502 22.7501 8.61002 22.2251 8.61002 21.5834V9.33341H19.4017V21.6067H19.39Z" fill="black"/>
<path d="M11.9584 12.2501C11.3167 12.2501 10.7917 12.7751 10.7917 13.4167V19.2501C10.7917 19.8917 11.3167 20.4167 11.9584 20.4167C12.6 20.4167 13.125 19.8917 13.125 19.2501V13.4167C13.125 12.7751 12.6 12.2501 11.9584 12.2501Z" fill="black"/>
<path d="M16.0417 12.2501C15.4 12.2501 14.875 12.7751 14.875 13.4167V19.2501C14.875 19.8917 15.4 20.4167 16.0417 20.4167C16.6834 20.4167 17.2084 19.8917 17.2084 19.2501V13.4167C17.2084 12.7751 16.6834 12.2501 16.0417 12.2501Z" fill="black"/>
</svg>
