<svg width="28" height="28" viewBox="0 0 28 28" fill="none" xmlns="http://www.w3.org/2000/svg">
<path d="M23.9166 7H19.11V6.41666C19.11 4.49166 17.535 2.91666 15.61 2.91666H12.6933C10.7683 2.91666 9.19329 4.49166 9.19329 6.41666V7H4.08329C3.44163 7 2.91663 7.525 2.91663 8.16666C2.91663 8.80833 3.44163 9.33333 4.08329 9.33333H6.27663V21.5833C6.27663 23.5083 7.85163 25.0833 9.77663 25.0833H18.235C20.125 25.0833 21.7 23.5433 21.735 21.63V9.33333H23.9283C24.57 9.33333 25.095 8.80833 25.095 8.16666C25.095 7.525 24.5583 7 23.9166 7ZM11.5266 6.41666C11.5266 5.775 12.0516 5.25 12.6933 5.25H15.61C16.2516 5.25 16.7766 5.775 16.7766 6.41666V7H11.5266V6.41666ZM19.39 21.6067C19.3783 22.2367 18.8533 22.75 18.2233 22.75H9.77663C9.13496 22.75 8.60996 22.225 8.60996 21.5833V9.33333H19.4016V21.6067H19.39Z" fill="black"/>
<path d="M11.9583 12.25C11.3166 12.25 10.7916 12.775 10.7916 13.4167V19.25C10.7916 19.8917 11.3166 20.4167 11.9583 20.4167C12.6 20.4167 13.125 19.8917 13.125 19.25V13.4167C13.125 12.775 12.6 12.25 11.9583 12.25Z" fill="black"/>
<path d="M16.0416 12.25C15.4 12.25 14.875 12.775 14.875 13.4167V19.25C14.875 19.8917 15.4 20.4167 16.0416 20.4167C16.6833 20.4167 17.2083 19.8917 17.2083 19.25V13.4167C17.2083 12.775 16.6833 12.25 16.0416 12.25Z" fill="black"/>
</svg>
