<svg width="28" height="28" viewBox="0 0 28 28" fill="none" xmlns="http://www.w3.org/2000/svg">
<path d="M23.1933 3.5H4.80665C3.44165 3.5 2.33331 4.60833 2.33331 5.97333V18.13C2.33331 19.495 3.44165 20.6033 4.80665 20.6033H12.8333V22.7383H9.40331C8.76165 22.7383 8.23665 23.2633 8.23665 23.905C8.23665 24.5467 8.76165 25.0717 9.40331 25.0717H18.3866C19.0283 25.0717 19.5533 24.5467 19.5533 23.905C19.5533 23.2633 19.0283 22.7383 18.3866 22.7383H15.1666V20.6033H23.1933C24.5583 20.6033 25.6666 19.495 25.6666 18.13V5.97333C25.6666 4.60833 24.5583 3.5 23.1933 3.5ZM23.3333 18.13C23.3333 18.2117 23.2633 18.27 23.1933 18.27H4.80665C4.73665 18.2817 4.66665 18.2117 4.66665 18.13V5.97333C4.66665 5.90333 4.73665 5.83333 4.80665 5.83333H23.1816C23.2633 5.83333 23.3333 5.90333 23.3333 5.97333V18.13Z" fill="black"/>
</svg>
