<svg width="28" height="28" viewBox="0 0 28 28" fill="none" xmlns="http://www.w3.org/2000/svg">
<path d="M23.1934 3.5H4.80671C3.44171 3.5 2.33337 4.60833 2.33337 5.97333V18.13C2.33337 19.495 3.44171 20.6033 4.80671 20.6033H12.8334V22.7383H9.40338C8.76171 22.7383 8.23671 23.2633 8.23671 23.905C8.23671 24.5467 8.76171 25.0717 9.40338 25.0717H18.3867C19.0284 25.0717 19.5534 24.5467 19.5534 23.905C19.5534 23.2633 19.0284 22.7383 18.3867 22.7383H15.1667V20.6033H23.1934C24.5584 20.6033 25.6667 19.495 25.6667 18.13V5.97333C25.6667 4.60833 24.5584 3.5 23.1934 3.5ZM23.3334 18.13C23.3334 18.2117 23.2634 18.27 23.1934 18.27H4.80671C4.73671 18.2817 4.66671 18.2117 4.66671 18.13V5.97333C4.66671 5.90333 4.73671 5.83333 4.80671 5.83333H23.1817C23.2634 5.83333 23.3334 5.90333 23.3334 5.97333V18.13Z" fill="black"/>
</svg>
