<svg width="28" height="28" viewBox="0 0 28 28" fill="none" xmlns="http://www.w3.org/2000/svg">
<path d="M21.3889 22.1668H6.8056C6.27087 22.1668 5.83337 21.7293 5.83337 21.1945V18.2779C5.83337 17.7431 6.27087 17.3056 6.8056 17.3056C7.34032 17.3056 7.77782 17.7431 7.77782 18.2779V20.2223H20.4167V18.2779C20.4167 17.7431 20.8542 17.3056 21.3889 17.3056C21.9237 17.3056 22.3612 17.7431 22.3612 18.2779V21.1945C22.3612 21.7293 21.9237 22.1668 21.3889 22.1668Z" fill="black"/>
<path d="M14.097 17.7917C13.854 17.7917 13.6304 17.7042 13.4651 17.5584C13.4554 17.5487 13.4457 17.5487 13.4457 17.539L7.56371 12.1917C7.1651 11.832 7.13593 11.2195 7.49566 10.8209C7.85538 10.4223 8.46788 10.3931 8.86649 10.7529L13.1248 14.6223V5.63897C13.1248 5.10425 13.5623 4.66675 14.097 4.66675C14.6318 4.66675 15.0693 5.10425 15.0693 5.63897V14.6126L19.3276 10.7529C19.7262 10.3931 20.3387 10.4223 20.6984 10.8209C21.0582 11.2195 21.029 11.832 20.6304 12.1917L14.8165 17.4709C14.6415 17.6654 14.3887 17.7917 14.097 17.7917Z" fill="black"/>
</svg>
