<svg width="28" height="28" viewBox="0 0 28 28" fill="none" xmlns="http://www.w3.org/2000/svg">
<path d="M19.9966 24.5H8.00331C7.58331 24.5 7.19831 24.2783 6.99998 23.9167C6.78998 23.555 6.78998 23.1117 6.99998 22.75L12.005 14L6.98831 5.25C6.77831 4.88833 6.77831 4.445 6.98831 4.08333C7.19831 3.72167 7.58331 3.5 8.00331 3.5H20.0083C20.65 3.5 21.175 4.025 21.175 4.66667C21.175 5.30833 20.65 5.83333 20.0083 5.83333H10.01L14.35 13.4167C14.56 13.7783 14.56 14.21 14.35 14.5717L10.01 22.1667H19.9966C20.6383 22.1667 21.1633 22.6917 21.1633 23.3333C21.1633 23.975 20.65 24.5 19.9966 24.5Z" fill="black"/>
</svg>
