<svg width="28" height="28" viewBox="0 0 28 28" fill="none" xmlns="http://www.w3.org/2000/svg">
<path d="M16.3333 21C16.3333 20.5917 16.415 20.195 16.5433 19.8333H5.24996V10.5233L13.2883 16.6717C13.4983 16.835 13.7433 16.9167 14 16.9167C14.2566 16.9167 14.5016 16.835 14.7116 16.6717L22.75 10.5233V14.5833C23.6483 14.5833 24.465 14.9217 25.0833 15.4817V7C25.0833 6.35834 24.5583 5.83334 23.9166 5.83334H4.08329C3.44163 5.83334 2.91663 6.35834 2.91663 7V21C2.91663 21.6417 3.44163 22.1667 4.08329 22.1667H16.5433C16.415 21.805 16.3333 21.4083 16.3333 21ZM21.9916 8.16667L14 14.28L6.00829 8.16667H21.9916Z" fill="black"/>
<path d="M25.6666 19.8333H23.9166V18.0833C23.9166 17.4417 23.3916 16.9167 22.75 16.9167C22.1083 16.9167 21.5833 17.4417 21.5833 18.0833V19.8333H19.8333C19.1916 19.8333 18.6666 20.3583 18.6666 21C18.6666 21.6417 19.1916 22.1667 19.8333 22.1667H21.5833V23.9167C21.5833 24.5583 22.1083 25.0833 22.75 25.0833C23.3916 25.0833 23.9166 24.5583 23.9166 23.9167V22.1667H25.6666C26.3083 22.1667 26.8333 21.6417 26.8333 21C26.8333 20.3583 26.3083 19.8333 25.6666 19.8333Z" fill="black"/>
</svg>
