<svg width="28" height="28" viewBox="0 0 28 28" fill="none" xmlns="http://www.w3.org/2000/svg">
<path d="M23.9166 5.83325H4.08329C3.44163 5.83325 2.91663 6.35825 2.91663 6.99992V20.9999C2.91663 21.6416 3.44163 22.1666 4.08329 22.1666H23.9166C24.5583 22.1666 25.0833 21.6416 25.0833 20.9999V6.99992C25.0833 6.35825 24.5583 5.83325 23.9166 5.83325ZM21.9916 8.16659L14 14.2799L6.00829 8.16659H21.9916ZM5.24996 19.8333V10.5233L13.2883 16.6716C13.4983 16.8349 13.7433 16.9166 14 16.9166C14.2566 16.9166 14.5016 16.8349 14.7116 16.6716L22.75 10.5233V19.8333H5.24996Z" fill="black"/>
</svg>
