<svg width="28" height="28" viewBox="0 0 28 28" fill="none" xmlns="http://www.w3.org/2000/svg">
<path d="M23.9166 5.83334H4.08329C3.44163 5.83334 2.91663 6.35834 2.91663 7V21C2.91663 21.6417 3.44163 22.1667 4.08329 22.1667H23.9166C24.5583 22.1667 25.0833 21.6417 25.0833 21V7C25.0833 6.35834 24.5583 5.83334 23.9166 5.83334ZM21.9916 8.16667L14 14.28L6.00829 8.16667H21.9916ZM5.24996 19.8333V10.5233L13.2883 16.6717C13.4983 16.835 13.7433 16.9167 14 16.9167C14.2566 16.9167 14.5016 16.835 14.7116 16.6717L22.75 10.5233V19.8333H5.24996Z" fill="black"/>
</svg>
