<svg width="28" height="28" viewBox="0 0 28 28" fill="none" xmlns="http://www.w3.org/2000/svg">
<path d="M16.3333 20.9999C16.3333 20.5916 16.415 20.1949 16.5433 19.8333H5.24996V10.5233L13.2883 16.6716C13.4983 16.8349 13.7433 16.9166 14 16.9166C14.2566 16.9166 14.5016 16.8349 14.7116 16.6716L22.75 10.5233V14.5833C23.6483 14.5833 24.465 14.9216 25.0833 15.4816V6.99992C25.0833 6.35825 24.5583 5.83325 23.9166 5.83325H4.08329C3.44163 5.83325 2.91663 6.35825 2.91663 6.99992V20.9999C2.91663 21.6416 3.44163 22.1666 4.08329 22.1666H16.5433C16.415 21.8049 16.3333 21.4083 16.3333 20.9999ZM21.9916 8.16659L14 14.2799L6.00829 8.16659H21.9916Z" fill="black"/>
<path d="M25.6666 19.8333H23.9166V18.0833C23.9166 17.4416 23.3916 16.9166 22.75 16.9166C22.1083 16.9166 21.5833 17.4416 21.5833 18.0833V19.8333H19.8333C19.1916 19.8333 18.6666 20.3583 18.6666 20.9999C18.6666 21.6416 19.1916 22.1666 19.8333 22.1666H21.5833V23.9166C21.5833 24.5583 22.1083 25.0833 22.75 25.0833C23.3916 25.0833 23.9166 24.5583 23.9166 23.9166V22.1666H25.6666C26.3083 22.1666 26.8333 21.6416 26.8333 20.9999C26.8333 20.3583 26.3083 19.8333 25.6666 19.8333Z" fill="black"/>
</svg>
