<svg width="28" height="28" viewBox="0 0 28 28" fill="none" xmlns="http://www.w3.org/2000/svg">
<path fill-rule="evenodd" clip-rule="evenodd" d="M16.9167 5.83333C16.2723 5.83333 15.75 5.311 15.75 4.66667C15.75 4.02233 16.2723 3.5 16.9167 3.5H23.3333C23.9777 3.5 24.5 4.02233 24.5 4.66667V11.0833C24.5 11.7277 23.9777 12.25 23.3333 12.25C22.689 12.25 22.1667 11.7277 22.1667 11.0833V7.48325L17.1583 12.4916C16.7027 12.9472 15.964 12.9472 15.5084 12.4916C15.0528 12.036 15.0528 11.2973 15.5084 10.8417L20.5168 5.83333H16.9167ZM12.4916 15.5084C12.9472 15.964 12.9472 16.7027 12.4916 17.1583L7.48325 22.1667H11.0833C11.7277 22.1667 12.25 22.689 12.25 23.3333C12.25 23.9777 11.7277 24.5 11.0833 24.5H4.66667C4.02233 24.5 3.5 23.9777 3.5 23.3333V16.9167C3.5 16.2723 4.02233 15.75 4.66667 15.75C5.311 15.75 5.83333 16.2723 5.83333 16.9167V20.5168L10.8417 15.5084C11.2973 15.0528 12.036 15.0528 12.4916 15.5084Z" fill="black"/>
</svg>
