<svg width="28" height="28" viewBox="0 0 28 28" fill="none" xmlns="http://www.w3.org/2000/svg">
<path d="M19.25 24.4999H4.66667C4.025 24.4999 3.5 23.9749 3.5 23.3332V8.74989C3.5 8.10822 4.025 7.58322 4.66667 7.58322H12.25C12.8917 7.58322 13.4167 8.10822 13.4167 8.74989C13.4167 9.39156 12.8917 9.91656 12.25 9.91656H5.83333V22.1666H18.0833V15.7499C18.0833 15.1082 18.6083 14.5832 19.25 14.5832C19.8917 14.5832 20.4167 15.1082 20.4167 15.7499V23.3332C20.4167 23.9749 19.8917 24.4999 19.25 24.4999Z" fill="black"/>
<path d="M14 15.1666C13.6967 15.1666 13.405 15.0499 13.1717 14.8282C12.7167 14.3732 12.7167 13.6382 13.1717 13.1832L21.0933 5.26156H16.9167C16.275 5.26156 15.75 4.73656 15.75 4.09489C15.75 3.45322 16.275 2.92822 16.9167 2.92822H23.9167C24.0683 2.92822 24.22 2.96322 24.36 3.02156C24.5 3.05656 24.6283 3.14989 24.745 3.25489C24.8617 3.35989 24.9433 3.49989 24.99 3.63989C25.0483 3.77989 25.0833 3.91989 25.0833 4.08322V11.0832C25.0833 11.7249 24.5583 12.2499 23.9167 12.2499C23.275 12.2499 22.75 11.7249 22.75 11.0832V6.89489L14.8283 14.8166C14.595 15.0499 14.3033 15.1666 14 15.1666Z" fill="black"/>
</svg>
