<svg width="28" height="28" viewBox="0 0 28 28" fill="none" xmlns="http://www.w3.org/2000/svg">
<path d="M19.25 24.5H4.66667C4.025 24.5 3.5 23.975 3.5 23.3333V8.75001C3.5 8.10835 4.025 7.58334 4.66667 7.58334H12.25C12.8917 7.58334 13.4167 8.10835 13.4167 8.75001C13.4167 9.39168 12.8917 9.91668 12.25 9.91668H5.83333V22.1667H18.0833V15.75C18.0833 15.1083 18.6083 14.5833 19.25 14.5833C19.8917 14.5833 20.4167 15.1083 20.4167 15.75V23.3333C20.4167 23.975 19.8917 24.5 19.25 24.5Z" fill="black"/>
<path d="M14 15.1667C13.6967 15.1667 13.405 15.05 13.1717 14.8283C12.7167 14.3733 12.7167 13.6383 13.1717 13.1833L21.0933 5.26168H16.9167C16.275 5.26168 15.75 4.73668 15.75 4.09501C15.75 3.45334 16.275 2.92834 16.9167 2.92834H23.9167C24.0683 2.92834 24.22 2.96334 24.36 3.02168C24.5 3.05668 24.6283 3.15001 24.745 3.25501C24.8617 3.36001 24.9433 3.50001 24.99 3.64001C25.0483 3.78001 25.0833 3.92001 25.0833 4.08334V11.0833C25.0833 11.725 24.5583 12.25 23.9167 12.25C23.275 12.25 22.75 11.725 22.75 11.0833V6.89501L14.8283 14.8167C14.595 15.05 14.3033 15.1667 14 15.1667Z" fill="black"/>
</svg>
