<svg width="28" height="28" viewBox="0 0 28 28" fill="none" xmlns="http://www.w3.org/2000/svg">
<path d="M22.1667 25.0834H5.83332C5.18932 25.0834 4.66666 24.5619 4.66666 23.9167V4.08341C4.66666 3.43941 5.18932 2.91675 5.83332 2.91675H15.1667C15.47 2.91675 15.7442 3.03225 15.9518 3.22125C15.9542 3.22125 15.9542 3.22241 15.9542 3.22241C15.967 3.23408 15.9787 3.24575 15.9915 3.25858L22.9915 10.2586C23.0043 10.2702 23.016 10.2831 23.0277 10.2959L23.0288 10.2971C23.2178 10.5047 23.3333 10.7812 23.3333 11.0834V23.9167C23.3333 24.5619 22.8118 25.0834 22.1667 25.0834ZM6.99999 22.7501H21V12.2501H15.1667C14.5227 12.2501 14 11.7274 14 11.0834V5.25008H6.99999V22.7501ZM16.3333 9.91675H19.3503L16.3333 6.89975V9.91675Z" fill="black"/>
</svg>
