<svg width="28" height="28" viewBox="0 0 28 28" fill="none" xmlns="http://www.w3.org/2000/svg">
<path d="M22.1667 25.0834H5.83335C5.18935 25.0834 4.66669 24.5619 4.66669 23.9167V4.08335C4.66669 3.43935 5.18935 2.91669 5.83335 2.91669H15.1667C15.47 2.91669 15.7442 3.03219 15.9519 3.22119C15.9542 3.22119 15.9542 3.22235 15.9542 3.22235C15.967 3.23402 15.9787 3.24569 15.9915 3.25852L22.9915 10.2585C23.0044 10.2702 23.016 10.283 23.0277 10.2959L23.0289 10.297C23.2179 10.5047 23.3334 10.7812 23.3334 11.0834V23.9167C23.3334 24.5619 22.8119 25.0834 22.1667 25.0834ZM7.00002 22.75H21V12.25H15.1667C14.5227 12.25 14 11.7274 14 11.0834V5.25002H7.00002V22.75ZM16.3334 9.91669H19.3504L16.3334 6.89969V9.91669Z" fill="black"/>
</svg>
