<svg width="28" height="28" viewBox="0 0 28 28" fill="none" xmlns="http://www.w3.org/2000/svg">
<path d="M22.75 4.08331H5.25002C2.99835 4.08331 1.16669 5.91498 1.16669 8.16665V19.8333C1.16669 22.085 2.99835 23.9166 5.25002 23.9166H22.75C25.0017 23.9166 26.8334 22.085 26.8334 19.8333V8.16665C26.8334 5.91498 25.0017 4.08331 22.75 4.08331ZM24.5 8.16665V9.91665H22.1667V6.41665H22.75C23.7149 6.41665 24.5 7.20181 24.5 8.16665ZM19.8334 12.8333H8.16669V6.41665H19.8334V12.8333ZM5.83335 15.75H3.50002V12.25H5.83335V15.75ZM8.16669 15.1666H19.8334V21.5833H8.16669V15.1666ZM22.1667 12.25H24.5V15.75H22.1667V12.25ZM5.25002 6.41665H5.83335V9.91665H3.50002V8.16665C3.50002 7.20181 4.28519 6.41665 5.25002 6.41665ZM3.50002 19.8333V18.0833H5.83335V21.5833H5.25002C4.28519 21.5833 3.50002 20.7981 3.50002 19.8333ZM22.75 21.5833H22.1667V18.0833H24.5V19.8333C24.5 20.7981 23.7149 21.5833 22.75 21.5833Z" fill="black"/>
</svg>
