<svg width="28" height="28" viewBox="0 0 28 28" fill="none" xmlns="http://www.w3.org/2000/svg">
<path d="M22.75 4.08325H5.25002C2.99835 4.08325 1.16669 5.91492 1.16669 8.16659V19.8333C1.16669 22.0849 2.99835 23.9166 5.25002 23.9166H22.75C25.0017 23.9166 26.8334 22.0849 26.8334 19.8333V8.16659C26.8334 5.91492 25.0017 4.08325 22.75 4.08325ZM24.5 8.16659V9.91659H22.1667V6.41659H22.75C23.7149 6.41659 24.5 7.20175 24.5 8.16659ZM19.8334 12.8333H8.16669V6.41659H19.8334V12.8333ZM5.83335 15.7499H3.50002V12.2499H5.83335V15.7499ZM8.16669 15.1666H19.8334V21.5833H8.16669V15.1666ZM22.1667 12.2499H24.5V15.7499H22.1667V12.2499ZM5.25002 6.41659H5.83335V9.91659H3.50002V8.16659C3.50002 7.20175 4.28519 6.41659 5.25002 6.41659ZM3.50002 19.8333V18.0833H5.83335V21.5833H5.25002C4.28519 21.5833 3.50002 20.7981 3.50002 19.8333ZM22.75 21.5833H22.1667V18.0833H24.5V19.8333C24.5 20.7981 23.7149 21.5833 22.75 21.5833Z" fill="black"/>
</svg>
