<svg width="28" height="28" viewBox="0 0 28 28" fill="none" xmlns="http://www.w3.org/2000/svg">
<path d="M14 18.6317C12.7701 18.6317 11.5905 18.1431 10.7208 17.2734C9.85114 16.4037 9.36255 15.2241 9.36255 13.9942C9.36255 12.7643 9.85114 11.5847 10.7208 10.715C11.5905 9.8453 12.7701 9.3567 14 9.3567C15.23 9.3567 16.4096 9.8453 17.2793 10.715C18.149 11.5847 18.6376 12.7643 18.6376 13.9942C18.6376 15.2241 18.149 16.4037 17.2793 17.2734C16.4096 18.1431 15.23 18.6317 14 18.6317ZM14 11.7017C13.6982 11.7017 13.3994 11.7612 13.1205 11.8767C12.8417 11.9922 12.5883 12.1615 12.3749 12.3749C12.1615 12.5883 11.9922 12.8417 11.8767 13.1205C11.7612 13.3994 11.7017 13.6982 11.7017 14C11.7017 14.3019 11.7612 14.6007 11.8767 14.8796C11.9922 15.1584 12.1615 15.4118 12.3749 15.6252C12.5883 15.8386 12.8417 16.0079 13.1205 16.1234C13.3994 16.2389 13.6982 16.2984 14 16.2984C14.6096 16.2984 15.1942 16.0562 15.6252 15.6252C16.0562 15.1942 16.2984 14.6096 16.2984 14C16.2984 13.3905 16.0562 12.8059 15.6252 12.3749C15.1942 11.9438 14.6096 11.7017 14 11.7017Z" fill="black"/>
<path d="M14 26.25C13.5567 26.25 13.09 26.2267 12.6 26.1567C12.2647 26.1121 11.9484 25.975 11.6867 25.7607C11.425 25.5463 11.2282 25.2633 11.1184 24.9434L10.3717 22.7617L8.30669 23.7767C7.67669 24.08 6.91836 24.01 6.37003 23.5667C5.64669 22.995 4.99336 22.3417 4.43336 21.63C4.21846 21.3603 4.08462 21.035 4.04744 20.6922C4.01026 20.3493 4.07127 20.0029 4.22336 19.6934L5.23836 17.6284L3.05669 16.8817C2.40336 16.66 1.92503 16.0767 1.84336 15.3884C1.73044 14.4662 1.73044 13.5338 1.84336 12.6117C1.92503 11.9234 2.40336 11.34 3.05669 11.1184L5.23836 10.3717L4.22336 8.30669C3.92003 7.67669 3.99003 6.91836 4.42169 6.37003C5.00503 5.65836 5.65836 5.00503 6.37003 4.43336C6.63977 4.21846 6.96502 4.08462 7.3079 4.04744C7.65077 4.01026 7.99715 4.07127 8.30669 4.22336L10.3717 5.23836L11.1184 3.05669C11.34 2.40336 11.935 1.92503 12.6117 1.84336C13.6034 1.72669 14.3967 1.72669 15.3884 1.84336C16.0767 1.92503 16.6717 2.40336 16.8817 3.05669L17.6284 5.23836L19.6934 4.22336C20.3234 3.92003 21.0934 3.99003 21.63 4.43336C22.3417 4.99336 22.995 5.64669 23.5667 6.37003C24.01 6.91836 24.0917 7.67669 23.7767 8.30669L22.7617 10.3717L24.9434 11.1184C25.5967 11.34 26.075 11.935 26.1567 12.6117C26.2714 13.5376 26.2714 14.4741 26.1567 15.4C26.1121 15.7354 25.975 16.0516 25.7607 16.3134C25.5463 16.5751 25.2633 16.7719 24.9434 16.8817L22.7617 17.6284L23.7767 19.6934C24.0917 20.3234 24.01 21.0934 23.5667 21.63C22.9956 22.3459 22.3459 22.9956 21.63 23.5667C21.0817 23.9984 20.3234 24.0917 19.6934 23.7767L17.6284 22.7617L16.8817 24.9434C16.66 25.5967 16.065 26.075 15.3884 26.1567C14.91 26.215 14.455 26.25 14 26.25ZM13.2184 23.8817C13.7317 23.9284 14.2684 23.9284 14.7817 23.8817L15.61 21.455C15.6932 21.2106 15.8274 20.9866 16.0038 20.798C16.1802 20.6094 16.3947 20.4606 16.633 20.3612C16.8714 20.2619 17.1281 20.2145 17.3862 20.222C17.6443 20.2296 17.8979 20.292 18.13 20.405L20.4284 21.5367C20.825 21.1867 21.1984 20.825 21.5367 20.4284L20.4167 18.13C20.3034 17.8986 20.2405 17.6458 20.2322 17.3883C20.2239 17.1308 20.2703 16.8745 20.3685 16.6362C20.4666 16.398 20.6142 16.1834 20.8016 16.0065C20.9889 15.8296 21.2116 15.6944 21.455 15.61L23.8817 14.7934C23.929 14.2694 23.929 13.7423 23.8817 13.2184L21.455 12.39C21.2106 12.3069 20.9866 12.1726 20.798 11.9962C20.6094 11.8199 20.4606 11.6054 20.3612 11.367C20.2619 11.1287 20.2145 10.8719 20.222 10.6138C20.2296 10.3557 20.292 10.1022 20.405 9.87003L21.5367 7.57169C21.1867 7.17503 20.825 6.80169 20.4284 6.46336L18.13 7.59503C17.8982 7.71006 17.6444 7.774 17.3857 7.78251C17.1271 7.79103 16.8696 7.74393 16.6307 7.64439C16.3918 7.54485 16.1771 7.3952 16.001 7.20554C15.8249 7.01588 15.6916 6.79064 15.61 6.54503L14.7934 4.11836C14.2684 4.07169 13.7434 4.07169 13.2184 4.11836L12.39 6.54503C12.3069 6.78948 12.1726 7.01344 11.9962 7.20202C11.8199 7.3906 11.6054 7.5395 11.367 7.63881C11.1287 7.73812 10.8719 7.78558 10.6138 7.77803C10.3557 7.77048 10.1022 7.7081 9.87002 7.59503L7.57169 6.46336C7.17502 6.81336 6.80169 7.17503 6.46336 7.57169L7.58336 9.87003C7.69643 10.1022 7.75882 10.3557 7.76637 10.6138C7.77391 10.8719 7.72646 11.1287 7.62714 11.367C7.52783 11.6054 7.37894 11.8199 7.19035 11.9962C7.00177 12.1726 6.77781 12.3069 6.53336 12.39L4.11836 13.2067C4.0729 13.7307 4.0729 14.2577 4.11836 14.7817L6.54503 15.61C6.78948 15.6932 7.01343 15.8274 7.20202 16.0038C7.3906 16.1802 7.5395 16.3947 7.63881 16.633C7.73812 16.8714 7.78558 17.1281 7.77803 17.3862C7.77048 17.6443 7.7081 17.8979 7.59503 18.13L6.46336 20.4284C6.81336 20.825 7.16336 21.1984 7.57169 21.5367L9.87002 20.4167C10.1019 20.3017 10.3557 20.2377 10.6143 20.2292C10.873 20.2207 11.1305 20.2678 11.3693 20.3673C11.6082 20.4669 11.823 20.6165 11.9991 20.8062C12.1751 20.9958 12.3085 21.2211 12.39 21.4667L13.2067 23.8817H13.2184Z" fill="black"/>
</svg>
