<svg width="28" height="28" viewBox="0 0 28 28" fill="none" xmlns="http://www.w3.org/2000/svg">
<path d="M22.75 24.5H20.4167C20.4167 21.28 17.535 18.6667 14 18.6667C10.465 18.6667 7.58333 21.28 7.58333 24.5H5.25C5.25 19.9967 9.17 16.3334 14 16.3334C18.83 16.3334 22.75 19.9967 22.75 24.5Z" fill="black"/>
<path d="M14 15.75C10.465 15.75 7.58333 12.8684 7.58333 9.33335C7.58333 5.79835 10.465 2.91669 14 2.91669C17.535 2.91669 20.4167 5.79835 20.4167 9.33335C20.4167 12.8684 17.535 15.75 14 15.75ZM14 5.25002C11.7483 5.25002 9.91667 7.08169 9.91667 9.33335C9.91667 11.585 11.7483 13.4167 14 13.4167C16.2517 13.4167 18.0833 11.585 18.0833 9.33335C18.0833 7.08169 16.2517 5.25002 14 5.25002Z" fill="black"/>
</svg>
