<svg width="28" height="28" viewBox="0 0 28 28" fill="none" xmlns="http://www.w3.org/2000/svg">
<path d="M22.75 24.5001H20.4167C20.4167 21.2801 17.535 18.6667 14 18.6667C10.465 18.6667 7.58333 21.2801 7.58333 24.5001H5.25C5.25 19.9967 9.17 16.3334 14 16.3334C18.83 16.3334 22.75 19.9967 22.75 24.5001Z" fill="black"/>
<path d="M14 15.7501C10.465 15.7501 7.58333 12.8684 7.58333 9.33341C7.58333 5.79841 10.465 2.91675 14 2.91675C17.535 2.91675 20.4167 5.79841 20.4167 9.33341C20.4167 12.8684 17.535 15.7501 14 15.7501ZM14 5.25008C11.7483 5.25008 9.91667 7.08175 9.91667 9.33341C9.91667 11.5851 11.7483 13.4167 14 13.4167C16.2517 13.4167 18.0833 11.5851 18.0833 9.33341C18.0833 7.08175 16.2517 5.25008 14 5.25008Z" fill="black"/>
</svg>
