<svg width="28" height="28" viewBox="0 0 28 28" fill="none" xmlns="http://www.w3.org/2000/svg">
<path fill-rule="evenodd" clip-rule="evenodd" d="M25.753 13.4635C24.71 11.4498 22.9915 9.55862 20.9545 8.16678C18.9187 6.77612 16.4862 5.83345 14 5.83345C13.6139 5.83345 13.2312 5.86378 12.8497 5.90695L14.6965 8.19945C16.3835 8.35112 18.0997 9.04295 19.6385 10.0941C21.1972 11.1593 22.5132 12.5511 23.3812 14.0001C22.8609 14.8693 22.1644 15.7081 21.3652 16.4781L22.8294 18.297C24.0299 17.1699 25.053 15.8878 25.7519 14.5368L26.0307 14.0001L25.753 13.4635Z" fill="black"/>
<path fill-rule="evenodd" clip-rule="evenodd" d="M7.32436 2.76862C6.92186 2.26578 6.18686 2.18412 5.68519 2.59245C5.18236 2.99495 5.10419 3.72995 5.50903 4.23162L8.13753 7.49478C7.76303 7.70362 7.39786 7.92645 7.04553 8.16678C5.00853 9.55862 3.29003 11.4498 2.24703 13.4635L1.96936 14.0001L2.24703 14.5368C3.29003 16.5505 5.00853 18.4416 7.04553 19.8335C9.08136 21.2241 11.5139 22.1668 14 22.1668C15.7267 22.1668 17.4172 21.6954 18.977 20.9511L22.4257 25.2316C22.6555 25.5186 22.9927 25.6668 23.3345 25.6668C23.5912 25.6668 23.849 25.5828 24.0649 25.4078C24.5677 25.0041 24.6459 24.2691 24.241 23.7686L7.32436 2.76862ZM14 19.8335C12.0937 19.8335 10.1127 19.1019 8.36153 17.9061C6.80286 16.8421 5.48803 15.4491 4.61886 14.0001C5.48803 12.5511 6.80286 11.1581 8.36153 10.0941C8.77103 9.81412 9.19569 9.56795 9.62736 9.34395L11.1032 11.1756C10.353 11.927 9.91669 12.9105 9.91669 14.0001C9.91669 16.2518 11.7484 18.0835 14 18.0835C14.7712 18.0835 15.5109 17.856 16.1537 17.4465L17.472 19.0821C16.3322 19.5605 15.1539 19.8335 14 19.8335Z" fill="black"/>
</svg>
