<svg width="28" height="28" viewBox="0 0 28 28" fill="none" xmlns="http://www.w3.org/2000/svg">
<path fill-rule="evenodd" clip-rule="evenodd" d="M25.753 13.4633C24.71 11.4497 22.9915 9.5585 20.9545 8.16666C18.9187 6.776 16.4862 5.83333 14 5.83333C13.6139 5.83333 13.2312 5.86366 12.8497 5.90683L14.6965 8.19933C16.3835 8.351 18.0997 9.04283 19.6385 10.094C21.1972 11.1592 22.5132 12.551 23.3812 14C22.8609 14.8692 22.1644 15.708 21.3652 16.478L22.8294 18.2968C24.0299 17.1698 25.053 15.8877 25.7519 14.5367L26.0307 14L25.753 13.4633Z" fill="black"/>
<path fill-rule="evenodd" clip-rule="evenodd" d="M7.32436 2.7685C6.92186 2.26566 6.18686 2.184 5.68519 2.59233C5.18236 2.99483 5.10419 3.72983 5.50903 4.2315L8.13753 7.49466C7.76303 7.7035 7.39786 7.92633 7.04553 8.16666C5.00853 9.5585 3.29003 11.4497 2.24703 13.4633L1.96936 14L2.24703 14.5367C3.29003 16.5503 5.00853 18.4415 7.04553 19.8333C9.08136 21.224 11.5139 22.1667 14 22.1667C15.7267 22.1667 17.4172 21.6953 18.977 20.951L22.4257 25.2315C22.6555 25.5185 22.9927 25.6667 23.3345 25.6667C23.5912 25.6667 23.849 25.5827 24.0649 25.4077C24.5677 25.004 24.6459 24.269 24.241 23.7685L7.32436 2.7685ZM14 19.8333C12.0937 19.8333 10.1127 19.1018 8.36153 17.906C6.80286 16.842 5.48803 15.449 4.61886 14C5.48803 12.551 6.80286 11.158 8.36153 10.094C8.77103 9.814 9.19569 9.56783 9.62736 9.34383L11.1032 11.1755C10.353 11.9268 9.91669 12.9103 9.91669 14C9.91669 16.2517 11.7484 18.0833 14 18.0833C14.7712 18.0833 15.5109 17.8558 16.1537 17.4463L17.472 19.082C16.3322 19.5603 15.1539 19.8333 14 19.8333Z" fill="black"/>
</svg>
