<svg width="28" height="28" viewBox="0 0 28 28" fill="none" xmlns="http://www.w3.org/2000/svg">
<path d="M14.8751 10.7917C14.2562 10.7917 13.6628 11.0375 13.2252 11.4751C12.7876 11.9127 12.5417 12.5062 12.5417 13.125C12.5417 13.7438 12.7876 14.3373 13.2252 14.7749C13.6628 15.2125 14.2562 15.4583 14.8751 15.4583C15.4939 15.4583 16.0874 15.2125 16.525 14.7749C16.9626 14.3373 17.2084 13.7438 17.2084 13.125C17.2084 12.5062 16.9626 11.9127 16.525 11.4751C16.0874 11.0375 15.4939 10.7917 14.8751 10.7917Z" fill="black"/>
<path d="M16.9166 6.99998H6.41658C5.33362 6.99998 4.29501 7.43019 3.52923 8.19597C2.76346 8.96174 2.33325 10.0004 2.33325 11.0833V21.5833C2.33325 22.6663 2.76346 23.7049 3.52923 24.4707C4.29501 25.2364 5.33362 25.6667 6.41658 25.6667H16.9166C17.9996 25.6667 19.0382 25.2364 19.8039 24.4707C20.5697 23.7049 20.9999 22.6663 20.9999 21.5833V11.0833C20.9999 10.0004 20.5697 8.96174 19.8039 8.19597C19.0382 7.43019 17.9996 6.99998 16.9166 6.99998ZM18.6666 21.5833C18.6666 22.5517 17.8849 23.3333 16.9166 23.3333H6.41658C5.95246 23.3333 5.50734 23.1489 5.17915 22.8208C4.85096 22.4926 4.66659 22.0474 4.66659 21.5833V19.7283C6.06659 18.6783 7.30325 17.99 7.58325 17.99C7.79325 18.025 8.62159 18.69 8.90159 18.9C9.81158 19.635 10.6749 20.3233 11.6666 20.3233C12.4833 20.3233 13.3233 19.985 14.1516 19.6583C14.6999 19.425 15.3883 19.1567 15.7499 19.1567C16.1349 19.1567 17.4183 19.7167 18.6666 20.4167V21.5833ZM6.41658 9.33332H16.9166C17.8849 9.33332 18.6666 10.115 18.6666 11.0833V17.78C17.7658 17.2745 16.7751 16.9496 15.7499 16.8233C14.9333 16.8233 14.0933 17.1733 13.2649 17.5C12.7166 17.7217 12.0283 17.99 11.6783 17.99C11.4449 17.955 10.6283 17.3017 10.3483 17.08C9.43825 16.345 8.57492 15.6567 7.58325 15.6567C6.77825 15.6567 5.66992 16.24 4.66659 16.8817V11.0833C4.66659 10.115 5.44825 9.33332 6.41658 9.33332Z" fill="black"/>
<path d="M11.0832 2.33331H21.5832C22.6662 2.33331 23.7048 2.76352 24.4706 3.52929C25.2363 4.29507 25.6665 5.33368 25.6665 6.41665V16.9166C25.6665 18.515 24.7332 19.915 23.3332 20.58V6.41665C23.3332 5.44831 22.5515 4.66665 21.5832 4.66665H7.4082C8.08487 3.24331 9.5082 2.33331 11.0832 2.33331Z" fill="black"/>
</svg>
