<svg width="28" height="28" viewBox="0 0 28 28" fill="none" xmlns="http://www.w3.org/2000/svg">
<path d="M14.8751 10.7916C14.2562 10.7916 13.6628 11.0374 13.2252 11.475C12.7876 11.9126 12.5417 12.5061 12.5417 13.1249C12.5417 13.7438 12.7876 14.3373 13.2252 14.7748C13.6628 15.2124 14.2562 15.4583 14.8751 15.4583C15.4939 15.4583 16.0874 15.2124 16.525 14.7748C16.9626 14.3373 17.2084 13.7438 17.2084 13.1249C17.2084 12.5061 16.9626 11.9126 16.525 11.475C16.0874 11.0374 15.4939 10.7916 14.8751 10.7916Z" fill="black"/>
<path d="M16.9166 6.99992H6.41658C5.33362 6.99992 4.29501 7.43013 3.52923 8.1959C2.76346 8.96168 2.33325 10.0003 2.33325 11.0833V21.5833C2.33325 22.6662 2.76346 23.7048 3.52923 24.4706C4.29501 25.2364 5.33362 25.6666 6.41658 25.6666H16.9166C17.9996 25.6666 19.0382 25.2364 19.8039 24.4706C20.5697 23.7048 20.9999 22.6662 20.9999 21.5833V11.0833C20.9999 10.0003 20.5697 8.96168 19.8039 8.1959C19.0382 7.43013 17.9996 6.99992 16.9166 6.99992ZM18.6666 21.5833C18.6666 22.5516 17.8849 23.3333 16.9166 23.3333H6.41658C5.95246 23.3333 5.50734 23.1489 5.17915 22.8207C4.85096 22.4925 4.66659 22.0474 4.66659 21.5833V19.7283C6.06659 18.6783 7.30325 17.9899 7.58325 17.9899C7.79325 18.0249 8.62159 18.6899 8.90159 18.8999C9.81158 19.6349 10.6749 20.3233 11.6666 20.3233C12.4833 20.3233 13.3233 19.9849 14.1516 19.6583C14.6999 19.4249 15.3883 19.1566 15.7499 19.1566C16.1349 19.1566 17.4183 19.7166 18.6666 20.4166V21.5833ZM6.41658 9.33326H16.9166C17.8849 9.33326 18.6666 10.1149 18.6666 11.0833V17.7799C17.7658 17.2745 16.7751 16.9495 15.7499 16.8233C14.9333 16.8233 14.0933 17.1733 13.2649 17.4999C12.7166 17.7216 12.0283 17.9899 11.6783 17.9899C11.4449 17.9549 10.6283 17.3016 10.3483 17.0799C9.43825 16.3449 8.57492 15.6566 7.58325 15.6566C6.77825 15.6566 5.66992 16.2399 4.66659 16.8816V11.0833C4.66659 10.1149 5.44825 9.33326 6.41658 9.33326Z" fill="black"/>
<path d="M11.0832 2.33325H21.5832C22.6662 2.33325 23.7048 2.76346 24.4706 3.52923C25.2363 4.29501 25.6665 5.33362 25.6665 6.41658V16.9166C25.6665 18.5149 24.7332 19.9149 23.3332 20.5799V6.41658C23.3332 5.44825 22.5515 4.66659 21.5832 4.66659H7.4082C8.08487 3.24325 9.5082 2.33325 11.0832 2.33325Z" fill="black"/>
</svg>
