<svg width="28" height="28" viewBox="0 0 28 28" fill="none" xmlns="http://www.w3.org/2000/svg">
<path d="M14 10.675C14.7467 10.675 15.3417 10.08 15.3417 9.33331C15.3417 8.58665 14.7467 7.99165 14 7.99165C13.2534 7.99165 12.6584 8.58665 12.6584 9.33331C12.6584 10.08 13.2534 10.675 14 10.675Z" fill="black"/>
<path d="M14 20.4166C13.3584 20.4166 12.8334 19.8916 12.8334 19.25V14C12.8334 13.3583 13.3584 12.8333 14 12.8333C14.6417 12.8333 15.1667 13.3583 15.1667 14V19.25C15.1667 19.8916 14.6417 20.4166 14 20.4166Z" fill="black"/>
<path d="M14 25.6666C7.57171 25.6666 2.33337 20.4283 2.33337 14C2.33337 7.57165 7.57171 2.33331 14 2.33331C20.4284 2.33331 25.6667 7.57165 25.6667 14C25.6667 20.4283 20.4284 25.6666 14 25.6666ZM14 4.66665C8.85504 4.66665 4.66671 8.85498 4.66671 14C4.66671 19.145 8.85504 23.3333 14 23.3333C19.145 23.3333 23.3334 19.145 23.3334 14C23.3334 8.85498 19.145 4.66665 14 4.66665Z" fill="black"/>
</svg>
