<svg width="28" height="28" viewBox="0 0 28 28" fill="none" xmlns="http://www.w3.org/2000/svg">
<path d="M14 10.6749C14.7467 10.6749 15.3417 10.0799 15.3417 9.33325C15.3417 8.58659 14.7467 7.99159 14 7.99159C13.2534 7.99159 12.6584 8.58659 12.6584 9.33325C12.6584 10.0799 13.2534 10.6749 14 10.6749Z" fill="black"/>
<path d="M14 20.4166C13.3584 20.4166 12.8334 19.8916 12.8334 19.2499V13.9999C12.8334 13.3583 13.3584 12.8333 14 12.8333C14.6417 12.8333 15.1667 13.3583 15.1667 13.9999V19.2499C15.1667 19.8916 14.6417 20.4166 14 20.4166Z" fill="black"/>
<path d="M14 25.6666C7.57171 25.6666 2.33337 20.4283 2.33337 13.9999C2.33337 7.57159 7.57171 2.33325 14 2.33325C20.4284 2.33325 25.6667 7.57159 25.6667 13.9999C25.6667 20.4283 20.4284 25.6666 14 25.6666ZM14 4.66659C8.85504 4.66659 4.66671 8.85492 4.66671 13.9999C4.66671 19.1449 8.85504 23.3333 14 23.3333C19.145 23.3333 23.3334 19.1449 23.3334 13.9999C23.3334 8.85492 19.145 4.66659 14 4.66659Z" fill="black"/>
</svg>
