<svg width="28" height="28" viewBox="0 0 28 28" fill="none" xmlns="http://www.w3.org/2000/svg">
<path d="M23.9167 2.91675H19.25C18.6083 2.91675 18.0833 3.44175 18.0833 4.08341C18.0833 4.72508 18.6083 5.25008 19.25 5.25008H22.75V22.7501H19.25C18.6083 22.7501 18.0833 23.2751 18.0833 23.9167C18.0833 24.5584 18.6083 25.0834 19.25 25.0834H23.9167C24.5583 25.0834 25.0833 24.5584 25.0833 23.9167V4.08341C25.0833 3.44175 24.5583 2.91675 23.9167 2.91675Z" fill="black"/>
<path d="M18.8417 14.0001C18.8417 13.3561 18.3202 12.8334 17.675 12.8334H5.5545L11.1592 6.66758C11.5932 6.19042 11.5582 5.45192 11.081 5.01908C10.6038 4.58625 9.8665 4.62241 9.4325 5.09841L2.05333 13.2149C2.01367 13.2592 1.99733 13.3129 1.96583 13.3607C1.9635 13.3642 1.96117 13.3689 1.95767 13.3724C1.92267 13.4261 1.87717 13.4727 1.8515 13.5299C1.8445 13.5474 1.83983 13.5649 1.83283 13.5812C1.80833 13.6466 1.8025 13.7131 1.78967 13.7796C1.77683 13.8449 1.75467 13.9067 1.7535 13.9721C1.75467 13.9826 1.75 13.9907 1.75 14.0001C1.75 14.0094 1.75467 14.0176 1.75583 14.0269C1.757 14.0934 1.77917 14.1552 1.792 14.2194C1.80483 14.2871 1.81067 14.3536 1.83517 14.4177C1.84217 14.4352 1.84567 14.4527 1.85267 14.4691C1.87833 14.5274 1.925 14.5741 1.96 14.6277C1.96233 14.6312 1.96467 14.6336 1.967 14.6371C1.9985 14.6849 2.01483 14.7397 2.0545 14.7829L9.43367 22.8994C9.6635 23.1526 9.97967 23.2809 10.297 23.2809C10.577 23.2809 10.857 23.1806 11.081 22.9776C11.5582 22.5436 11.592 21.8062 11.1592 21.3291L5.5545 15.1667H17.6762C18.3202 15.1667 18.8417 14.6441 18.8417 14.0001Z" fill="black"/>
</svg>
