<svg width="28" height="28" viewBox="0 0 28 28" fill="none" xmlns="http://www.w3.org/2000/svg">
<path d="M17.5 25.6667H10.5C9.85832 25.6667 9.33332 25.1417 9.33332 24.5C9.33332 23.8583 9.85832 23.3333 10.5 23.3333H17.5C18.1417 23.3333 18.6667 23.8583 18.6667 24.5C18.6667 25.1417 18.1533 25.6667 17.5 25.6667ZM17.5 22.1667H10.5C9.85832 22.1667 9.33332 21.6417 9.33332 21V19.1683C6.47499 17.5117 4.66666 14.42 4.66666 11.0833C4.66666 5.93833 8.85499 1.75 14 1.75C19.145 1.75 23.3333 5.93833 23.3333 11.0833C23.3333 14.42 21.525 17.5117 18.6667 19.1683V21C18.6667 21.6417 18.1533 22.1667 17.5 22.1667ZM11.6667 19.8333H16.3333V18.4683C16.3333 18.0133 16.59 17.605 16.9983 17.4183C19.4367 16.2633 21 13.7783 21 11.0833C21 7.22167 17.8617 4.08333 14 4.08333C10.1383 4.08333 6.99999 7.22167 6.99999 11.0833C6.99999 13.7667 8.57499 16.2517 11.0017 17.4067C11.41 17.605 11.6667 18.0133 11.6667 18.4567V19.8333Z" fill="black"/>
</svg>
