<svg width="28" height="28" viewBox="0 0 28 28" fill="none" xmlns="http://www.w3.org/2000/svg">
<path d="M20.4167 11.6667H19.8334V9.33333C19.8334 6.11683 17.2165 3.5 14 3.5C10.7835 3.5 8.16669 6.11683 8.16669 9.33333V11.6667H7.58335C5.97452 11.6667 4.66669 12.9745 4.66669 14.5833V21.5833C4.66669 23.1922 5.97452 24.5 7.58335 24.5H20.4167C22.0255 24.5 23.3334 23.1922 23.3334 21.5833V14.5833C23.3334 12.9745 22.0255 11.6667 20.4167 11.6667ZM10.5 9.33333C10.5 7.40367 12.0704 5.83333 14 5.83333C15.9297 5.83333 17.5 7.40367 17.5 9.33333V11.6667H10.5V9.33333ZM21 21.5833C21 21.9042 20.7375 22.1667 20.4167 22.1667H7.58335C7.26252 22.1667 7.00002 21.9042 7.00002 21.5833V14.5833C7.00002 14.2625 7.26252 14 7.58335 14H20.4167C20.7375 14 21 14.2625 21 14.5833V21.5833Z" fill="black"/>
</svg>
