<svg width="28" height="28" viewBox="0 0 28 28" fill="none" xmlns="http://www.w3.org/2000/svg">
<path d="M5.24998 7.58333H22.75C23.3951 7.58333 23.9166 7.06067 23.9166 6.41667C23.9166 5.77267 23.3951 5.25 22.75 5.25H5.24998C4.60598 5.25 4.08331 5.77267 4.08331 6.41667C4.08331 7.06067 4.60598 7.58333 5.24998 7.58333Z" fill="black"/>
<path d="M22.75 20.4167H5.24998C4.60598 20.4167 4.08331 20.9382 4.08331 21.5833C4.08331 22.2285 4.60598 22.75 5.24998 22.75H22.75C23.3951 22.75 23.9166 22.2285 23.9166 21.5833C23.9166 20.9382 23.3951 20.4167 22.75 20.4167Z" fill="black"/>
<path d="M22.75 12.8333H5.24998C4.60598 12.8333 4.08331 13.356 4.08331 14C4.08331 14.644 4.60598 15.1667 5.24998 15.1667H22.75C23.3951 15.1667 23.9166 14.644 23.9166 14C23.9166 13.356 23.3951 12.8333 22.75 12.8333Z" fill="black"/>
</svg>
