<svg width="28" height="28" viewBox="0 0 28 28" fill="none" xmlns="http://www.w3.org/2000/svg">
<path d="M17.8419 6.46683C17.8419 4.34817 16.1176 2.625 14.0001 2.625C11.8826 2.625 10.1582 4.34817 10.1582 6.46683V13.8938C10.1582 16.0125 11.8826 17.7357 14.0001 17.7357C16.1176 17.7357 17.8419 16.0113 17.8419 13.8938V6.46683Z" fill="black"/>
<path d="M21.9042 14.1622V12.6455C21.9042 12.0015 21.3827 11.4788 20.7376 11.4788C20.0924 11.4788 19.5709 12.0015 19.5709 12.6455V14.1622C19.5709 17.0403 17.2294 19.3818 14.3501 19.3818H14.0117C14.0082 19.3818 14.0047 19.3795 14.0001 19.3795C13.9954 19.3795 13.9931 19.3818 13.9884 19.3818H13.6489C10.7696 19.3818 8.42806 17.0403 8.42806 14.1622V12.6455C8.42806 12.0015 7.90656 11.4788 7.26139 11.4788C6.61623 11.4788 6.09473 12.0015 6.09473 12.6455V14.1622C6.09473 18.0507 9.04989 21.2613 12.8322 21.6697V23.3333H9.33339C8.68823 23.3333 8.16673 23.8548 8.16673 24.5C8.16673 25.1452 8.68823 25.6667 9.33339 25.6667H18.6667C19.3119 25.6667 19.8334 25.1452 19.8334 24.5C19.8334 23.8548 19.3119 23.3333 18.6667 23.3333H15.1667V21.6697C18.9491 21.2613 21.9042 18.0518 21.9042 14.1622Z" fill="black"/>
</svg>
