<svg width="28" height="28" viewBox="0 0 28 28" fill="none" xmlns="http://www.w3.org/2000/svg">
<path d="M17.8418 6.46683C17.8418 4.34817 16.1175 2.625 14 2.625C11.8825 2.625 10.1582 4.34817 10.1582 6.46683V13.8938C10.1582 16.0125 11.8825 17.7357 14 17.7357C16.1175 17.7357 17.8418 16.0113 17.8418 13.8938V6.46683Z" fill="black"/>
<path d="M21.9042 14.1622V12.6455C21.9042 12.0015 21.3827 11.4788 20.7375 11.4788C20.0923 11.4788 19.5708 12.0015 19.5708 12.6455V14.1622C19.5708 17.0403 17.2293 19.3818 14.35 19.3818H14.0117C14.0082 19.3818 14.0047 19.3795 14 19.3795C13.9953 19.3795 13.993 19.3818 13.9883 19.3818H13.6488C10.7695 19.3818 8.428 17.0403 8.428 14.1622V12.6455C8.428 12.0015 7.9065 11.4788 7.26133 11.4788C6.61617 11.4788 6.09467 12.0015 6.09467 12.6455V14.1622C6.09467 18.0507 9.04983 21.2613 12.8322 21.6697V23.3333H9.33333C8.68817 23.3333 8.16667 23.8548 8.16667 24.5C8.16667 25.1452 8.68817 25.6667 9.33333 25.6667H18.6667C19.3118 25.6667 19.8333 25.1452 19.8333 24.5C19.8333 23.8548 19.3118 23.3333 18.6667 23.3333H15.1667V21.6697C18.949 21.2613 21.9042 18.0518 21.9042 14.1622Z" fill="black"/>
</svg>
