<svg width="28" height="28" viewBox="0 0 28 28" fill="none" xmlns="http://www.w3.org/2000/svg">
<path d="M14.0001 18.0273C16.2786 18.0273 18.1336 16.1723 18.1336 13.8938V6.46681C18.1336 4.18715 16.2786 2.33331 14.0001 2.33331C11.7204 2.33331 9.86656 4.18715 9.86656 6.46681V13.8938C9.86656 16.1723 11.7204 18.0273 14.0001 18.0273ZM12.1999 6.46681C12.1999 5.47398 13.0072 4.66665 14.0001 4.66665C14.9929 4.66665 15.8002 5.47398 15.8002 6.46681V13.8938C15.8002 14.8866 14.9929 15.694 14.0001 15.694C13.0072 15.694 12.1999 14.8866 12.1999 13.8938V6.46681Z" fill="black"/>
<path d="M21.9042 14.1621V12.6455C21.9042 12.0015 21.3827 11.4788 20.7376 11.4788C20.0924 11.4788 19.5709 12.0015 19.5709 12.6455V14.1621C19.5709 17.0403 17.2294 19.3818 14.3512 19.3818H14.0117C14.0082 19.3818 14.0047 19.3795 14.0001 19.3795C13.9954 19.3795 13.9931 19.3818 13.9884 19.3818H13.6477C10.7696 19.3818 8.42806 17.0403 8.42806 14.1621V12.6455C8.42806 12.0015 7.90539 11.4788 7.26139 11.4788C6.61739 11.4788 6.09473 12.0015 6.09473 12.6455V14.1621C6.09473 18.0518 9.04989 21.2613 12.8322 21.6696V23.3333H9.33339C8.68939 23.3333 8.16673 23.8548 8.16673 24.5C8.16673 25.1451 8.68939 25.6666 9.33339 25.6666H18.6667C19.3119 25.6666 19.8334 25.1451 19.8334 24.5C19.8334 23.8548 19.3119 23.3333 18.6667 23.3333H15.1667V21.6696C18.9491 21.2613 21.9042 18.0518 21.9042 14.1621Z" fill="black"/>
</svg>
