<svg width="28" height="28" viewBox="0 0 28 28" fill="none" xmlns="http://www.w3.org/2000/svg">
<path d="M14 18.0273C16.2785 18.0273 18.1335 16.1723 18.1335 13.8938V6.46675C18.1335 4.18709 16.2785 2.33325 14 2.33325C11.7203 2.33325 9.8665 4.18709 9.8665 6.46675V13.8938C9.8665 16.1723 11.7203 18.0273 14 18.0273ZM12.1998 6.46675C12.1998 5.47392 13.0072 4.66659 14 4.66659C14.9928 4.66659 15.8002 5.47392 15.8002 6.46675V13.8938C15.8002 14.8866 14.9928 15.6939 14 15.6939C13.0072 15.6939 12.1998 14.8866 12.1998 13.8938V6.46675Z" fill="black"/>
<path d="M21.9042 14.1621V12.6454C21.9042 12.0014 21.3827 11.4788 20.7375 11.4788C20.0923 11.4788 19.5708 12.0014 19.5708 12.6454V14.1621C19.5708 17.0403 17.2293 19.3818 14.3512 19.3818H14.0117C14.0082 19.3818 14.0047 19.3794 14 19.3794C13.9953 19.3794 13.993 19.3818 13.9883 19.3818H13.6477C10.7695 19.3818 8.428 17.0403 8.428 14.1621V12.6454C8.428 12.0014 7.90533 11.4788 7.26133 11.4788C6.61733 11.4788 6.09467 12.0014 6.09467 12.6454V14.1621C6.09467 18.0518 9.04983 21.2613 12.8322 21.6696V23.3333H9.33333C8.68933 23.3333 8.16667 23.8548 8.16667 24.4999C8.16667 25.1451 8.68933 25.6666 9.33333 25.6666H18.6667C19.3118 25.6666 19.8333 25.1451 19.8333 24.4999C19.8333 23.8548 19.3118 23.3333 18.6667 23.3333H15.1667V21.6696C18.949 21.2613 21.9042 18.0518 21.9042 14.1621Z" fill="black"/>
</svg>
