<svg width="28" height="28" viewBox="0 0 28 28" fill="none" xmlns="http://www.w3.org/2000/svg">
<path d="M14 4.66665C17.9457 4.66665 20.9218 7.62298 20.9218 11.5441C20.9218 13.125 21.1657 14.6276 21.5028 15.953L23.9797 18.1381C24.255 18.3808 24.6727 18.0961 24.5373 17.7543C23.9272 16.2143 23.254 13.965 23.254 11.543C23.2552 6.29298 19.2757 2.33331 14 2.33331C11.7798 2.33331 9.79418 3.04148 8.23318 4.24431L10.038 5.83681C11.1463 5.09365 12.5032 4.66665 14 4.66665Z" fill="black"/>
<path d="M24.6878 21.875L4.85451 4.37498C4.37384 3.94915 3.63768 3.99465 3.20835 4.47881C2.78251 4.96181 2.82801 5.69915 3.31218 6.12498L5.42151 7.98581C4.98635 9.06965 4.74485 10.2666 4.74485 11.5441C4.74485 14.7466 3.58051 17.6353 2.88518 19.0715C2.62035 19.6186 2.65535 20.251 2.97735 20.7643C3.29935 21.2765 3.85468 21.5833 4.46135 21.5833H9.28201C9.62735 23.8886 11.6002 25.6666 14 25.6666C16.3998 25.6666 18.3727 23.8886 18.7168 21.5833H20.8308L23.1443 23.625C23.3648 23.821 23.6413 23.9166 23.9155 23.9166C24.2375 23.9166 24.5595 23.7836 24.7905 23.5211C25.2175 23.0381 25.172 22.3008 24.6878 21.875ZM14 23.3333C12.8928 23.3333 11.9653 22.5925 11.6608 21.5833H16.3403C16.0347 22.5925 15.1072 23.3333 14 23.3333ZM5.37018 19.25C6.13318 17.4801 7.07935 14.6591 7.07935 11.5441C7.07935 10.8885 7.17384 10.2655 7.33368 9.67281L18.1883 19.25H5.37018Z" fill="black"/>
</svg>
