<svg width="28" height="28" viewBox="0 0 28 28" fill="none" xmlns="http://www.w3.org/2000/svg">
<path d="M21 18.6667H20.4166V21.0001C20.4166 21.9649 19.6315 22.7501 18.6666 22.7501H6.99996C6.03513 22.7501 5.24996 21.9649 5.24996 21.0001V11.6667C5.24996 10.9072 5.73879 10.2656 6.41663 10.0241V7.64291C4.44379 7.92875 2.91663 9.61575 2.91663 11.6667V21.0001C2.91663 23.2517 4.74829 25.0834 6.99996 25.0834H18.6666C20.9183 25.0834 22.75 23.2517 22.75 21.0001V18.4182C22.1923 18.5769 21.6078 18.6667 21 18.6667Z" fill="black"/>
<path d="M21 16.3334H12.8333C10.5816 16.3334 8.74996 14.5017 8.74996 12.2501V7.00008C8.74996 4.74841 10.5816 2.91675 12.8333 2.91675H21C23.2516 2.91675 25.0833 4.74841 25.0833 7.00008V12.2501C25.0833 14.5017 23.2516 16.3334 21 16.3334ZM12.8333 5.25008C11.8685 5.25008 11.0833 6.03525 11.0833 7.00008V12.2501C11.0833 13.2149 11.8685 14.0001 12.8333 14.0001H21C21.9648 14.0001 22.75 13.2149 22.75 12.2501V7.00008C22.75 6.03525 21.9648 5.25008 21 5.25008H12.8333Z" fill="black"/>
</svg>
