<svg width="28" height="28" viewBox="0 0 28 28" fill="none" xmlns="http://www.w3.org/2000/svg">
<path d="M21 18.6667H20.4166V21C20.4166 21.9649 19.6315 22.75 18.6666 22.75H6.99996C6.03513 22.75 5.24996 21.9649 5.24996 21V11.6667C5.24996 10.9072 5.73879 10.2655 6.41663 10.024V7.64285C4.44379 7.92869 2.91663 9.61569 2.91663 11.6667V21C2.91663 23.2517 4.74829 25.0834 6.99996 25.0834H18.6666C20.9183 25.0834 22.75 23.2517 22.75 21V18.4182C22.1923 18.5769 21.6078 18.6667 21 18.6667Z" fill="black"/>
<path d="M21 16.3334H12.8333C10.5816 16.3334 8.74996 14.5017 8.74996 12.25V7.00002C8.74996 4.74835 10.5816 2.91669 12.8333 2.91669H21C23.2516 2.91669 25.0833 4.74835 25.0833 7.00002V12.25C25.0833 14.5017 23.2516 16.3334 21 16.3334ZM12.8333 5.25002C11.8685 5.25002 11.0833 6.03519 11.0833 7.00002V12.25C11.0833 13.2149 11.8685 14 12.8333 14H21C21.9648 14 22.75 13.2149 22.75 12.25V7.00002C22.75 6.03519 21.9648 5.25002 21 5.25002H12.8333Z" fill="black"/>
</svg>
