<svg width="28" height="28" viewBox="0 0 28 28" fill="none" xmlns="http://www.w3.org/2000/svg">
<path d="M19.2594 16.3753H13.125C12.481 16.3753 11.9584 15.8538 11.9584 15.2086C11.9584 14.5646 12.481 14.0419 13.125 14.0419H19.2594C19.9045 14.0419 20.426 14.5646 20.426 15.2086C20.426 15.8538 19.9045 16.3753 19.2594 16.3753Z" fill="black"/>
<path d="M19.2594 20.2089H13.125C12.481 20.2089 11.9584 19.6874 11.9584 19.0423C11.9584 18.3971 12.481 17.8756 13.125 17.8756H19.2594C19.9045 17.8756 20.426 18.3971 20.426 19.0423C20.426 19.6874 19.9045 20.2089 19.2594 20.2089Z" fill="black"/>
<path d="M16.3334 7.83995H12.8334C12.5114 7.83995 12.25 8.10128 12.25 8.42328V11.9583C12.25 12.2803 12.5114 12.5416 12.8334 12.5416H16.3334C16.6554 12.5416 16.9167 12.2803 16.9167 11.9583V8.42328C16.9167 8.10128 16.6554 7.83995 16.3334 7.83995Z" fill="black"/>
<path d="M21.5647 24.8581H6.43654C6.36071 24.8581 6.28721 24.8511 6.21604 24.8371C4.52321 24.6481 3.20254 23.2084 3.20254 21.4666L3.18738 9.04278C3.18738 8.73361 3.30988 8.43611 3.52804 8.21678C3.74738 7.99745 4.04488 7.87495 4.35404 7.87495H7.64521L7.64404 4.37145C7.64404 4.06228 7.76654 3.76478 7.98588 3.54545C8.20521 3.32611 8.50154 3.20361 8.81071 3.20361H23.6344C24.2795 3.20361 24.801 3.72628 24.801 4.37028V21.6229C24.801 23.4056 23.3497 24.8581 21.5647 24.8581ZM9.81638 22.5248H21.5659C22.064 22.5248 22.4677 22.1199 22.4677 21.6241V5.53811H9.97855L9.98438 21.4666C9.98438 21.8364 9.92488 22.1911 9.81638 22.5248ZM6.59288 22.5248C7.17621 22.5248 7.65104 22.0511 7.65104 21.4678L7.64638 10.2083H5.52188L5.53588 21.4654C5.53588 22.0499 6.01071 22.5248 6.59288 22.5248Z" fill="black"/>
</svg>
