<svg width="28" height="28" viewBox="0 0 28 28" fill="none" xmlns="http://www.w3.org/2000/svg">
<path d="M19.2594 16.3753H13.125C12.481 16.3753 11.9584 15.8538 11.9584 15.2087C11.9584 14.5647 12.481 14.042 13.125 14.042H19.2594C19.9045 14.042 20.426 14.5647 20.426 15.2087C20.426 15.8538 19.9045 16.3753 19.2594 16.3753Z" fill="black"/>
<path d="M19.2594 20.209H13.125C12.481 20.209 11.9584 19.6875 11.9584 19.0423C11.9584 18.3972 12.481 17.8757 13.125 17.8757H19.2594C19.9045 17.8757 20.426 18.3972 20.426 19.0423C20.426 19.6875 19.9045 20.209 19.2594 20.209Z" fill="black"/>
<path d="M16.3334 7.84001H12.8334C12.5114 7.84001 12.25 8.10134 12.25 8.42334V11.9583C12.25 12.2803 12.5114 12.5417 12.8334 12.5417H16.3334C16.6554 12.5417 16.9167 12.2803 16.9167 11.9583V8.42334C16.9167 8.10134 16.6554 7.84001 16.3334 7.84001Z" fill="black"/>
<path d="M21.5647 24.8582H6.43654C6.36071 24.8582 6.28721 24.8512 6.21604 24.8372C4.52321 24.6482 3.20254 23.2085 3.20254 21.4667L3.18738 9.04284C3.18738 8.73367 3.30988 8.43617 3.52804 8.21684C3.74738 7.99751 4.04488 7.87501 4.35404 7.87501H7.64521L7.64404 4.37151C7.64404 4.06234 7.76654 3.76484 7.98588 3.54551C8.20521 3.32617 8.50154 3.20367 8.81071 3.20367H23.6344C24.2795 3.20367 24.801 3.72634 24.801 4.37034V21.623C24.801 23.4057 23.3497 24.8582 21.5647 24.8582ZM9.81638 22.5248H21.5659C22.064 22.5248 22.4677 22.12 22.4677 21.6242V5.53817H9.97855L9.98438 21.4667C9.98438 21.8365 9.92488 22.1912 9.81638 22.5248ZM6.59288 22.5248C7.17621 22.5248 7.65104 22.0512 7.65104 21.4678L7.64638 10.2083H5.52188L5.53588 21.4655C5.53588 22.05 6.01071 22.5248 6.59288 22.5248Z" fill="black"/>
</svg>
