<svg width="28" height="28" viewBox="0 0 28 28" fill="none" xmlns="http://www.w3.org/2000/svg">
<path d="M5.83333 16.3334C7.122 16.3334 8.16667 15.2887 8.16667 14.0001C8.16667 12.7114 7.122 11.6667 5.83333 11.6667C4.54467 11.6667 3.5 12.7114 3.5 14.0001C3.5 15.2887 4.54467 16.3334 5.83333 16.3334Z" fill="black"/>
<path d="M14 16.3334C15.2887 16.3334 16.3333 15.2887 16.3333 14.0001C16.3333 12.7114 15.2887 11.6667 14 11.6667C12.7113 11.6667 11.6667 12.7114 11.6667 14.0001C11.6667 15.2887 12.7113 16.3334 14 16.3334Z" fill="black"/>
<path d="M22.1667 16.3334C23.4553 16.3334 24.5 15.2887 24.5 14.0001C24.5 12.7114 23.4553 11.6667 22.1667 11.6667C20.878 11.6667 19.8333 12.7114 19.8333 14.0001C19.8333 15.2887 20.878 16.3334 22.1667 16.3334Z" fill="black"/>
</svg>
