<svg width="28" height="28" viewBox="0 0 28 28" fill="none" xmlns="http://www.w3.org/2000/svg">
<path d="M5.83333 16.3333C7.122 16.3333 8.16667 15.2886 8.16667 14C8.16667 12.7113 7.122 11.6666 5.83333 11.6666C4.54467 11.6666 3.5 12.7113 3.5 14C3.5 15.2886 4.54467 16.3333 5.83333 16.3333Z" fill="black"/>
<path d="M14 16.3333C15.2887 16.3333 16.3333 15.2886 16.3333 14C16.3333 12.7113 15.2887 11.6666 14 11.6666C12.7113 11.6666 11.6667 12.7113 11.6667 14C11.6667 15.2886 12.7113 16.3333 14 16.3333Z" fill="black"/>
<path d="M22.1667 16.3333C23.4553 16.3333 24.5 15.2886 24.5 14C24.5 12.7113 23.4553 11.6666 22.1667 11.6666C20.878 11.6666 19.8333 12.7113 19.8333 14C19.8333 15.2886 20.878 16.3333 22.1667 16.3333Z" fill="black"/>
</svg>
