<svg width="28" height="28" viewBox="0 0 28 28" fill="none" xmlns="http://www.w3.org/2000/svg">
<path d="M10.5 24.5H6.99998C6.35598 24.5 5.83331 23.9773 5.83331 23.3333V4.66667C5.83331 4.02267 6.35598 3.5 6.99998 3.5H10.5C11.144 3.5 11.6666 4.02267 11.6666 4.66667V23.3333C11.6666 23.9773 11.144 24.5 10.5 24.5Z" fill="black"/>
<path d="M22.1666 24.5H18.6666C18.0226 24.5 17.5 23.9773 17.5 23.3333V4.66667C17.5 4.02267 18.0226 3.5 18.6666 3.5H22.1666C22.8106 3.5 23.3333 4.02267 23.3333 4.66667V23.3333C23.3333 23.9773 22.8106 24.5 22.1666 24.5Z" fill="black"/>
</svg>
