<svg width="28" height="28" viewBox="0 0 28 28" fill="none" xmlns="http://www.w3.org/2000/svg">
<path d="M10.5 24.5H7.00001C6.35601 24.5 5.83334 23.9773 5.83334 23.3333V4.66667C5.83334 4.02267 6.35601 3.5 7.00001 3.5H10.5C11.144 3.5 11.6667 4.02267 11.6667 4.66667V23.3333C11.6667 23.9773 11.144 24.5 10.5 24.5Z" fill="black"/>
<path d="M22.1667 24.5H18.6667C18.0227 24.5 17.5 23.9773 17.5 23.3333V4.66667C17.5 4.02267 18.0227 3.5 18.6667 3.5H22.1667C22.8107 3.5 23.3333 4.02267 23.3333 4.66667V23.3333C23.3333 23.9773 22.8107 24.5 22.1667 24.5Z" fill="black"/>
</svg>
