<svg width="28" height="28" viewBox="0 0 28 28" fill="none" xmlns="http://www.w3.org/2000/svg">
<path fill-rule="evenodd" clip-rule="evenodd" d="M22.4933 5.50666C21.1283 4.14166 18.9116 4.14166 17.5466 5.50666L5.99665 17.0567C5.86831 17.185 5.77498 17.3367 5.71665 17.5117L4.07165 22.47C3.93165 22.89 4.03665 23.345 4.35165 23.66C4.57331 23.8817 4.87665 23.9983 5.17998 23.9983C5.30831 23.9983 5.42498 23.975 5.55331 23.94L10.5 22.2833C10.675 22.225 10.8266 22.1317 10.955 22.0033L22.505 10.4533C23.8583 9.08833 23.8583 6.87166 22.4933 5.50666ZM20.8366 8.80833L9.48498 20.16L7.82831 20.7083L7.27998 20.16L7.82831 18.5033L19.18 7.15166C19.635 6.69666 20.3816 6.69666 20.8366 7.15166C21.2916 7.61833 21.2916 8.35333 20.8366 8.80833Z" fill="black"/>
</svg>
