<svg width="28" height="28" viewBox="0 0 28 28" fill="none" xmlns="http://www.w3.org/2000/svg">
<path fill-rule="evenodd" clip-rule="evenodd" d="M22.4933 5.50666C21.1283 4.14166 18.9117 4.14166 17.5467 5.50666L5.99668 17.0567C5.86834 17.185 5.77501 17.3367 5.71668 17.5117L4.07168 22.47C3.93168 22.89 4.03668 23.345 4.35168 23.66C4.57334 23.8817 4.87668 23.9983 5.18001 23.9983C5.30834 23.9983 5.42501 23.975 5.55334 23.94L10.5 22.2833C10.675 22.225 10.8267 22.1317 10.955 22.0033L22.505 10.4533C23.8583 9.08833 23.8583 6.87166 22.4933 5.50666ZM20.8367 8.80833L9.48501 20.16L7.82834 20.7083L7.28001 20.16L7.82834 18.5033L19.18 7.15166C19.635 6.69666 20.3817 6.69666 20.8367 7.15166C21.2917 7.61833 21.2917 8.35333 20.8367 8.80833Z" fill="black"/>
</svg>
