<svg width="28" height="28" viewBox="0 0 28 28" fill="none" xmlns="http://www.w3.org/2000/svg">
<path d="M22.7934 14.9847C23.1294 14.7701 23.3336 14.3991 23.3336 14.0001C23.3336 13.6011 23.1294 13.2301 22.7934 13.0154L9.9601 4.84879C9.60077 4.62012 9.14577 4.60612 8.77244 4.81029C8.42827 4.99929 8.2136 5.34929 8.17977 5.73545L20.5989 16.3801L22.7934 14.9847Z" fill="black"/>
<path d="M24.0917 22.4477L3.67499 4.9477C3.18849 4.52887 2.44999 4.5837 2.03116 5.07487C1.61116 5.5637 1.66833 6.2987 2.15833 6.7187L8.16666 11.8683V22.1665C8.16666 22.5923 8.39883 22.9843 8.77216 23.1897C9.14549 23.395 9.60049 23.3798 9.96099 23.1512L16.4862 18.999L22.5762 24.2187C22.7943 24.4077 23.065 24.4998 23.3333 24.4998C23.6612 24.4998 23.989 24.3622 24.2188 24.0915C24.6388 23.6027 24.5817 22.8677 24.0917 22.4477Z" fill="black"/>
</svg>
