<svg width="28" height="28" viewBox="0 0 28 28" fill="none" xmlns="http://www.w3.org/2000/svg">
<path d="M15.1667 5.25004C15.1667 4.60571 14.6444 4.08337 14 4.08337C13.3557 4.08337 12.8334 4.60571 12.8334 5.25004V12.8334H5.25004C4.60571 12.8334 4.08337 13.3557 4.08337 14C4.08337 14.6444 4.60571 15.1667 5.25004 15.1667H12.8334V22.75C12.8334 23.3944 13.3557 23.9167 14 23.9167C14.6444 23.9167 15.1667 23.3944 15.1667 22.75V15.1667H22.75C23.3944 15.1667 23.9167 14.6444 23.9167 14C23.9167 13.3557 23.3944 12.8334 22.75 12.8334H15.1667V5.25004Z" fill="black"/>
</svg>
