<svg width="28" height="28" viewBox="0 0 28 28" fill="none" xmlns="http://www.w3.org/2000/svg">
<path d="M15.1666 5.25004C15.1666 4.60571 14.6443 4.08337 14 4.08337C13.3556 4.08337 12.8333 4.60571 12.8333 5.25004V12.8334H5.24998C4.60565 12.8334 4.08331 13.3557 4.08331 14C4.08331 14.6444 4.60565 15.1667 5.24998 15.1667H12.8333V22.75C12.8333 23.3944 13.3556 23.9167 14 23.9167C14.6443 23.9167 15.1666 23.3944 15.1666 22.75V15.1667H22.75C23.3943 15.1667 23.9166 14.6444 23.9166 14C23.9166 13.3557 23.3943 12.8334 22.75 12.8334H15.1666V5.25004Z" fill="black"/>
</svg>
