<svg width="28" height="28" viewBox="0 0 28 28" fill="none" xmlns="http://www.w3.org/2000/svg">
<path d="M14 25.6667C7.57171 25.6667 2.33337 20.4284 2.33337 14C2.33337 7.57171 7.57171 2.33337 14 2.33337C20.4284 2.33337 25.6667 7.57171 25.6667 14C25.6667 20.4284 20.4284 25.6667 14 25.6667ZM14 4.66671C8.85504 4.66671 4.66671 8.85504 4.66671 14C4.66671 19.145 8.85504 23.3334 14 23.3334C19.145 23.3334 23.3334 19.145 23.3334 14C23.3334 8.85504 19.145 4.66671 14 4.66671Z" fill="black"/>
<path d="M14 16.9167C13.3584 16.9167 12.8334 16.3917 12.8334 15.75V14.5367C12.8334 13.895 13.3584 13.37 14 13.37C14.9684 13.37 15.75 12.5884 15.75 11.62C15.75 10.6517 14.9684 9.87004 14 9.87004C13.0317 9.87004 12.25 10.6517 12.25 11.62C12.25 12.2617 11.725 12.7867 11.0834 12.7867C10.4417 12.7867 9.91671 12.2617 9.91671 11.62C9.91671 9.36837 11.7484 7.53671 14 7.53671C16.2517 7.53671 18.0834 9.36837 18.0834 11.62C18.0834 13.4634 16.8467 15.0267 15.1667 15.5284V15.75C15.1667 16.4034 14.6417 16.9167 14 16.9167Z" fill="black"/>
<path d="M14 20.6617C14.805 20.6617 15.4584 20.0084 15.4584 19.2034C15.4584 18.3984 14.805 17.745 14 17.745C13.195 17.745 12.5417 18.3984 12.5417 19.2034C12.5417 20.0084 13.195 20.6617 14 20.6617Z" fill="black"/>
</svg>
