<svg width="28" height="28" viewBox="0 0 28 28" fill="none" xmlns="http://www.w3.org/2000/svg">
<path d="M26.0516 11.5734C25.83 11.3517 25.55 11.235 25.2233 11.235C24.9083 11.235 24.6166 11.3634 24.395 11.585L23.24 12.7634C22.6333 7.6767 18.305 3.78003 13.1133 3.78003C7.48996 3.7917 2.91663 8.36503 2.91663 14C2.91663 19.635 7.48996 24.2084 13.125 24.2084C15.855 24.2084 18.41 23.1467 20.3466 21.2217C20.5683 21 20.685 20.7084 20.685 20.3934C20.685 20.0784 20.5683 19.7867 20.3466 19.565C20.125 19.3434 19.8333 19.2267 19.5183 19.2267C19.2033 19.2267 18.9116 19.3434 18.69 19.565C17.1966 21.0467 15.225 21.875 13.125 21.875C8.78496 21.875 5.24996 18.34 5.24996 14C5.24996 9.66003 8.78496 6.12503 13.125 6.12503C17.0333 6.12503 20.3 8.99503 20.895 12.775L19.67 11.585C19.215 11.1417 18.4683 11.1417 18.0133 11.6084C17.57 12.0634 17.5816 12.81 18.0366 13.2534L21.2916 16.415C21.735 16.8467 22.505 16.835 22.9366 16.3917L26.0633 13.2067C26.285 12.985 26.4016 12.6934 26.4016 12.3784C26.4016 12.0867 26.285 11.795 26.0516 11.5734Z" fill="black"/>
</svg>
