<svg width="28" height="28" viewBox="0 0 28 28" fill="none" xmlns="http://www.w3.org/2000/svg">
<path d="M4.71335 13.9183L8.55168 12.5183C9.15835 12.2967 9.47335 11.6317 9.25168 11.025C9.03002 10.4183 8.36502 10.1033 7.75835 10.325L6.49835 10.78C7.77002 7.81667 10.6984 5.83333 14 5.83333C17.4184 5.83333 20.4984 7.99167 21.6767 11.2C21.8983 11.8067 22.5634 12.11 23.17 11.9C23.7767 11.6783 24.0917 11.0133 23.87 10.4067C22.3533 6.27667 18.3984 3.5 14 3.5C9.81169 3.5 6.09002 5.97333 4.42169 9.695L4.01335 8.575C3.79169 7.96833 3.12669 7.65333 2.52002 7.875C1.91335 8.09667 1.59835 8.76167 1.82002 9.36833L3.22002 13.2067C3.39502 13.685 3.83835 13.9767 4.31669 13.9767C4.44502 13.9883 4.58502 13.965 4.71335 13.9183Z" fill="black"/>
<path d="M26.1684 18.6083L24.7684 14.77C24.5467 14.1633 23.8817 13.8483 23.275 14.07L19.4367 15.47C18.83 15.6917 18.515 16.3567 18.7367 16.9633C18.9584 17.57 19.635 17.885 20.23 17.6633L21.5017 17.1967C20.2417 20.1717 17.3134 22.1667 14 22.1667C10.57 22.1667 7.49002 20.0083 6.32335 16.7883C6.10169 16.1817 5.43668 15.8667 4.83002 16.0883C4.22335 16.31 3.90835 16.975 4.13002 17.5817C5.63502 21.7233 9.60168 24.5 14 24.5C18.1884 24.5 21.91 22.0267 23.5784 18.3167L23.975 19.4017C24.15 19.88 24.5934 20.1717 25.0717 20.1717C25.2 20.1717 25.34 20.1483 25.4684 20.1017C26.075 19.88 26.39 19.215 26.1684 18.6083Z" fill="black"/>
</svg>
