<svg width="28" height="28" viewBox="0 0 28 28" fill="none" xmlns="http://www.w3.org/2000/svg">
<path d="M14 20.7083C14.8054 20.7083 15.4584 20.0554 15.4584 19.25C15.4584 18.4446 14.8054 17.7917 14 17.7917C13.1946 17.7917 12.5417 18.4446 12.5417 19.25C12.5417 20.0554 13.1946 20.7083 14 20.7083Z" fill="black"/>
<path d="M14 16.9167C14.6417 16.9167 15.1667 16.3917 15.1667 15.75V9.91668C15.1667 9.27501 14.6417 8.75001 14 8.75001C13.3584 8.75001 12.8334 9.27501 12.8334 9.91668V15.75C12.8334 16.3917 13.3584 16.9167 14 16.9167Z" fill="black"/>
<path d="M24.6867 18.6783L17.0334 5.29668C16.0767 3.61668 13.93 3.03335 12.2617 3.99001C11.725 4.30501 11.27 4.76001 10.9667 5.29668L3.31336 18.6783C2.8467 19.495 2.73003 20.4283 2.97503 21.3383C3.22003 22.2367 3.80336 22.995 4.62003 23.4617C5.14503 23.765 5.7517 23.9283 6.35836 23.9283H21.6534C23.5784 23.9283 25.1534 22.3533 25.1534 20.4283C25.1417 19.81 24.99 19.2033 24.6867 18.6783ZM21.6417 21.5833H6.35836C6.16003 21.5833 5.95003 21.525 5.77503 21.4317C5.5067 21.28 5.30836 21.0233 5.2267 20.72C5.14503 20.4167 5.18003 20.1017 5.34336 19.8333L12.985 6.45168C13.09 6.26501 13.2417 6.12501 13.4167 6.02001C13.9767 5.70501 14.6884 5.89168 15.0034 6.45168L22.6567 19.8333C22.7617 20.0083 22.8084 20.2067 22.8084 20.4167C22.8084 21.0583 22.295 21.5833 21.6417 21.5833Z" fill="black"/>
</svg>
