<svg width="28" height="28" viewBox="0 0 28 28" fill="none" xmlns="http://www.w3.org/2000/svg">
<path d="M18.8603 9.98322L17.213 10.5665C16.6052 10.7824 16.2878 11.4485 16.5037 12.0564C16.6717 12.5347 17.122 12.8334 17.6027 12.8334C17.731 12.8334 17.864 12.8112 17.9923 12.7657L19.6397 12.1824C20.2475 11.9665 20.5648 11.3004 20.349 10.6925C20.1367 10.087 19.4717 9.76855 18.8603 9.98322Z" fill="black"/>
<path d="M10.787 10.5677L9.13968 9.98438C8.53185 9.76738 7.86568 10.087 7.65101 10.6937C7.43518 11.3015 7.75368 11.9677 8.36034 12.1824L10.0077 12.7657C10.136 12.8124 10.2678 12.8334 10.3973 12.8334C10.878 12.8334 11.3272 12.5347 11.4963 12.0552C11.7122 11.4485 11.3937 10.7824 10.787 10.5677Z" fill="black"/>
<path d="M26.2442 4.55471C26.2033 4.12888 25.928 3.76255 25.536 3.59571C25.1417 3.42888 24.6855 3.49305 24.3495 3.76021C24.3425 3.76488 23.6623 4.30038 22.3802 4.72738C21.2998 5.08788 20.475 5.26638 19.5207 5.47405C18.9922 5.58955 18.4368 5.70971 17.7998 5.86838C16.0813 6.29771 15.4992 6.59988 14.6172 7.09805C14.4363 7.20071 14.238 7.31388 14 7.43988C13.762 7.31388 13.5637 7.20071 13.3817 7.09805C12.4997 6.59988 11.9175 6.29771 10.2002 5.86838C9.56201 5.70855 9.00668 5.58838 8.47818 5.47288C7.52385 5.26521 6.69901 5.08671 5.61868 4.72621C4.33768 4.30038 3.65751 3.76605 3.65751 3.76605C3.32501 3.49188 2.86768 3.42421 2.46985 3.58871C2.07085 3.75438 1.79668 4.12538 1.75468 4.55471C1.72785 4.84288 1.17368 11.0355 3.50001 14.8762V24.5C3.50001 25.1452 4.02268 25.6667 4.66668 25.6667C5.31068 25.6667 5.83335 25.1452 5.83335 24.5V17.171C6.69551 17.6494 7.66151 17.9189 8.75001 17.9189C10.2387 17.9189 11.2292 17.3612 12.0248 16.9144C12.691 16.5399 13.2172 16.2435 14 16.2435C14.7828 16.2435 15.309 16.5399 15.974 16.9144C16.7708 17.3624 17.7613 17.9189 19.25 17.9189C21.035 17.9189 22.5295 17.2702 23.6903 15.9927C26.9593 12.3924 26.2745 4.87321 26.2442 4.55471ZM21.9613 14.4259C21.252 15.2064 20.3642 15.5855 19.25 15.5855C18.3727 15.5855 17.8185 15.274 17.1185 14.8809C16.31 14.4259 15.393 13.9102 14 13.9102C12.6058 13.9102 11.69 14.4259 10.8815 14.8809C10.1803 15.2752 9.62735 15.5855 8.75001 15.5855C7.63585 15.5855 6.74918 15.2064 6.03868 14.4259C4.40418 12.6269 4.01801 9.04055 4.00635 6.60921C4.27118 6.72121 4.56168 6.83321 4.88135 6.94055C6.08068 7.33955 7.00468 7.54138 7.98351 7.75371C8.48985 7.86338 9.02185 7.97888 9.63318 8.13171C11.1277 8.50505 11.5208 8.72671 12.2337 9.12921C12.565 9.31588 12.9453 9.53055 13.4843 9.79655C13.8087 9.95638 14.189 9.95638 14.5145 9.79655C15.0535 9.53055 15.435 9.31588 15.7652 9.12921C16.478 8.72671 16.87 8.50505 18.3657 8.13171C18.977 7.97888 19.509 7.86338 20.0165 7.75371C20.9953 7.54021 21.9193 7.34071 23.1187 6.94055C23.4372 6.83438 23.7288 6.72121 23.9925 6.60921C23.9832 9.04171 23.597 12.628 21.9613 14.4259Z" fill="black"/>
</svg>
