<svg width="28" height="28" viewBox="0 0 28 28" fill="none" xmlns="http://www.w3.org/2000/svg">
<path d="M7.00004 25.0833C4.74837 25.0833 2.91671 23.2516 2.91671 21C2.91671 18.7483 4.74837 16.9166 7.00004 16.9166C9.25171 16.9166 11.0834 18.7483 11.0834 21C11.0834 23.2516 9.25171 25.0833 7.00004 25.0833ZM7.00004 19.25C6.03171 19.25 5.25004 20.0316 5.25004 21C5.25004 21.9683 6.03171 22.75 7.00004 22.75C7.96837 22.75 8.75004 21.9683 8.75004 21C8.75004 20.0316 7.96837 19.25 7.00004 19.25Z" fill="black"/>
<path d="M23.6134 25.655C22.9717 25.655 22.4467 25.13 22.4467 24.4883C22.4467 12.0983 15.9017 5.5533 3.51171 5.5533C2.87004 5.5533 2.34504 5.0283 2.34504 4.38664C2.34504 3.74497 2.87004 3.21997 3.51171 3.21997C17.2317 3.21997 24.78 10.7683 24.78 24.4883C24.78 25.13 24.255 25.655 23.6134 25.655Z" fill="black"/>
<path d="M16.9167 25.6666C16.275 25.6666 15.75 25.1416 15.75 24.5C15.75 16.3683 11.6317 12.25 3.50004 12.25C2.85837 12.25 2.33337 11.725 2.33337 11.0833C2.33337 10.4416 2.85837 9.91664 3.50004 9.91664C12.9034 9.91664 18.0834 15.0966 18.0834 24.5C18.0834 25.1416 17.5584 25.6666 16.9167 25.6666Z" fill="black"/>
</svg>
