<svg width="28" height="28" viewBox="0 0 28 28" fill="none" xmlns="http://www.w3.org/2000/svg">
<path d="M22.75 24.5H5.24998C4.60831 24.5 4.08331 23.975 4.08331 23.3333V19.8333C4.08331 19.1917 4.60831 18.6667 5.24998 18.6667C5.89165 18.6667 6.41665 19.1917 6.41665 19.8333V22.1667H21.5833V19.8333C21.5833 19.1917 22.1083 18.6667 22.75 18.6667C23.3916 18.6667 23.9166 19.1917 23.9166 19.8333V23.3333C23.9166 23.975 23.3916 24.5 22.75 24.5Z" fill="black"/>
<path d="M14 19.25C13.7083 19.25 13.44 19.145 13.2416 18.97C13.23 18.9583 13.2183 18.9583 13.2183 18.9467L6.15998 12.53C5.68165 12.0983 5.64665 11.3633 6.07831 10.885C6.50998 10.4067 7.24498 10.3717 7.72331 10.8033L12.8333 15.4467V4.66667C12.8333 4.025 13.3583 3.5 14 3.5C14.6416 3.5 15.1666 4.025 15.1666 4.66667V15.435L20.2766 10.8033C20.755 10.3717 21.49 10.4067 21.9216 10.885C22.3533 11.3633 22.3183 12.0983 21.84 12.53L14.8633 18.865C14.6533 19.0983 14.35 19.25 14 19.25Z" fill="black"/>
</svg>
