<svg width="28" height="28" viewBox="0 0 28 28" fill="none" xmlns="http://www.w3.org/2000/svg">
<path d="M22.75 24.5H5.25001C4.60834 24.5 4.08334 23.975 4.08334 23.3333V19.8333C4.08334 19.1917 4.60834 18.6667 5.25001 18.6667C5.89168 18.6667 6.41668 19.1917 6.41668 19.8333V22.1667H21.5833V19.8333C21.5833 19.1917 22.1083 18.6667 22.75 18.6667C23.3917 18.6667 23.9167 19.1917 23.9167 19.8333V23.3333C23.9167 23.975 23.3917 24.5 22.75 24.5Z" fill="black"/>
<path d="M14 19.25C13.7083 19.25 13.44 19.145 13.2417 18.97C13.23 18.9583 13.2183 18.9583 13.2183 18.9467L6.16001 12.53C5.68168 12.0983 5.64668 11.3633 6.07834 10.885C6.51001 10.4067 7.24501 10.3717 7.72334 10.8033L12.8333 15.4467V4.66667C12.8333 4.025 13.3583 3.5 14 3.5C14.6417 3.5 15.1667 4.025 15.1667 4.66667V15.435L20.2767 10.8033C20.755 10.3717 21.49 10.4067 21.9217 10.885C22.3533 11.3633 22.3183 12.0983 21.84 12.53L14.8633 18.865C14.6533 19.0983 14.35 19.25 14 19.25Z" fill="black"/>
</svg>
