<svg width="28" height="28" viewBox="0 0 28 28" fill="none" xmlns="http://www.w3.org/2000/svg">
<path fill-rule="evenodd" clip-rule="evenodd" d="M12.25 4.66671C8.06182 4.66671 4.66665 8.06188 4.66665 12.25C4.66665 16.4382 8.06182 19.8334 12.25 19.8334C16.4381 19.8334 19.8333 16.4382 19.8333 12.25C19.8333 8.06188 16.4381 4.66671 12.25 4.66671ZM2.33331 12.25C2.33331 6.77322 6.77316 2.33337 12.25 2.33337C17.7268 2.33337 22.1666 6.77322 22.1666 12.25C22.1666 14.5681 21.3713 16.7003 20.0387 18.3888L25.2663 23.6165C25.7219 24.0721 25.7219 24.8108 25.2663 25.2664C24.8107 25.722 24.072 25.722 23.6164 25.2664L18.3888 20.0387C16.7003 21.3714 14.568 22.1667 12.25 22.1667C6.77316 22.1667 2.33331 17.7269 2.33331 12.25Z" fill="black"/>
</svg>
