<svg width="28" height="28" viewBox="0 0 28 28" fill="none" xmlns="http://www.w3.org/2000/svg">
<path d="M3.50002 25.0834C3.22002 25.0834 2.94002 24.9784 2.71835 24.7917C2.36835 24.4767 2.24002 23.9867 2.39168 23.5434L5.69335 14.0001L2.39168 4.46839C2.24002 4.02506 2.36835 3.53506 2.71835 3.22006C3.06835 2.90506 3.57002 2.83506 4.00168 3.03339L24.9317 12.9501C25.34 13.1484 25.5967 13.5567 25.5967 14.0001C25.5967 14.4434 25.34 14.8634 24.9317 15.0501L4.00168 24.9667C3.83835 25.0484 3.67502 25.0834 3.50002 25.0834ZM7.75835 15.1667L5.50668 21.6767L21.7 14.0001L5.50668 6.32339L7.75835 12.8334H13.93C14.5717 12.8334 15.0967 13.3584 15.0967 14.0001C15.0967 14.6417 14.5717 15.1667 13.93 15.1667H7.75835Z" fill="black"/>
</svg>
