<svg width="28" height="28" viewBox="0 0 28 28" fill="none" xmlns="http://www.w3.org/2000/svg">
<path fill-rule="evenodd" clip-rule="evenodd" d="M19.25 5.24995C18.7859 5.24995 18.3407 5.43432 18.0126 5.76251C17.6844 6.0907 17.5 6.53582 17.5 6.99995C17.5 7.46408 17.6844 7.9092 18.0126 8.23739C18.3407 8.56558 18.7859 8.74995 19.25 8.74995C19.7141 8.74995 20.1592 8.56558 20.4874 8.23739C20.8156 7.9092 21 7.46408 21 6.99995C21 6.53582 20.8156 6.0907 20.4874 5.76251C20.1592 5.43432 19.7141 5.24995 19.25 5.24995ZM15.1667 6.99995C15.1681 6.06347 15.4914 5.15595 16.0823 4.42947C16.6733 3.70299 17.496 3.20172 18.4125 3.00965C19.3291 2.81759 20.2839 2.94642 21.1167 3.37454C21.9496 3.80267 22.61 4.50407 22.9873 5.36119C23.3646 6.21831 23.4358 7.17907 23.1889 8.08243C22.9421 8.9858 22.3923 9.77687 21.6316 10.3231C20.8709 10.8693 19.9456 11.1374 19.0107 11.0825C18.0758 11.0276 17.1882 10.6531 16.4967 10.0216L11.55 12.9849C11.7209 13.6508 11.7209 14.3491 11.55 15.0149L16.5083 17.9899C17.2331 17.3288 18.1717 16.9508 19.1524 16.9249C20.1331 16.8991 21.0903 17.2271 21.849 17.8491C22.6076 18.4711 23.117 19.3454 23.2839 20.3121C23.4508 21.2789 23.2641 22.2733 22.7579 23.1137C22.2517 23.9541 21.4599 24.5841 20.5273 24.8885C19.5947 25.193 18.5837 25.1515 17.6792 24.7717C16.7747 24.3919 16.0371 23.6992 15.6015 22.8202C15.1658 21.9412 15.0612 20.9348 15.3067 19.9849L10.3483 17.0099C9.76414 17.5455 9.03673 17.8994 8.25483 18.0286C7.47293 18.1579 6.67032 18.0567 5.94489 17.7376C5.21947 17.4185 4.60258 16.8952 4.16947 16.2315C3.73636 15.5678 3.50574 14.7925 3.50574 13.9999C3.50574 13.2074 3.73636 12.4321 4.16947 11.7684C4.60258 11.1047 5.21947 10.5814 5.94489 10.2623C6.67032 9.94316 7.47293 9.84204 8.25483 9.97125C9.03673 10.1005 9.76414 10.4544 10.3483 10.9899L15.3067 8.01495C15.2176 7.68384 15.1705 7.34282 15.1667 6.99995ZM7.58333 12.2499C7.1192 12.2499 6.67408 12.4343 6.34589 12.7625C6.0177 13.0907 5.83333 13.5358 5.83333 13.9999C5.83333 14.4641 6.0177 14.9092 6.34589 15.2374C6.67408 15.5656 7.1192 15.7499 7.58333 15.7499C8.04746 15.7499 8.49258 15.5656 8.82077 15.2374C9.14895 14.9092 9.33333 14.4641 9.33333 13.9999C9.33333 13.5358 9.14895 13.0907 8.82077 12.7625C8.49258 12.4343 8.04746 12.2499 7.58333 12.2499ZM19.25 19.2499C18.7859 19.2499 18.3407 19.4343 18.0126 19.7625C17.6844 20.0907 17.5 20.5358 17.5 20.9999C17.5 21.4641 17.6844 21.9092 18.0126 22.2374C18.3407 22.5656 18.7859 22.7499 19.25 22.7499C19.7141 22.7499 20.1592 22.5656 20.4874 22.2374C20.8156 21.9092 21 21.4641 21 20.9999C21 20.5358 20.8156 20.0907 20.4874 19.7625C20.1592 19.4343 19.7141 19.2499 19.25 19.2499Z" fill="black"/>
</svg>
