<svg width="28" height="28" viewBox="0 0 28 28" fill="none" xmlns="http://www.w3.org/2000/svg">
<path d="M19.8333 17.9434C18.9116 17.9434 18.0833 18.2934 17.4416 18.8534L10.57 14.7234C10.6658 14.2459 10.6658 13.7542 10.57 13.2767L17.4533 9.14672C17.9761 9.61165 18.6225 9.91497 19.3142 10.0199C20.0059 10.1249 20.7133 10.0269 21.3504 9.73797C21.9876 9.44902 22.5273 8.98146 22.9041 8.39196C23.2809 7.80246 23.4786 7.11633 23.4733 6.41672C23.4863 5.89885 23.389 5.38413 23.1879 4.90675C22.9867 4.42936 22.6863 4.00025 22.3065 3.64789C21.9268 3.29554 21.4764 3.02802 20.9853 2.8631C20.4943 2.69817 19.9737 2.63962 19.4583 2.69134C18.9428 2.74305 18.4443 2.90384 17.9957 3.16303C17.5472 3.42221 17.159 3.77387 16.8568 4.19464C16.5546 4.6154 16.3454 5.09565 16.2431 5.60348C16.1407 6.1113 16.1476 6.63509 16.2633 7.14005L9.37995 11.2584C8.85642 10.7928 8.2089 10.4892 7.5161 10.3847C6.8233 10.2801 6.11505 10.379 5.47742 10.6694C4.83979 10.9598 4.30023 11.4292 3.92433 12.0205C3.54842 12.6117 3.35236 13.2994 3.35995 14.0001C3.35259 14.7019 3.54959 15.3907 3.92695 15.9825C4.3043 16.5743 4.8457 17.0435 5.48512 17.3329C6.12454 17.6223 6.83436 17.7194 7.52801 17.6124C8.22167 17.5053 8.86919 17.1988 9.39162 16.7301L16.2633 20.8601C16.1115 21.5987 16.1921 22.3662 16.4941 23.0572C16.796 23.7482 17.3044 24.3287 17.9496 24.7192C18.5947 25.1096 19.3449 25.2907 20.0971 25.2377C20.8493 25.1846 21.5666 24.9 22.1506 24.4229C22.7345 23.9458 23.1565 23.2997 23.3585 22.5731C23.5604 21.8466 23.5325 21.0754 23.2786 20.3654C23.0247 19.6553 22.5572 19.0413 21.9403 18.6077C21.3234 18.174 20.5874 17.942 19.8333 17.9434Z" fill="black"/>
</svg>
