<svg width="28" height="28" viewBox="0 0 28 28" fill="none" xmlns="http://www.w3.org/2000/svg">
<path d="M8.75 9.33337C9.03 9.33337 9.29833 9.24004 9.52 9.04171L12.8333 6.10171V17.2084C12.8333 17.85 13.3583 18.375 14 18.375C14.6417 18.375 15.1667 17.85 15.1667 17.2084V6.10171L18.48 9.04171C18.7017 9.24004 18.97 9.33337 19.25 9.33337C19.5767 9.33337 19.8917 9.20504 20.125 8.93671C20.5567 8.45837 20.51 7.72337 20.0317 7.29171L14.7817 2.62504C14.735 2.59004 14.6883 2.57837 14.6417 2.54337C14.5833 2.50837 14.5483 2.46171 14.49 2.43837C14.4667 2.42671 14.4433 2.42671 14.42 2.41504C14.3617 2.39171 14.2917 2.38004 14.2217 2.36837C14.1633 2.35671 14.105 2.33337 14.035 2.33337C14.0233 2.34504 14.0117 2.33337 14 2.33337C13.9883 2.33337 13.9767 2.34504 13.965 2.34504C13.9067 2.34504 13.8483 2.36837 13.7783 2.38004C13.7083 2.39171 13.65 2.40337 13.58 2.42671C13.5567 2.43837 13.5333 2.43837 13.51 2.45004C13.4517 2.47337 13.405 2.52004 13.3583 2.55504C13.3117 2.59004 13.2533 2.60171 13.2183 2.63671L7.96833 7.30337C7.49 7.73504 7.44333 8.47004 7.875 8.94837C8.10833 9.20504 8.42333 9.33337 8.75 9.33337Z" fill="black"/>
<path d="M21.5833 10.5H18.6667C18.025 10.5 17.5 11.025 17.5 11.6667C17.5 12.3084 18.025 12.8334 18.6667 12.8334H20.4167V22.1667H7.58333V12.8334H9.33333C9.975 12.8334 10.5 12.3084 10.5 11.6667C10.5 11.025 9.975 10.5 9.33333 10.5H6.41667C5.775 10.5 5.25 11.025 5.25 11.6667V23.3334C5.25 23.975 5.775 24.5 6.41667 24.5H21.5833C22.225 24.5 22.75 23.975 22.75 23.3334V11.6667C22.75 11.025 22.225 10.5 21.5833 10.5Z" fill="black"/>
</svg>
