<svg width="28" height="28" viewBox="0 0 28 28" fill="none" xmlns="http://www.w3.org/2000/svg">
<path fill-rule="evenodd" clip-rule="evenodd" d="M25.6669 14C25.6669 14.3499 25.5098 14.6814 25.239 14.903L13.8316 24.2363C13.4827 24.5218 13.0006 24.5807 12.5932 24.3876C12.1858 24.1946 11.9261 23.7841 11.9261 23.3333L11.9261 17.9196C11.2861 17.7825 10.3363 17.7888 8.98252 18.0642C7.12263 18.4425 5.47012 18.9948 4.01661 19.7127C3.5591 19.9387 3.00782 19.8411 2.65566 19.4718C2.3035 19.1026 2.23219 18.5473 2.47961 18.101C3.81845 15.6861 5.26598 13.7995 6.8465 12.5121C8.23456 11.3815 9.93868 10.5476 11.9261 9.98498V4.66668C11.9261 4.21589 12.1858 3.80544 12.5932 3.6124C13.0006 3.41936 13.4827 3.47827 13.8316 3.76373L25.239 13.0971C25.5098 13.3186 25.6669 13.6501 25.6669 14ZM22.6578 14L14.2595 7.12863V10.8889C14.2595 11.4312 13.8858 11.9019 13.3577 12.0251C11.2401 12.5189 9.57741 13.2971 8.32008 14.3213C7.69164 14.8331 7.06217 15.4865 6.43461 16.2901C7.10593 16.0942 7.80032 15.9236 8.5174 15.7777C10.5337 15.3675 12.3292 15.3604 13.6546 16.0886C14.0276 16.2936 14.2595 16.6855 14.2595 17.1111L14.2595 20.8714L22.6578 14Z" fill="black"/>
</svg>
