<svg width="28" height="28" viewBox="0 0 28 28" fill="none" xmlns="http://www.w3.org/2000/svg">
<path fill-rule="evenodd" clip-rule="evenodd" d="M25.6669 14C25.6669 14.3499 25.5099 14.6814 25.239 14.903L13.8316 24.2363C13.4827 24.5218 13.0006 24.5807 12.5933 24.3876C12.1859 24.1946 11.9262 23.7841 11.9262 23.3333L11.9262 17.9196C11.2861 17.7825 10.3363 17.7888 8.98258 18.0642C7.12269 18.4425 5.47018 18.9948 4.01667 19.7127C3.55916 19.9387 3.00788 19.8411 2.65572 19.4718C2.30356 19.1026 2.23225 18.5473 2.47968 18.101C3.81851 15.6861 5.26604 13.7995 6.84656 12.5121C8.23462 11.3815 9.93874 10.5476 11.9262 9.98498V4.66668C11.9262 4.21589 12.1859 3.80544 12.5933 3.6124C13.0006 3.41936 13.4827 3.47827 13.8316 3.76373L25.239 13.0971C25.5099 13.3186 25.6669 13.6501 25.6669 14ZM22.6579 14L14.2595 7.12863V10.8889C14.2595 11.4312 13.8859 11.9019 13.3578 12.0251C11.2402 12.5189 9.57747 13.2971 8.32014 14.3213C7.6917 14.8331 7.06223 15.4865 6.43467 16.2901C7.106 16.0942 7.80038 15.9236 8.51746 15.7777C10.5338 15.3675 12.3293 15.3604 13.6546 16.0886C14.0277 16.2936 14.2595 16.6855 14.2595 17.1111L14.2595 20.8714L22.6579 14Z" fill="black"/>
</svg>
