<svg width="28" height="28" viewBox="0 0 28 28" fill="none" xmlns="http://www.w3.org/2000/svg">
<path fill-rule="evenodd" clip-rule="evenodd" d="M14.0268 2.91665C14.4071 2.92482 14.7595 3.11849 14.9706 3.43582C15.7581 4.61649 16.7463 5.43082 17.9421 5.92082C18.9466 6.33149 20.1191 6.25099 21.5845 5.40632C21.945 5.19865 22.3895 5.19865 22.7511 5.40749C23.1128 5.61632 23.3333 6.00015 23.3333 6.41665V16.9167C23.3333 17.052 23.31 17.185 23.2645 17.3122C22.6076 19.1357 21.5086 20.6722 19.985 21.9065C18.508 23.1035 16.6448 24.129 14.4281 25.0016C14.154 25.1102 13.8483 25.1102 13.573 25.0016C11.3563 24.129 9.49313 23.1023 8.01613 21.9065C6.49246 20.6722 5.39346 19.1357 4.73663 17.3122C4.68996 17.185 4.66663 17.052 4.66663 16.9167V6.41665C4.66663 6.00949 4.87896 5.63149 5.22663 5.42032C5.57429 5.20915 6.00713 5.19399 6.36879 5.38065C8.00796 6.22765 9.18396 6.28599 10.0496 5.92432C11.1183 5.47749 12.1275 4.66082 13.0596 3.39265C13.286 3.08582 13.6465 2.90849 14.0268 2.91665Z" fill="black"/>
</svg>
