<svg width="28" height="28" viewBox="0 0 28 28" fill="none" xmlns="http://www.w3.org/2000/svg">
<path fill-rule="evenodd" clip-rule="evenodd" d="M14 3.5C14.2187 3.49956 14.4331 3.56058 14.6187 3.6761C14.8044 3.79162 14.9538 3.95698 15.05 4.15334L17.6634 9.45L23.4967 10.29C23.7113 10.3212 23.913 10.4116 24.0791 10.5511C24.2452 10.6905 24.3691 10.8735 24.437 11.0795C24.5049 11.2855 24.514 11.5064 24.4633 11.7172C24.4126 11.9281 24.3041 12.1207 24.15 12.2733L19.915 16.4033L20.9184 22.225C20.9539 22.439 20.9291 22.6588 20.8467 22.8595C20.7642 23.0602 20.6275 23.2339 20.4517 23.3612C20.276 23.4884 20.0682 23.5642 19.8518 23.5798C19.6354 23.5955 19.4189 23.5506 19.2267 23.45L14 20.7083L8.77335 23.45C8.58109 23.5506 8.3646 23.5955 8.14819 23.5798C7.93179 23.5642 7.72405 23.4884 7.54831 23.3612C7.37257 23.2339 7.23581 23.0602 7.15338 22.8595C7.07095 22.6588 7.04612 22.439 7.08168 22.225L8.08502 16.4033L3.85002 12.285C3.69594 12.1324 3.58747 11.9398 3.53677 11.7289C3.48608 11.518 3.49517 11.2972 3.56303 11.0912C3.63089 10.8852 3.75482 10.7022 3.92093 10.5627C4.08703 10.4233 4.28872 10.3329 4.50335 10.3017L10.3367 9.45L12.95 4.15334C13.0462 3.95698 13.1957 3.79162 13.3813 3.6761C13.567 3.56058 13.7814 3.49956 14 3.5ZM14 7.30334L12.1567 11.0367C12.0723 11.2043 11.9487 11.3491 11.7963 11.4588C11.644 11.5685 11.4675 11.6398 11.2817 11.6667L7.17502 12.2617L10.15 15.1667C10.2851 15.2978 10.3863 15.4597 10.4453 15.6385C10.5042 15.8172 10.519 16.0076 10.4884 16.1933L9.78835 20.2767L13.4517 18.3517C13.6205 18.2618 13.8088 18.2148 14 18.2148C14.1913 18.2148 14.3796 18.2618 14.5484 18.3517L18.2233 20.2883L17.5234 16.1933C17.4913 16.0086 17.5042 15.8188 17.5611 15.64C17.6179 15.4613 17.7171 15.2989 17.85 15.1667L20.825 12.2617L16.7184 11.6667C16.5314 11.6386 16.3541 11.5655 16.2017 11.4537C16.0493 11.342 15.9263 11.1948 15.8434 11.025L14 7.30334Z" fill="black"/>
</svg>
