<svg width="28" height="28" viewBox="0 0 28 28" fill="none" xmlns="http://www.w3.org/2000/svg">
<path d="M17.5 26.8333C17.2737 26.8333 17.0473 26.7668 16.8525 26.6373L11.8965 23.3333H8.75001C6.17634 23.3333 4.08334 21.2403 4.08334 18.6667V8.16667C4.08334 5.593 6.17634 3.5 8.75001 3.5H19.25C21.8237 3.5 23.9167 5.593 23.9167 8.16667V18.6667C23.9167 21.2403 21.8237 23.3333 19.25 23.3333H18.6667V25.6667C18.6667 26.0972 18.4298 26.4927 18.0507 26.6957C17.878 26.7878 17.689 26.8333 17.5 26.8333ZM8.75001 5.83333C7.46318 5.83333 6.41668 6.87983 6.41668 8.16667V18.6667C6.41668 19.9535 7.46318 21 8.75001 21H12.25C12.4798 21 12.7062 21.0688 12.8975 21.196L16.3333 23.4873V22.1667C16.3333 21.5215 16.8548 21 17.5 21H19.25C20.5368 21 21.5833 19.9535 21.5833 18.6667V8.16667C21.5833 6.87983 20.5368 5.83333 19.25 5.83333H8.75001Z" fill="black"/>
<path d="M18.2128 12.3993C18.1253 12.1287 17.8908 11.9303 17.6073 11.8883L15.5797 11.5943L14.672 9.75567C14.4188 9.24467 13.5788 9.24467 13.3268 9.75567L12.4203 11.5943L10.3927 11.8883C10.1103 11.9292 9.87584 12.1275 9.78718 12.3993C9.69851 12.6712 9.77201 12.9687 9.97734 13.1682L11.445 14.5985L11.0985 16.6192C11.0507 16.9003 11.1662 17.1838 11.3972 17.353C11.6293 17.521 11.9338 17.5408 12.187 17.4102L14 16.4547L15.8153 17.409C15.925 17.4662 16.044 17.4942 16.1642 17.4942C16.3193 17.4942 16.4745 17.4463 16.6052 17.3518C16.8362 17.1827 16.9517 16.8992 16.9038 16.618L16.5562 14.5973L18.0238 13.167C18.228 12.9687 18.3015 12.6712 18.2128 12.3993Z" fill="black"/>
</svg>
