<svg width="28" height="28" viewBox="0 0 28 28" fill="none" xmlns="http://www.w3.org/2000/svg">
<path fill-rule="evenodd" clip-rule="evenodd" d="M5.83337 4.66665C5.18904 4.66665 4.66671 5.18898 4.66671 5.83331V22.1666C4.66671 22.811 5.18904 23.3333 5.83337 23.3333H22.1667C22.811 23.3333 23.3334 22.811 23.3334 22.1666V5.83331C23.3334 5.18898 22.811 4.66665 22.1667 4.66665H5.83337ZM2.33337 5.83331C2.33337 3.90032 3.90038 2.33331 5.83337 2.33331H22.1667C24.0997 2.33331 25.6667 3.90032 25.6667 5.83331V22.1666C25.6667 24.0996 24.0997 25.6666 22.1667 25.6666H5.83337C3.90038 25.6666 2.33337 24.0996 2.33337 22.1666V5.83331Z" fill="black"/>
<path d="M11.2041 18.6666L15.4082 10.5592V10.443H10.4317V8.79555H17.4864V10.4635L13.3643 18.6666H11.2041Z" fill="black"/>
</svg>
