<svg width="28" height="28" viewBox="0 0 28 28" fill="none" xmlns="http://www.w3.org/2000/svg">
<path fill-rule="evenodd" clip-rule="evenodd" d="M5.83331 4.66665C5.18898 4.66665 4.66665 5.18898 4.66665 5.83331V22.1666C4.66665 22.811 5.18898 23.3333 5.83331 23.3333H22.1666C22.811 23.3333 23.3333 22.811 23.3333 22.1666V5.83331C23.3333 5.18898 22.811 4.66665 22.1666 4.66665H5.83331ZM2.33331 5.83331C2.33331 3.90032 3.90032 2.33331 5.83331 2.33331H22.1666C24.0996 2.33331 25.6666 3.90032 25.6666 5.83331V22.1666C25.6666 24.0996 24.0996 25.6666 22.1666 25.6666H5.83331C3.90032 25.6666 2.33331 24.0996 2.33331 22.1666V5.83331Z" fill="black"/>
<path d="M14 18.9196C13.1888 18.9196 12.4892 18.7099 11.9013 18.2907C11.318 17.8668 10.8691 17.2676 10.5547 16.4928C10.2402 15.7181 10.083 14.7998 10.083 13.7379V13.7243C10.083 12.6579 10.2402 11.7396 10.5547 10.9694C10.8691 10.1946 11.318 9.59764 11.9013 9.17837C12.4892 8.75909 13.1888 8.54946 14 8.54946C14.8157 8.54946 15.5153 8.75909 16.0986 9.17837C16.6819 9.59764 17.1308 10.1946 17.4453 10.9694C17.7597 11.7396 17.917 12.6579 17.917 13.7243V13.7379C17.917 14.7998 17.7597 15.7181 17.4453 16.4928C17.1308 17.2676 16.6819 17.8668 16.0986 18.2907C15.5153 18.7099 14.8157 18.9196 14 18.9196ZM14 17.2858C14.3919 17.2858 14.7223 17.1445 14.9912 16.862C15.2646 16.5794 15.472 16.1738 15.6133 15.6452C15.7591 15.1165 15.832 14.4808 15.832 13.7379V13.7243C15.832 12.9769 15.7591 12.3411 15.6133 11.817C15.472 11.2884 15.2646 10.8851 14.9912 10.6071C14.7223 10.3245 14.3919 10.1832 14 10.1832C13.6126 10.1832 13.2822 10.3245 13.0088 10.6071C12.7399 10.8851 12.5325 11.2884 12.3867 11.817C12.2454 12.3411 12.1748 12.9769 12.1748 13.7243V13.7379C12.1748 14.4808 12.2454 15.1165 12.3867 15.6452C12.5325 16.1738 12.7399 16.5794 13.0088 16.862C13.2822 17.1445 13.6126 17.2858 14 17.2858Z" fill="black"/>
</svg>
