<svg width="28" height="28" viewBox="0 0 28 28" fill="none" xmlns="http://www.w3.org/2000/svg">
<path fill-rule="evenodd" clip-rule="evenodd" d="M5.83331 4.66659C5.18898 4.66659 4.66665 5.18892 4.66665 5.83325V22.1666C4.66665 22.8109 5.18898 23.3333 5.83331 23.3333H22.1666C22.811 23.3333 23.3333 22.8109 23.3333 22.1666V5.83325C23.3333 5.18892 22.811 4.66659 22.1666 4.66659H5.83331ZM2.33331 5.83325C2.33331 3.90026 3.90032 2.33325 5.83331 2.33325H22.1666C24.0996 2.33325 25.6666 3.90026 25.6666 5.83325V22.1666C25.6666 24.0996 24.0996 25.6666 22.1666 25.6666H5.83331C3.90032 25.6666 2.33331 24.0996 2.33331 22.1666V5.83325Z" fill="black"/>
<path d="M14 18.8853C13.207 18.8853 12.5097 18.7646 11.9082 18.523C11.3066 18.2769 10.8372 17.9374 10.5 17.5045C10.1627 17.067 9.99412 16.5634 9.99412 15.9937V15.9801C9.99412 15.5517 10.0921 15.1643 10.2881 14.818C10.4886 14.4716 10.762 14.1845 11.1084 13.9566C11.4547 13.7242 11.8512 13.5647 12.2978 13.4781V13.4371C11.7191 13.2958 11.2497 13.0315 10.8896 12.6441C10.5342 12.2522 10.3564 11.7874 10.3564 11.2496V11.2359C10.3564 10.7255 10.5114 10.2721 10.8213 9.87557C11.1312 9.47453 11.5596 9.16008 12.1064 8.93221C12.6533 8.69979 13.2845 8.58358 14 8.58358C14.7155 8.58358 15.3467 8.69979 15.8935 8.93221C16.4404 9.16008 16.8688 9.47453 17.1787 9.87557C17.4886 10.2721 17.6435 10.7255 17.6435 11.2359V11.2496C17.6435 11.7874 17.4635 12.2522 17.1035 12.6441C16.7435 13.0315 16.2763 13.2958 15.7021 13.4371V13.4781C16.1487 13.5647 16.5452 13.7242 16.8916 13.9566C17.2379 14.1845 17.5091 14.4716 17.7051 14.818C17.9056 15.1643 18.0058 15.5517 18.0058 15.9801V15.9937C18.0058 16.5634 17.8372 17.067 17.5 17.5045C17.1627 17.9374 16.6911 18.2769 16.0849 18.523C15.4834 18.7646 14.7884 18.8853 14 18.8853ZM14 17.3814C14.36 17.3814 14.679 17.3176 14.957 17.19C15.235 17.0579 15.4515 16.8778 15.6064 16.65C15.7659 16.4176 15.8457 16.1532 15.8457 15.857V15.8433C15.8457 15.5471 15.7682 15.2851 15.6133 15.0572C15.4583 14.8248 15.2418 14.6425 14.9638 14.5103C14.6859 14.3782 14.3646 14.3121 14 14.3121C13.6354 14.3121 13.3141 14.3782 13.0361 14.5103C12.7581 14.6425 12.5394 14.8248 12.3799 15.0572C12.2249 15.2851 12.1474 15.5471 12.1474 15.8433V15.857C12.1474 16.1532 12.2272 16.4176 12.3867 16.65C12.5462 16.8778 12.765 17.0579 13.0429 17.19C13.3209 17.3176 13.64 17.3814 14 17.3814ZM14 12.815C14.3144 12.815 14.5924 12.7581 14.834 12.6441C15.0755 12.5256 15.2624 12.3639 15.3945 12.1588C15.5312 11.9537 15.5996 11.7167 15.5996 11.4478V11.4342C15.5996 11.1653 15.5312 10.9283 15.3945 10.7232C15.2578 10.5181 15.0687 10.3586 14.8271 10.2447C14.5901 10.1308 14.3144 10.0738 14 10.0738C13.6855 10.0738 13.4075 10.1308 13.166 10.2447C12.9245 10.3586 12.7353 10.5181 12.5986 10.7232C12.4619 10.9283 12.3935 11.1653 12.3935 11.4342V11.4478C12.3935 11.7167 12.4619 11.9537 12.5986 12.1588C12.7353 12.3639 12.9245 12.5256 13.166 12.6441C13.4075 12.7581 13.6855 12.815 14 12.815Z" fill="black"/>
</svg>
