<svg width="28" height="28" viewBox="0 0 28 28" fill="none" xmlns="http://www.w3.org/2000/svg">
<path fill-rule="evenodd" clip-rule="evenodd" d="M5.83337 4.66665C5.18904 4.66665 4.66671 5.18898 4.66671 5.83331V22.1666C4.66671 22.811 5.18904 23.3333 5.83337 23.3333H22.1667C22.811 23.3333 23.3334 22.811 23.3334 22.1666V5.83331C23.3334 5.18898 22.811 4.66665 22.1667 4.66665H5.83337ZM2.33337 5.83331C2.33337 3.90032 3.90038 2.33331 5.83337 2.33331H22.1667C24.0997 2.33331 25.6667 3.90032 25.6667 5.83331V22.1666C25.6667 24.0996 24.0997 25.6666 22.1667 25.6666H5.83337C3.90038 25.6666 2.33337 24.0996 2.33337 22.1666V5.83331Z" fill="black"/>
<path d="M14 18.8854C13.2572 18.8854 12.6055 18.7624 12.045 18.5163C11.489 18.2656 11.0492 17.9193 10.7256 17.4772C10.4021 17.0306 10.2152 16.5133 10.1651 15.9254L10.1582 15.8366H12.1338L12.1407 15.9118C12.1726 16.167 12.266 16.3948 12.4209 16.5954C12.5804 16.7913 12.7946 16.9463 13.0635 17.0602C13.3324 17.1696 13.6446 17.2243 14 17.2243C14.351 17.2243 14.6563 17.165 14.9161 17.0465C15.1804 16.9235 15.3832 16.7549 15.5245 16.5407C15.6703 16.3265 15.7432 16.0804 15.7432 15.8024V15.7887C15.7432 15.3148 15.5746 14.9525 15.2373 14.7018C14.9047 14.4512 14.4398 14.3258 13.8428 14.3258H12.7149V12.8561H13.8155C14.1618 12.8561 14.4626 12.7991 14.7178 12.6852C14.973 12.5713 15.1713 12.414 15.3125 12.2135C15.4538 12.0084 15.5245 11.7737 15.5245 11.5094V11.4957C15.5245 11.2223 15.4629 10.9876 15.3399 10.7916C15.2214 10.5911 15.0459 10.4385 14.8135 10.3336C14.5857 10.2243 14.3099 10.1696 13.9864 10.1696C13.6628 10.1696 13.378 10.2243 13.1319 10.3336C12.8858 10.443 12.6898 10.6002 12.544 10.8053C12.3982 11.0058 12.3116 11.2428 12.2842 11.5163L12.2774 11.5778H10.377L10.3838 11.4957C10.434 10.9033 10.6117 10.3906 10.917 9.95766C11.2269 9.52016 11.6416 9.18292 12.1612 8.94594C12.6853 8.70441 13.2937 8.58364 13.9864 8.58364C14.6927 8.58364 15.308 8.69529 15.8321 8.9186C16.3562 9.13735 16.7595 9.44497 17.042 9.84145C17.3291 10.2334 17.4727 10.6937 17.4727 11.2223V11.236C17.4727 11.6461 17.3816 12.0062 17.1993 12.3161C17.017 12.626 16.7709 12.8812 16.461 13.0817C16.1511 13.2822 15.8025 13.4235 15.4151 13.5055V13.5465C16.1488 13.6149 16.7367 13.8519 17.1788 14.2575C17.6208 14.6631 17.8418 15.2008 17.8418 15.8707V15.8844C17.8418 16.4814 17.6801 17.0055 17.3565 17.4567C17.0375 17.9079 16.5909 18.2588 16.0166 18.5094C15.4424 18.7601 14.7702 18.8854 14 18.8854Z" fill="black"/>
</svg>
