<svg width="28" height="28" viewBox="0 0 28 28" fill="none" xmlns="http://www.w3.org/2000/svg">
<path fill-rule="evenodd" clip-rule="evenodd" d="M5.83334 4.66671C5.18901 4.66671 4.66668 5.18904 4.66668 5.83337V22.1667C4.66668 22.811 5.18901 23.3334 5.83334 23.3334H22.1667C22.811 23.3334 23.3333 22.811 23.3333 22.1667V5.83337C23.3333 5.18904 22.811 4.66671 22.1667 4.66671H5.83334ZM2.33334 5.83337C2.33334 3.90038 3.90035 2.33337 5.83334 2.33337H22.1667C24.0997 2.33337 25.6667 3.90038 25.6667 5.83337V22.1667C25.6667 24.0997 24.0997 25.6667 22.1667 25.6667H5.83334C3.90035 25.6667 2.33334 24.0997 2.33334 22.1667V5.83337Z" fill="black"/>
<path d="M13.8633 8.54268C14.433 8.54268 14.9639 8.6475 15.4561 8.85714C15.9528 9.06222 16.3858 9.37439 16.7549 9.79366C17.1286 10.2084 17.418 10.737 17.6231 11.3796C17.8327 12.0176 17.9375 12.7696 17.9375 13.6355V13.6491C17.9375 14.752 17.7712 15.6954 17.4385 16.4792C17.1104 17.2631 16.641 17.8646 16.0303 18.2839C15.4196 18.7032 14.6927 18.9128 13.8496 18.9128C13.2162 18.9128 12.6442 18.7989 12.1338 18.571C11.6234 18.3386 11.2018 18.0219 10.8692 17.6208C10.541 17.2152 10.3246 16.7549 10.2197 16.24L10.2061 16.1784H12.2295L12.25 16.24C12.332 16.4405 12.446 16.6205 12.5918 16.78C12.7422 16.9349 12.9222 17.0557 13.1318 17.1423C13.3415 17.2289 13.5785 17.2722 13.8428 17.2722C14.3213 17.2722 14.7132 17.1309 15.0186 16.8483C15.3239 16.5612 15.554 16.1761 15.709 15.6931C15.8639 15.21 15.9528 14.67 15.9756 14.073C15.9802 14.0046 15.9824 13.9362 15.9824 13.8679C15.9824 13.7995 15.9824 13.7334 15.9824 13.6696L15.668 12.0153C15.668 11.669 15.5882 11.3591 15.4287 11.0857C15.2692 10.8077 15.055 10.5889 14.7861 10.4294C14.5173 10.2653 14.2142 10.1833 13.877 10.1833C13.5443 10.1833 13.2412 10.2631 12.9678 10.4226C12.6989 10.5775 12.4824 10.7917 12.3184 11.0651C12.1589 11.334 12.0791 11.6371 12.0791 11.9743V11.988C12.0791 12.3344 12.1566 12.642 12.3115 12.9108C12.4665 13.1797 12.6784 13.3916 12.9473 13.5466C13.2162 13.697 13.5215 13.7722 13.8633 13.7722C14.2051 13.7722 14.5104 13.6993 14.7793 13.5534C15.0527 13.403 15.2692 13.1957 15.4287 12.9314C15.5882 12.667 15.668 12.3663 15.668 12.029V12.0153H16.0781V13.8542H15.8389C15.7249 14.1049 15.554 14.3418 15.3262 14.5651C15.1029 14.7839 14.8226 14.9616 14.4854 15.0983C14.1481 15.2305 13.7516 15.2966 13.2959 15.2966C12.6579 15.2966 12.0973 15.1576 11.6143 14.8796C11.1312 14.597 10.7552 14.212 10.4863 13.7243C10.2175 13.2367 10.083 12.683 10.083 12.0632V12.0495C10.083 11.375 10.2425 10.7735 10.5615 10.2448C10.8851 9.71619 11.3317 9.30147 11.9014 9.00069C12.471 8.69535 13.125 8.54268 13.8633 8.54268Z" fill="black"/>
</svg>
