<svg width="28" height="28" viewBox="0 0 28 28" fill="none" xmlns="http://www.w3.org/2000/svg">
<path fill-rule="evenodd" clip-rule="evenodd" d="M5.83334 4.66668C5.18901 4.66668 4.66668 5.18901 4.66668 5.83334V22.1667C4.66668 22.811 5.18901 23.3333 5.83334 23.3333H22.1667C22.811 23.3333 23.3333 22.811 23.3333 22.1667V5.83334C23.3333 5.18901 22.811 4.66668 22.1667 4.66668H5.83334ZM2.33334 5.83334C2.33334 3.90035 3.90035 2.33334 5.83334 2.33334H22.1667C24.0997 2.33334 25.6667 3.90035 25.6667 5.83334V22.1667C25.6667 24.0997 24.0997 25.6667 22.1667 25.6667H5.83334C3.90035 25.6667 2.33334 24.0997 2.33334 22.1667V5.83334Z" fill="black"/>
<path d="M13.8633 8.54265C14.433 8.54265 14.9639 8.64747 15.4561 8.85711C15.9528 9.06219 16.3858 9.37436 16.7549 9.79363C17.1286 10.2083 17.418 10.737 17.6231 11.3796C17.8327 12.0176 17.9375 12.7695 17.9375 13.6354V13.6491C17.9375 14.752 17.7712 15.6953 17.4385 16.4792C17.1104 17.263 16.641 17.8646 16.0303 18.2839C15.4196 18.7031 14.6927 18.9128 13.8496 18.9128C13.2162 18.9128 12.6442 18.7988 12.1338 18.571C11.6234 18.3386 11.2018 18.0218 10.8692 17.6208C10.541 17.2152 10.3246 16.7549 10.2197 16.2399L10.2061 16.1784H12.2295L12.25 16.2399C12.332 16.4404 12.446 16.6205 12.5918 16.78C12.7422 16.9349 12.9222 17.0557 13.1318 17.1423C13.3415 17.2289 13.5785 17.2721 13.8428 17.2721C14.3213 17.2721 14.7132 17.1309 15.0186 16.8483C15.3239 16.5612 15.554 16.1761 15.709 15.693C15.8639 15.21 15.9528 14.6699 15.9756 14.0729C15.9802 14.0046 15.9824 13.9362 15.9824 13.8678C15.9824 13.7995 15.9824 13.7334 15.9824 13.6696L15.668 12.0153C15.668 11.669 15.5882 11.3591 15.4287 11.0856C15.2692 10.8076 15.055 10.5889 14.7861 10.4294C14.5173 10.2653 14.2142 10.1833 13.877 10.1833C13.5443 10.1833 13.2412 10.263 12.9678 10.4225C12.6989 10.5775 12.4824 10.7917 12.3184 11.0651C12.1589 11.334 12.0791 11.6371 12.0791 11.9743V11.988C12.0791 12.3343 12.1566 12.6419 12.3115 12.9108C12.4665 13.1797 12.6784 13.3916 12.9473 13.5466C13.2162 13.697 13.5215 13.7721 13.8633 13.7721C14.2051 13.7721 14.5104 13.6992 14.7793 13.5534C15.0527 13.403 15.2692 13.1956 15.4287 12.9313C15.5882 12.667 15.668 12.3662 15.668 12.029V12.0153H16.0781V13.8542H15.8389C15.7249 14.1048 15.554 14.3418 15.3262 14.5651C15.1029 14.7839 14.8226 14.9616 14.4854 15.0983C14.1481 15.2305 13.7516 15.2966 13.2959 15.2966C12.6579 15.2966 12.0973 15.1576 11.6143 14.8796C11.1312 14.597 10.7552 14.2119 10.4863 13.7243C10.2175 13.2367 10.083 12.683 10.083 12.0632V12.0495C10.083 11.375 10.2425 10.7734 10.5615 10.2448C10.8851 9.71616 11.3317 9.30144 11.9014 9.00066C12.471 8.69532 13.125 8.54265 13.8633 8.54265Z" fill="black"/>
</svg>
