<svg width="28" height="28" viewBox="0 0 28 28" fill="none" xmlns="http://www.w3.org/2000/svg">
<path fill-rule="evenodd" clip-rule="evenodd" d="M5.83337 4.66659C5.18904 4.66659 4.66671 5.18892 4.66671 5.83325V22.1666C4.66671 22.8109 5.18904 23.3333 5.83337 23.3333H22.1667C22.811 23.3333 23.3334 22.8109 23.3334 22.1666V5.83325C23.3334 5.18892 22.811 4.66659 22.1667 4.66659H5.83337ZM2.33337 5.83325C2.33337 3.90026 3.90038 2.33325 5.83337 2.33325H22.1667C24.0997 2.33325 25.6667 3.90026 25.6667 5.83325V22.1666C25.6667 24.0996 24.0997 25.6666 22.1667 25.6666H5.83337C3.90038 25.6666 2.33337 24.0996 2.33337 22.1666V5.83325Z" fill="black"/>
<path d="M14 18.8853C13.2572 18.8853 12.6055 18.7623 12.045 18.5162C11.489 18.2655 11.0492 17.9192 10.7256 17.4771C10.4021 17.0305 10.2152 16.5133 10.1651 15.9254L10.1582 15.8365H12.1338L12.1407 15.9117C12.1726 16.1669 12.266 16.3948 12.4209 16.5953C12.5804 16.7913 12.7946 16.9462 13.0635 17.0601C13.3324 17.1695 13.6446 17.2242 14 17.2242C14.351 17.2242 14.6563 17.165 14.9161 17.0465C15.1804 16.9234 15.3832 16.7548 15.5245 16.5406C15.6703 16.3264 15.7432 16.0803 15.7432 15.8023V15.7887C15.7432 15.3147 15.5746 14.9524 15.2373 14.7017C14.9047 14.4511 14.4398 14.3258 13.8428 14.3258H12.7149V12.856H13.8155C14.1618 12.856 14.4626 12.7991 14.7178 12.6851C14.973 12.5712 15.1713 12.414 15.3125 12.2135C15.4538 12.0084 15.5245 11.7737 15.5245 11.5094V11.4957C15.5245 11.2222 15.4629 10.9875 15.3399 10.7916C15.2214 10.5911 15.0459 10.4384 14.8135 10.3336C14.5857 10.2242 14.3099 10.1695 13.9864 10.1695C13.6628 10.1695 13.378 10.2242 13.1319 10.3336C12.8858 10.443 12.6898 10.6002 12.544 10.8053C12.3982 11.0058 12.3116 11.2428 12.2842 11.5162L12.2774 11.5777H10.377L10.3838 11.4957C10.434 10.9032 10.6117 10.3905 10.917 9.9576C11.2269 9.5201 11.6416 9.18286 12.1612 8.94588C12.6853 8.70435 13.2937 8.58358 13.9864 8.58358C14.6927 8.58358 15.308 8.69523 15.8321 8.91854C16.3562 9.13729 16.7595 9.44491 17.042 9.84139C17.3291 10.2333 17.4727 10.6936 17.4727 11.2222V11.2359C17.4727 11.6461 17.3816 12.0061 17.1993 12.316C17.017 12.6259 16.7709 12.8811 16.461 13.0816C16.1511 13.2821 15.8025 13.4234 15.4151 13.5055V13.5465C16.1488 13.6148 16.7367 13.8518 17.1788 14.2574C17.6208 14.663 17.8418 15.2008 17.8418 15.8707V15.8844C17.8418 16.4814 17.6801 17.0055 17.3565 17.4566C17.0375 17.9078 16.5909 18.2587 16.0166 18.5094C15.4424 18.76 14.7702 18.8853 14 18.8853Z" fill="black"/>
</svg>
