<svg width="28" height="28" viewBox="0 0 28 28" fill="none" xmlns="http://www.w3.org/2000/svg">
<path fill-rule="evenodd" clip-rule="evenodd" d="M5.83331 4.66659C5.18898 4.66659 4.66665 5.18892 4.66665 5.83325V22.1666C4.66665 22.8109 5.18898 23.3333 5.83331 23.3333H22.1666C22.811 23.3333 23.3333 22.8109 23.3333 22.1666V5.83325C23.3333 5.18892 22.811 4.66659 22.1666 4.66659H5.83331ZM2.33331 5.83325C2.33331 3.90026 3.90032 2.33325 5.83331 2.33325H22.1666C24.0996 2.33325 25.6666 3.90026 25.6666 5.83325V22.1666C25.6666 24.0996 24.0996 25.6666 22.1666 25.6666H5.83331C3.90032 25.6666 2.33331 24.0996 2.33331 22.1666V5.83325Z" fill="black"/>
<path d="M14.7747 16.0974V14.5992H21.2005V16.0974H14.7747ZM17.2357 18.4843V12.2123H18.7339V18.4843H17.2357Z" fill="black"/>
<path d="M9.96678 10.2299C10.4415 10.2299 10.8839 10.3172 11.2941 10.4919C11.708 10.6628 12.0688 10.923 12.3764 11.2724C12.6879 11.618 12.929 12.0585 13.0999 12.594C13.2746 13.1257 13.362 13.7523 13.362 14.4739V14.4853C13.362 15.4043 13.2233 16.1905 12.9461 16.8437C12.6727 17.4969 12.2815 17.9982 11.7726 18.3476C11.2637 18.697 10.658 18.8717 9.95538 18.8717C9.4275 18.8717 8.95088 18.7767 8.52553 18.5868C8.10019 18.3931 7.7489 18.1292 7.47166 17.795C7.19822 17.457 7.01783 17.0734 6.93048 16.6443L6.91909 16.593H8.60529L8.62238 16.6443C8.69074 16.8114 8.78568 16.9614 8.90721 17.0943C9.03253 17.2234 9.18254 17.3241 9.35724 17.3962C9.53194 17.4684 9.72942 17.5045 9.94969 17.5045C10.3485 17.5045 10.6751 17.3867 10.9295 17.1513C11.184 16.912 11.3757 16.5911 11.5049 16.1886C11.634 15.786 11.708 15.336 11.727 14.8385C11.7308 14.7815 11.7327 14.7245 11.7327 14.6676C11.7327 14.6106 11.7327 14.5555 11.7327 14.5024L11.4707 13.1238C11.4707 12.8352 11.4042 12.5769 11.2713 12.349C11.1384 12.1174 10.9599 11.9351 10.7358 11.8022C10.5118 11.6654 10.2592 11.5971 9.97817 11.5971C9.70093 11.5971 9.44839 11.6635 9.22052 11.7965C8.99645 11.9256 8.81606 12.1041 8.67934 12.332C8.54642 12.556 8.47996 12.8086 8.47996 13.0896V13.101C8.47996 13.3896 8.54452 13.646 8.67365 13.87C8.80277 14.0941 8.97936 14.2707 9.20343 14.3998C9.4275 14.5251 9.68195 14.5878 9.96678 14.5878C10.2516 14.5878 10.5061 14.527 10.7301 14.4055C10.958 14.2802 11.1384 14.1074 11.2713 13.8871C11.4042 13.6669 11.4707 13.4162 11.4707 13.1352V13.1238H11.8125V14.6562H11.6131C11.5182 14.865 11.3757 15.0625 11.1859 15.2486C10.9998 15.4309 10.7662 15.579 10.4852 15.693C10.2041 15.8031 9.87373 15.8582 9.49396 15.8582C8.96227 15.8582 8.49515 15.7423 8.09259 15.5107C7.69003 15.2752 7.37672 14.9543 7.15265 14.5479C6.92858 14.1416 6.81655 13.6801 6.81655 13.1637V13.1523C6.81655 12.5902 6.94947 12.0889 7.21531 11.6484C7.48495 11.2078 7.85713 10.8622 8.33185 10.6116C8.80657 10.3571 9.35154 10.2299 9.96678 10.2299Z" fill="black"/>
</svg>
