<svg width="28" height="28" viewBox="0 0 28 28" fill="none" xmlns="http://www.w3.org/2000/svg">
<path fill-rule="evenodd" clip-rule="evenodd" d="M5.83337 4.66659C5.18904 4.66659 4.66671 5.18892 4.66671 5.83325V22.1666C4.66671 22.8109 5.18904 23.3333 5.83337 23.3333H22.1667C22.811 23.3333 23.3334 22.8109 23.3334 22.1666V5.83325C23.3334 5.18892 22.811 4.66659 22.1667 4.66659H5.83337ZM2.33337 5.83325C2.33337 3.90026 3.90038 2.33325 5.83337 2.33325H22.1667C24.0997 2.33325 25.6667 3.90026 25.6667 5.83325V22.1666C25.6667 24.0996 24.0997 25.6666 22.1667 25.6666H5.83337C3.90038 25.6666 2.33337 24.0996 2.33337 22.1666V5.83325Z" fill="black"/>
<path d="M10.4932 18.6666V17.2789L13.6719 14.1412C14.1368 13.6946 14.4968 13.3277 14.752 13.0406C15.0072 12.7489 15.1849 12.496 15.2852 12.2818C15.3855 12.0631 15.4356 11.8375 15.4356 11.6051V11.5846C15.4356 11.302 15.3741 11.0536 15.251 10.8394C15.1325 10.6252 14.9594 10.4589 14.7315 10.3404C14.5036 10.2174 14.2325 10.1558 13.918 10.1558C13.599 10.1558 13.3164 10.2242 13.0704 10.3609C12.8243 10.4931 12.6329 10.6777 12.4961 10.9146C12.3594 11.1471 12.2911 11.4205 12.2911 11.7349V11.7691H10.3838L10.377 11.7349C10.377 11.106 10.5297 10.5523 10.835 10.0738C11.1449 9.5953 11.571 9.2216 12.1133 8.95272C12.6602 8.68384 13.2937 8.5494 14.0137 8.5494C14.6927 8.5494 15.2898 8.67017 15.8047 8.9117C16.3243 9.15324 16.7299 9.4882 17.0215 9.91659C17.3177 10.345 17.4659 10.844 17.4659 11.4137V11.4342C17.4659 11.8079 17.3929 12.1747 17.2471 12.5347C17.1013 12.8902 16.8552 13.2753 16.5088 13.69C16.1625 14.1047 15.6885 14.5901 15.087 15.1461L12.708 17.3678L13.2618 16.4654V17.3678L12.708 17.0055H17.6094V18.6666H10.4932Z" fill="black"/>
</svg>
