<svg width="28" height="28" viewBox="0 0 28 28" fill="none" xmlns="http://www.w3.org/2000/svg">
<path fill-rule="evenodd" clip-rule="evenodd" d="M5.83337 4.66659C5.18904 4.66659 4.66671 5.18892 4.66671 5.83325V22.1666C4.66671 22.8109 5.18904 23.3333 5.83337 23.3333H22.1667C22.811 23.3333 23.3334 22.8109 23.3334 22.1666V5.83325C23.3334 5.18892 22.811 4.66659 22.1667 4.66659H5.83337ZM2.33337 5.83325C2.33337 3.90026 3.90038 2.33325 5.83337 2.33325H22.1667C24.0997 2.33325 25.6667 3.90026 25.6667 5.83325V22.1666C25.6667 24.0996 24.0997 25.6666 22.1667 25.6666H5.83337C3.90038 25.6666 2.33337 24.0996 2.33337 22.1666V5.83325Z" fill="black"/>
<path d="M14.1436 18.9195C13.5694 18.9195 13.0362 18.817 12.544 18.6119C12.0518 18.4068 11.6189 18.0946 11.2452 17.6754C10.876 17.2561 10.5866 16.7275 10.377 16.0894C10.1719 15.4514 10.0694 14.6972 10.0694 13.8267V13.8131C10.0694 12.7148 10.2334 11.7737 10.5616 10.9898C10.8942 10.2014 11.3659 9.59758 11.9766 9.1783C12.5873 8.75903 13.3119 8.5494 14.1504 8.5494C14.7885 8.5494 15.3627 8.66561 15.8731 8.89803C16.3835 9.13045 16.8028 9.44718 17.1309 9.84823C17.4636 10.2493 17.6801 10.7073 17.7803 11.2222L17.794 11.2906H15.7774L15.75 11.2291C15.6726 11.0195 15.5586 10.8394 15.4082 10.689C15.2624 10.5341 15.0847 10.4133 14.875 10.3267C14.6654 10.2402 14.4261 10.1969 14.1573 10.1969C13.6833 10.1969 13.2937 10.3381 12.9883 10.6207C12.683 10.9032 12.4528 11.2861 12.2979 11.7691C12.1475 12.2522 12.0586 12.7922 12.0313 13.3892C12.0267 13.4576 12.0245 13.526 12.0245 13.5943C12.0245 13.6581 12.0245 13.7265 12.0245 13.7994L12.3321 15.4469C12.3321 15.7932 12.4118 16.1054 12.5713 16.3834C12.7308 16.6614 12.9473 16.8824 13.2207 17.0465C13.4942 17.206 13.7972 17.2857 14.1299 17.2857C14.4626 17.2857 14.7634 17.206 15.0323 17.0465C15.3057 16.887 15.5222 16.6728 15.6817 16.4039C15.8457 16.1305 15.9278 15.8251 15.9278 15.4879V15.4742C15.9278 15.1278 15.8503 14.8225 15.6954 14.5582C15.5404 14.2893 15.3285 14.0774 15.0596 13.9224C14.7953 13.7675 14.49 13.69 14.1436 13.69C13.8064 13.69 13.501 13.7652 13.2276 13.9156C12.9541 14.066 12.7354 14.2734 12.5713 14.5377C12.4118 14.7974 12.3321 15.0982 12.3321 15.44V15.4469H11.9219V13.6148H12.1612C12.2842 13.3596 12.4574 13.1226 12.6807 12.9039C12.904 12.6851 13.1843 12.5097 13.5215 12.3775C13.8588 12.2408 14.253 12.1724 14.7041 12.1724C15.3467 12.1724 15.9095 12.3114 16.3926 12.5894C16.8757 12.8674 17.2517 13.2502 17.5205 13.7379C17.7894 14.2255 17.9239 14.7815 17.9239 15.4058V15.4195C17.9239 16.0894 17.7621 16.6887 17.4385 17.2174C17.1195 17.746 16.6752 18.163 16.1055 18.4683C15.5404 18.7691 14.8864 18.9195 14.1436 18.9195Z" fill="black"/>
</svg>
