<svg width="28" height="28" viewBox="0 0 28 28" fill="none" xmlns="http://www.w3.org/2000/svg">
<path fill-rule="evenodd" clip-rule="evenodd" d="M5.83337 4.66665C5.18904 4.66665 4.66671 5.18898 4.66671 5.83331V22.1666C4.66671 22.811 5.18904 23.3333 5.83337 23.3333H22.1667C22.811 23.3333 23.3334 22.811 23.3334 22.1666V5.83331C23.3334 5.18898 22.811 4.66665 22.1667 4.66665H5.83337ZM2.33337 5.83331C2.33337 3.90032 3.90038 2.33331 5.83337 2.33331H22.1667C24.0997 2.33331 25.6667 3.90032 25.6667 5.83331V22.1666C25.6667 24.0996 24.0997 25.6666 22.1667 25.6666H5.83337C3.90038 25.6666 2.33337 24.0996 2.33337 22.1666V5.83331Z" fill="black"/>
<path d="M14.0889 18.9196C13.3871 18.9196 12.7719 18.792 12.2432 18.5368C11.7146 18.2816 11.2953 17.9352 10.9854 17.4977C10.6801 17.0556 10.5069 16.5612 10.4659 16.0143L10.459 15.9186H12.3321L12.3457 15.9665C12.3959 16.208 12.4984 16.429 12.6534 16.6295C12.8129 16.8255 13.0157 16.9827 13.2618 17.1012C13.5079 17.2151 13.7858 17.2721 14.0957 17.2721C14.4512 17.2721 14.7634 17.1946 15.0323 17.0397C15.3011 16.8847 15.5108 16.6728 15.6612 16.404C15.8161 16.1305 15.8936 15.8183 15.8936 15.4674V15.4538C15.8936 15.1028 15.8161 14.7929 15.6612 14.5241C15.5108 14.2552 15.3011 14.0456 15.0323 13.8952C14.7634 13.7448 14.4535 13.6696 14.1026 13.6696C13.8565 13.6696 13.6286 13.706 13.419 13.779C13.2094 13.8473 13.0202 13.9521 12.8516 14.0934C12.7605 14.1663 12.6739 14.2506 12.5918 14.3463C12.5144 14.4375 12.4483 14.5355 12.3936 14.6403H10.6231L11.0811 8.80239H17.2471V10.443H12.6875L12.4414 13.2526H12.5645C12.6967 13.0293 12.8653 12.8379 13.0704 12.6784C13.28 12.5189 13.5192 12.3958 13.7881 12.3092C14.0616 12.2226 14.3555 12.1793 14.67 12.1793C15.2852 12.1793 15.8298 12.3183 16.3038 12.5963C16.7823 12.8743 17.156 13.2571 17.4248 13.7448C17.6983 14.2278 17.835 14.7838 17.835 15.4127V15.4264C17.835 16.1191 17.6755 16.7275 17.3565 17.2516C17.042 17.7757 16.6023 18.1859 16.0372 18.4821C15.4766 18.7737 14.8272 18.9196 14.0889 18.9196Z" fill="black"/>
</svg>
