<svg width="28" height="28" viewBox="0 0 28 28" fill="none" xmlns="http://www.w3.org/2000/svg">
<path fill-rule="evenodd" clip-rule="evenodd" d="M5.83337 4.66665C5.18904 4.66665 4.66671 5.18898 4.66671 5.83331V22.1666C4.66671 22.811 5.18904 23.3333 5.83337 23.3333H22.1667C22.811 23.3333 23.3334 22.811 23.3334 22.1666V5.83331C23.3334 5.18898 22.811 4.66665 22.1667 4.66665H5.83337ZM2.33337 5.83331C2.33337 3.90032 3.90038 2.33331 5.83337 2.33331H22.1667C24.0997 2.33331 25.6667 3.90032 25.6667 5.83331V22.1666C25.6667 24.0996 24.0997 25.6666 22.1667 25.6666H5.83337C3.90038 25.6666 2.33337 24.0996 2.33337 22.1666V5.83331Z" fill="black"/>
<path d="M14.1436 18.9196C13.5694 18.9196 13.0362 18.817 12.544 18.612C12.0518 18.4069 11.6189 18.0947 11.2452 17.6754C10.876 17.2562 10.5866 16.7275 10.377 16.0895C10.1719 15.4515 10.0694 14.6972 10.0694 13.8268V13.8131C10.0694 12.7148 10.2334 11.7737 10.5616 10.9899C10.8942 10.2015 11.3659 9.59764 11.9766 9.17837C12.5873 8.75909 13.3119 8.54946 14.1504 8.54946C14.7885 8.54946 15.3627 8.66567 15.8731 8.89809C16.3835 9.13051 16.8028 9.44725 17.1309 9.84829C17.4636 10.2493 17.6801 10.7073 17.7803 11.2223L17.794 11.2907H15.7774L15.75 11.2291C15.6726 11.0195 15.5586 10.8395 15.4082 10.6891C15.2624 10.5342 15.0847 10.4134 14.875 10.3268C14.6654 10.2402 14.4261 10.1969 14.1573 10.1969C13.6833 10.1969 13.2937 10.3382 12.9883 10.6207C12.683 10.9033 12.4528 11.2861 12.2979 11.7692C12.1475 12.2523 12.0586 12.7923 12.0313 13.3893C12.0267 13.4577 12.0245 13.526 12.0245 13.5944C12.0245 13.6582 12.0245 13.7265 12.0245 13.7995L12.3321 15.4469C12.3321 15.7933 12.4118 16.1054 12.5713 16.3834C12.7308 16.6614 12.9473 16.8825 13.2207 17.0465C13.4942 17.206 13.7972 17.2858 14.1299 17.2858C14.4626 17.2858 14.7634 17.206 15.0323 17.0465C15.3057 16.887 15.5222 16.6728 15.6817 16.404C15.8457 16.1305 15.9278 15.8252 15.9278 15.4879V15.4743C15.9278 15.1279 15.8503 14.8226 15.6954 14.5582C15.5404 14.2894 15.3285 14.0775 15.0596 13.9225C14.7953 13.7676 14.49 13.6901 14.1436 13.6901C13.8064 13.6901 13.501 13.7653 13.2276 13.9157C12.9541 14.0661 12.7354 14.2734 12.5713 14.5377C12.4118 14.7975 12.3321 15.0983 12.3321 15.4401V15.4469H11.9219V13.6149H12.1612C12.2842 13.3597 12.4574 13.1227 12.6807 12.904C12.904 12.6852 13.1843 12.5097 13.5215 12.3776C13.8588 12.2409 14.253 12.1725 14.7041 12.1725C15.3467 12.1725 15.9095 12.3115 16.3926 12.5895C16.8757 12.8675 17.2517 13.2503 17.5205 13.7379C17.7894 14.2256 17.9239 14.7816 17.9239 15.4059V15.4196C17.9239 16.0895 17.7621 16.6888 17.4385 17.2174C17.1195 17.7461 16.6752 18.1631 16.1055 18.4684C15.5404 18.7692 14.8864 18.9196 14.1436 18.9196Z" fill="black"/>
</svg>
