<svg width="28" height="28" viewBox="0 0 28 28" fill="none" xmlns="http://www.w3.org/2000/svg">
<path fill-rule="evenodd" clip-rule="evenodd" d="M5.83331 4.66665C5.18898 4.66665 4.66665 5.18898 4.66665 5.83331V22.1666C4.66665 22.811 5.18898 23.3333 5.83331 23.3333H22.1666C22.811 23.3333 23.3333 22.811 23.3333 22.1666V5.83331C23.3333 5.18898 22.811 4.66665 22.1666 4.66665H5.83331ZM2.33331 5.83331C2.33331 3.90032 3.90032 2.33331 5.83331 2.33331H22.1666C24.0996 2.33331 25.6666 3.90032 25.6666 5.83331V22.1666C25.6666 24.0996 24.0996 25.6666 22.1666 25.6666H5.83331C3.90032 25.6666 2.33331 24.0996 2.33331 22.1666V5.83331Z" fill="black"/>
<path d="M10.4931 18.6666V17.279L13.6719 14.1413C14.1367 13.6946 14.4967 13.3278 14.7519 13.0407C15.0071 12.749 15.1849 12.4961 15.2851 12.2819C15.3854 12.0631 15.4355 11.8375 15.4355 11.6051V11.5846C15.4355 11.3021 15.374 11.0537 15.251 10.8395C15.1325 10.6253 14.9593 10.459 14.7314 10.3405C14.5036 10.2174 14.2324 10.1559 13.9179 10.1559C13.5989 10.1559 13.3164 10.2243 13.0703 10.361C12.8242 10.4931 12.6328 10.6777 12.4961 10.9147C12.3594 11.1471 12.291 11.4206 12.291 11.735V11.7692H10.3838L10.3769 11.735C10.3769 11.1061 10.5296 10.5524 10.8349 10.0739C11.1448 9.59536 11.5709 9.22166 12.1133 8.95278C12.6601 8.6839 13.2936 8.54946 14.0137 8.54946C14.6927 8.54946 15.2897 8.67023 15.8047 8.91176C16.3242 9.1533 16.7298 9.48826 17.0215 9.91665C17.3177 10.345 17.4658 10.8441 17.4658 11.4137V11.4342C17.4658 11.8079 17.3929 12.1748 17.2471 12.5348C17.1012 12.8903 16.8551 13.2754 16.5088 13.6901C16.1624 14.1048 15.6885 14.5901 15.0869 15.1461L12.708 17.3678L13.2617 16.4655V17.3678L12.708 17.0055H17.6094V18.6666H10.4931Z" fill="black"/>
</svg>
