<svg width="28" height="28" viewBox="0 0 28 28" fill="none" xmlns="http://www.w3.org/2000/svg">
<path fill-rule="evenodd" clip-rule="evenodd" d="M5.83331 4.66671C5.18898 4.66671 4.66665 5.18904 4.66665 5.83337V22.1667C4.66665 22.811 5.18898 23.3334 5.83331 23.3334H22.1666C22.811 23.3334 23.3333 22.811 23.3333 22.1667V5.83337C23.3333 5.18904 22.811 4.66671 22.1666 4.66671H5.83331ZM2.33331 5.83337C2.33331 3.90038 3.90032 2.33337 5.83331 2.33337H22.1666C24.0996 2.33337 25.6666 3.90038 25.6666 5.83337V22.1667C25.6666 24.0997 24.0996 25.6667 22.1666 25.6667H5.83331C3.90032 25.6667 2.33331 24.0997 2.33331 22.1667V5.83337Z" fill="black"/>
<path d="M14.7747 16.0975V14.5993H21.2005V16.0975H14.7747ZM17.2357 18.4844V12.2124H18.7339V18.4844H17.2357Z" fill="black"/>
<path d="M9.96678 10.23C10.4415 10.23 10.8839 10.3174 11.2941 10.4921C11.708 10.663 12.0688 10.9231 12.3764 11.2725C12.6879 11.6181 12.929 12.0586 13.0999 12.5941C13.2746 13.1258 13.362 13.7524 13.362 14.474V14.4854C13.362 15.4044 13.2233 16.1906 12.9461 16.8438C12.6727 17.497 12.2815 17.9983 11.7726 18.3477C11.2637 18.6971 10.658 18.8718 9.95538 18.8718C9.4275 18.8718 8.95088 18.7768 8.52553 18.587C8.10019 18.3933 7.7489 18.1293 7.47166 17.7951C7.19822 17.4571 7.01783 17.0736 6.93048 16.6444L6.91909 16.5931H8.60529L8.62238 16.6444C8.69074 16.8115 8.78568 16.9615 8.90721 17.0944C9.03253 17.2236 9.18254 17.3242 9.35724 17.3964C9.53194 17.4685 9.72942 17.5046 9.94969 17.5046C10.3485 17.5046 10.6751 17.3869 10.9295 17.1514C11.184 16.9122 11.3757 16.5912 11.5049 16.1887C11.634 15.7861 11.708 15.3361 11.727 14.8386C11.7308 14.7816 11.7327 14.7247 11.7327 14.6677C11.7327 14.6107 11.7327 14.5557 11.7327 14.5025L11.4707 13.1239C11.4707 12.8353 11.4042 12.577 11.2713 12.3492C11.1384 12.1175 10.9599 11.9352 10.7358 11.8023C10.5118 11.6656 10.2592 11.5972 9.97817 11.5972C9.70093 11.5972 9.44839 11.6637 9.22052 11.7966C8.99645 11.9257 8.81606 12.1042 8.67934 12.3321C8.54642 12.5561 8.47996 12.8087 8.47996 13.0897V13.1011C8.47996 13.3897 8.54452 13.6461 8.67365 13.8702C8.80277 14.0942 8.97936 14.2708 9.20343 14.3999C9.4275 14.5253 9.68195 14.5879 9.96678 14.5879C10.2516 14.5879 10.5061 14.5272 10.7301 14.4056C10.958 14.2803 11.1384 14.1075 11.2713 13.8872C11.4042 13.667 11.4707 13.4163 11.4707 13.1353V13.1239H11.8125V14.6563H11.6131C11.5182 14.8652 11.3757 15.0626 11.1859 15.2487C10.9998 15.431 10.7662 15.5791 10.4852 15.6931C10.2041 15.8032 9.87373 15.8583 9.49396 15.8583C8.96227 15.8583 8.49515 15.7424 8.09259 15.5108C7.69003 15.2753 7.37672 14.9544 7.15265 14.5481C6.92858 14.1417 6.81655 13.6803 6.81655 13.1638V13.1524C6.81655 12.5903 6.94947 12.089 7.21531 11.6485C7.48495 11.2079 7.85713 10.8623 8.33185 10.6117C8.80657 10.3572 9.35154 10.23 9.96678 10.23Z" fill="black"/>
</svg>
