<svg width="28" height="28" viewBox="0 0 28 28" fill="none" xmlns="http://www.w3.org/2000/svg">
<path fill-rule="evenodd" clip-rule="evenodd" d="M5.83337 4.66665C5.18904 4.66665 4.66671 5.18898 4.66671 5.83331V22.1666C4.66671 22.811 5.18904 23.3333 5.83337 23.3333H22.1667C22.811 23.3333 23.3334 22.811 23.3334 22.1666V5.83331C23.3334 5.18898 22.811 4.66665 22.1667 4.66665H5.83337ZM2.33337 5.83331C2.33337 3.90032 3.90038 2.33331 5.83337 2.33331H22.1667C24.0997 2.33331 25.6667 3.90032 25.6667 5.83331V22.1666C25.6667 24.0996 24.0997 25.6666 22.1667 25.6666H5.83337C3.90038 25.6666 2.33337 24.0996 2.33337 22.1666V5.83331Z" fill="black"/>
<path d="M14.7588 18.6666V16.8551H9.92582V15.235C10.1765 14.7884 10.4294 14.3463 10.6846 13.9088C10.9398 13.4668 11.1973 13.0293 11.4571 12.5963C11.7214 12.1588 11.9834 11.7282 12.2432 11.3043C12.5075 10.876 12.7719 10.4544 13.0362 10.0397C13.3005 9.62042 13.5648 9.20799 13.8291 8.80239H16.7276V15.2008H18.0127V16.8551H16.7276V18.6666H14.7588ZM11.7852 15.2555H14.7998V10.3678H14.6905C14.4991 10.664 14.3031 10.9671 14.1026 11.277C13.9066 11.5869 13.7084 11.9036 13.5079 12.2272C13.3119 12.5508 13.1136 12.8766 12.9131 13.2047C12.7172 13.5283 12.5235 13.8541 12.3321 14.1823C12.1452 14.5058 11.9629 14.8271 11.7852 15.1461V15.2555Z" fill="black"/>
</svg>
