<svg width="28" height="28" viewBox="0 0 28 28" fill="none" xmlns="http://www.w3.org/2000/svg">
<path fill-rule="evenodd" clip-rule="evenodd" d="M5.83331 4.66659C5.18898 4.66659 4.66665 5.18892 4.66665 5.83325V22.1666C4.66665 22.8109 5.18898 23.3333 5.83331 23.3333H22.1666C22.811 23.3333 23.3333 22.8109 23.3333 22.1666V5.83325C23.3333 5.18892 22.811 4.66659 22.1666 4.66659H5.83331ZM2.33331 5.83325C2.33331 3.90026 3.90032 2.33325 5.83331 2.33325H22.1666C24.0996 2.33325 25.6666 3.90026 25.6666 5.83325V22.1666C25.6666 24.0996 24.0996 25.6666 22.1666 25.6666H5.83331C3.90032 25.6666 2.33331 24.0996 2.33331 22.1666V5.83325Z" fill="black"/>
<path d="M13.8633 8.54256C14.4329 8.54256 14.9638 8.64738 15.456 8.85702C15.9528 9.06209 16.3857 9.37427 16.7549 9.79354C17.1286 10.2083 17.4179 10.7369 17.623 11.3795C17.8327 12.0175 17.9375 12.7695 17.9375 13.6353V13.649C17.9375 14.7519 17.7711 15.6952 17.4385 16.4791C17.1103 17.2629 16.6409 17.8645 16.0303 18.2838C15.4196 18.703 14.6927 18.9127 13.8496 18.9127C13.2161 18.9127 12.6442 18.7987 12.1338 18.5709C11.6234 18.3385 11.2018 18.0217 10.8691 17.6207C10.541 17.2151 10.3245 16.7548 10.2197 16.2398L10.206 16.1783H12.2295L12.25 16.2398C12.332 16.4403 12.4459 16.6204 12.5918 16.7799C12.7422 16.9348 12.9222 17.0556 13.1318 17.1422C13.3415 17.2288 13.5784 17.2721 13.8428 17.2721C14.3213 17.2721 14.7132 17.1308 15.0185 16.8482C15.3239 16.5611 15.554 16.176 15.709 15.693C15.8639 15.2099 15.9528 14.6698 15.9756 14.0728C15.9801 14.0045 15.9824 13.9361 15.9824 13.8678C15.9824 13.7994 15.9824 13.7333 15.9824 13.6695L15.6679 12.0152C15.6679 11.6689 15.5882 11.359 15.4287 11.0855C15.2692 10.8075 15.055 10.5888 14.7861 10.4293C14.5172 10.2652 14.2142 10.1832 13.8769 10.1832C13.5443 10.1832 13.2412 10.2629 12.9678 10.4224C12.6989 10.5774 12.4824 10.7916 12.3183 11.065C12.1588 11.3339 12.0791 11.637 12.0791 11.9742V11.9879C12.0791 12.3342 12.1566 12.6418 12.3115 12.9107C12.4665 13.1796 12.6784 13.3915 12.9472 13.5465C13.2161 13.6969 13.5215 13.7721 13.8633 13.7721C14.2051 13.7721 14.5104 13.6991 14.7793 13.5533C15.0527 13.4029 15.2692 13.1956 15.4287 12.9312C15.5882 12.6669 15.6679 12.3661 15.6679 12.0289V12.0152H16.0781V13.8541H15.8388C15.7249 14.1047 15.554 14.3417 15.3262 14.565C15.1028 14.7838 14.8226 14.9615 14.4853 15.0982C14.1481 15.2304 13.7516 15.2965 13.2959 15.2965C12.6579 15.2965 12.0973 15.1575 11.6142 14.8795C11.1312 14.5969 10.7552 14.2118 10.4863 13.7242C10.2174 13.2366 10.083 12.6829 10.083 12.0631V12.0494C10.083 11.3749 10.2425 10.7734 10.5615 10.2447C10.8851 9.71606 11.3317 9.30135 11.9013 9.00057C12.471 8.69523 13.125 8.54256 13.8633 8.54256Z" fill="black"/>
</svg>
