<svg width="28" height="28" viewBox="0 0 28 28" fill="none" xmlns="http://www.w3.org/2000/svg">
<path fill-rule="evenodd" clip-rule="evenodd" d="M5.83337 4.66659C5.18904 4.66659 4.66671 5.18892 4.66671 5.83325V22.1666C4.66671 22.8109 5.18904 23.3333 5.83337 23.3333H22.1667C22.811 23.3333 23.3334 22.8109 23.3334 22.1666V5.83325C23.3334 5.18892 22.811 4.66659 22.1667 4.66659H5.83337ZM2.33337 5.83325C2.33337 3.90026 3.90038 2.33325 5.83337 2.33325H22.1667C24.0997 2.33325 25.6667 3.90026 25.6667 5.83325V22.1666C25.6667 24.0996 24.0997 25.6666 22.1667 25.6666H5.83337C3.90038 25.6666 2.33337 24.0996 2.33337 22.1666V5.83325Z" fill="black"/>
<path d="M13.8291 18.6666V10.7506H13.7061L11.2862 12.4322V10.5728L13.836 8.80233H15.8936V18.6666H13.8291Z" fill="black"/>
</svg>
