<svg width="28" height="28" viewBox="0 0 28 28" fill="none" xmlns="http://www.w3.org/2000/svg">
<path fill-rule="evenodd" clip-rule="evenodd" d="M5.83331 4.66659C5.18898 4.66659 4.66665 5.18892 4.66665 5.83325V22.1666C4.66665 22.8109 5.18898 23.3333 5.83331 23.3333H22.1666C22.811 23.3333 23.3333 22.8109 23.3333 22.1666V5.83325C23.3333 5.18892 22.811 4.66659 22.1666 4.66659H5.83331ZM2.33331 5.83325C2.33331 3.90026 3.90032 2.33325 5.83331 2.33325H22.1666C24.0996 2.33325 25.6666 3.90026 25.6666 5.83325V22.1666C25.6666 24.0996 24.0996 25.6666 22.1666 25.6666H5.83331C3.90032 25.6666 2.33331 24.0996 2.33331 22.1666V5.83325Z" fill="black"/>
<path d="M14 18.9195C13.1888 18.9195 12.4892 18.7099 11.9013 18.2906C11.318 17.8668 10.8691 17.2675 10.5547 16.4928C10.2402 15.718 10.083 14.7997 10.083 13.7379V13.7242C10.083 12.6578 10.2402 11.7395 10.5547 10.9693C10.8691 10.1946 11.318 9.59758 11.9013 9.1783C12.4892 8.75903 13.1888 8.5494 14 8.5494C14.8157 8.5494 15.5153 8.75903 16.0986 9.1783C16.6819 9.59758 17.1308 10.1946 17.4453 10.9693C17.7597 11.7395 17.917 12.6578 17.917 13.7242V13.7379C17.917 14.7997 17.7597 15.718 17.4453 16.4928C17.1308 17.2675 16.6819 17.8668 16.0986 18.2906C15.5153 18.7099 14.8157 18.9195 14 18.9195ZM14 17.2857C14.3919 17.2857 14.7223 17.1445 14.9912 16.8619C15.2646 16.5793 15.472 16.1737 15.6133 15.6451C15.7591 15.1165 15.832 14.4807 15.832 13.7379V13.7242C15.832 12.9768 15.7591 12.3411 15.6133 11.817C15.472 11.2883 15.2646 10.885 14.9912 10.607C14.7223 10.3245 14.3919 10.1832 14 10.1832C13.6126 10.1832 13.2822 10.3245 13.0088 10.607C12.7399 10.885 12.5325 11.2883 12.3867 11.817C12.2454 12.3411 12.1748 12.9768 12.1748 13.7242V13.7379C12.1748 14.4807 12.2454 15.1165 12.3867 15.6451C12.5325 16.1737 12.7399 16.5793 13.0088 16.8619C13.2822 17.1445 13.6126 17.2857 14 17.2857Z" fill="black"/>
</svg>
