<svg width="28" height="28" viewBox="0 0 28 28" fill="none" xmlns="http://www.w3.org/2000/svg">
<path fill-rule="evenodd" clip-rule="evenodd" d="M5.83331 4.66659C5.18898 4.66659 4.66665 5.18892 4.66665 5.83325V22.1666C4.66665 22.8109 5.18898 23.3333 5.83331 23.3333H22.1666C22.811 23.3333 23.3333 22.8109 23.3333 22.1666V5.83325C23.3333 5.18892 22.811 4.66659 22.1666 4.66659H5.83331ZM2.33331 5.83325C2.33331 3.90026 3.90032 2.33325 5.83331 2.33325H22.1666C24.0996 2.33325 25.6666 3.90026 25.6666 5.83325V22.1666C25.6666 24.0996 24.0996 25.6666 22.1666 25.6666H5.83331C3.90032 25.6666 2.33331 24.0996 2.33331 22.1666V5.83325Z" fill="black"/>
<path d="M13.8291 18.6666V10.7506H13.706L11.2861 12.4322V10.5728L13.8359 8.80233H15.8935V18.6666H13.8291Z" fill="black"/>
</svg>
