<svg width="28" height="28" viewBox="0 0 28 28" fill="none" xmlns="http://www.w3.org/2000/svg">
<path fill-rule="evenodd" clip-rule="evenodd" d="M5.83331 4.66659C5.18898 4.66659 4.66665 5.18892 4.66665 5.83325V22.1666C4.66665 22.8109 5.18898 23.3333 5.83331 23.3333H22.1666C22.811 23.3333 23.3333 22.8109 23.3333 22.1666V5.83325C23.3333 5.18892 22.811 4.66659 22.1666 4.66659H5.83331ZM2.33331 5.83325C2.33331 3.90026 3.90032 2.33325 5.83331 2.33325H22.1666C24.0996 2.33325 25.6666 3.90026 25.6666 5.83325V22.1666C25.6666 24.0996 24.0996 25.6666 22.1666 25.6666H5.83331C3.90032 25.6666 2.33331 24.0996 2.33331 22.1666V5.83325Z" fill="black"/>
<path d="M10.4931 18.6666V17.2789L13.6719 14.1412C14.1367 13.6946 14.4967 13.3277 14.7519 13.0406C15.0071 12.7489 15.1849 12.496 15.2851 12.2818C15.3854 12.0631 15.4355 11.8375 15.4355 11.6051V11.5846C15.4355 11.302 15.374 11.0536 15.251 10.8394C15.1325 10.6252 14.9593 10.4589 14.7314 10.3404C14.5036 10.2174 14.2324 10.1558 13.9179 10.1558C13.5989 10.1558 13.3164 10.2242 13.0703 10.3609C12.8242 10.4931 12.6328 10.6777 12.4961 10.9146C12.3594 11.1471 12.291 11.4205 12.291 11.7349V11.7691H10.3838L10.3769 11.7349C10.3769 11.106 10.5296 10.5523 10.8349 10.0738C11.1448 9.5953 11.5709 9.2216 12.1133 8.95272C12.6601 8.68384 13.2936 8.5494 14.0137 8.5494C14.6927 8.5494 15.2897 8.67017 15.8047 8.9117C16.3242 9.15324 16.7298 9.4882 17.0215 9.91659C17.3177 10.345 17.4658 10.844 17.4658 11.4137V11.4342C17.4658 11.8079 17.3929 12.1747 17.2471 12.5347C17.1012 12.8902 16.8551 13.2753 16.5088 13.69C16.1624 14.1047 15.6885 14.5901 15.0869 15.1461L12.708 17.3678L13.2617 16.4654V17.3678L12.708 17.0055H17.6094V18.6666H10.4931Z" fill="black"/>
</svg>
