<svg width="28" height="28" viewBox="0 0 28 28" fill="none" xmlns="http://www.w3.org/2000/svg">
<path fill-rule="evenodd" clip-rule="evenodd" d="M5.83337 4.66659C5.18904 4.66659 4.66671 5.18892 4.66671 5.83325V22.1666C4.66671 22.8109 5.18904 23.3333 5.83337 23.3333H22.1667C22.811 23.3333 23.3334 22.8109 23.3334 22.1666V5.83325C23.3334 5.18892 22.811 4.66659 22.1667 4.66659H5.83337ZM2.33337 5.83325C2.33337 3.90026 3.90038 2.33325 5.83337 2.33325H22.1667C24.0997 2.33325 25.6667 3.90026 25.6667 5.83325V22.1666C25.6667 24.0996 24.0997 25.6666 22.1667 25.6666H5.83337C3.90038 25.6666 2.33337 24.0996 2.33337 22.1666V5.83325Z" fill="black"/>
<path d="M14.7588 18.6666V16.8551H9.92582V15.2349C10.1765 14.7883 10.4294 14.3463 10.6846 13.9088C10.9398 13.4667 11.1973 13.0292 11.4571 12.5963C11.7214 12.1588 11.9834 11.7281 12.2432 11.3043C12.5075 10.8759 12.7719 10.4543 13.0362 10.0396C13.3005 9.62036 13.5648 9.20793 13.8291 8.80233H16.7276V15.2008H18.0127V16.8551H16.7276V18.6666H14.7588ZM11.7852 15.2555H14.7998V10.3678H14.6905C14.4991 10.664 14.3031 10.967 14.1026 11.2769C13.9066 11.5868 13.7084 11.9036 13.5079 12.2271C13.3119 12.5507 13.1136 12.8765 12.9131 13.2047C12.7172 13.5282 12.5235 13.8541 12.3321 14.1822C12.1452 14.5058 11.9629 14.8271 11.7852 15.1461V15.2555Z" fill="black"/>
</svg>
