<svg width="28" height="28" viewBox="0 0 28 28" fill="none" xmlns="http://www.w3.org/2000/svg">
<path fill-rule="evenodd" clip-rule="evenodd" d="M5.83337 4.66659C5.18904 4.66659 4.66671 5.18892 4.66671 5.83325V22.1666C4.66671 22.8109 5.18904 23.3333 5.83337 23.3333H22.1667C22.811 23.3333 23.3334 22.8109 23.3334 22.1666V5.83325C23.3334 5.18892 22.811 4.66659 22.1667 4.66659H5.83337ZM2.33337 5.83325C2.33337 3.90026 3.90038 2.33325 5.83337 2.33325H22.1667C24.0997 2.33325 25.6667 3.90026 25.6667 5.83325V22.1666C25.6667 24.0996 24.0997 25.6666 22.1667 25.6666H5.83337C3.90038 25.6666 2.33337 24.0996 2.33337 22.1666V5.83325Z" fill="black"/>
<path d="M14.0889 18.9195C13.3871 18.9195 12.7719 18.7919 12.2432 18.5367C11.7146 18.2815 11.2953 17.9351 10.9854 17.4976C10.6801 17.0556 10.5069 16.5611 10.4659 16.0142L10.459 15.9185H12.3321L12.3457 15.9664C12.3959 16.2079 12.4984 16.429 12.6534 16.6295C12.8129 16.8254 13.0157 16.9827 13.2618 17.1012C13.5079 17.2151 13.7858 17.2721 14.0957 17.2721C14.4512 17.2721 14.7634 17.1946 15.0323 17.0396C15.3011 16.8847 15.5108 16.6728 15.6612 16.4039C15.8161 16.1305 15.8936 15.8183 15.8936 15.4674V15.4537C15.8936 15.1028 15.8161 14.7929 15.6612 14.524C15.5108 14.2551 15.3011 14.0455 15.0323 13.8951C14.7634 13.7447 14.4535 13.6695 14.1026 13.6695C13.8565 13.6695 13.6286 13.706 13.419 13.7789C13.2094 13.8472 13.0202 13.9521 12.8516 14.0933C12.7605 14.1663 12.6739 14.2506 12.5918 14.3463C12.5144 14.4374 12.4483 14.5354 12.3936 14.6402H10.6231L11.0811 8.80233H17.2471V10.443H12.6875L12.4414 13.2525H12.5645C12.6967 13.0292 12.8653 12.8378 13.0704 12.6783C13.28 12.5188 13.5192 12.3958 13.7881 12.3092C14.0616 12.2226 14.3555 12.1793 14.67 12.1793C15.2852 12.1793 15.8298 12.3183 16.3038 12.5963C16.7823 12.8743 17.156 13.2571 17.4248 13.7447C17.6983 14.2278 17.835 14.7838 17.835 15.4127V15.4264C17.835 16.1191 17.6755 16.7275 17.3565 17.2515C17.042 17.7756 16.6023 18.1858 16.0372 18.482C15.4766 18.7737 14.8272 18.9195 14.0889 18.9195Z" fill="black"/>
</svg>
