<svg width="28" height="28" viewBox="0 0 28 28" fill="none" xmlns="http://www.w3.org/2000/svg">
<path fill-rule="evenodd" clip-rule="evenodd" d="M5.83334 4.66671C5.18901 4.66671 4.66668 5.18904 4.66668 5.83337V22.1667C4.66668 22.811 5.18901 23.3334 5.83334 23.3334H22.1667C22.811 23.3334 23.3333 22.811 23.3333 22.1667V5.83337C23.3333 5.18904 22.811 4.66671 22.1667 4.66671H5.83334ZM2.33334 5.83337C2.33334 3.90038 3.90035 2.33337 5.83334 2.33337H22.1667C24.0997 2.33337 25.6667 3.90038 25.6667 5.83337V22.1667C25.6667 24.0997 24.0997 25.6667 22.1667 25.6667H5.83334C3.90035 25.6667 2.33334 24.0997 2.33334 22.1667V5.83337Z" fill="black"/>
<path d="M14 18.8855C13.207 18.8855 12.5098 18.7647 11.9082 18.5232C11.3067 18.2771 10.8373 17.9375 10.5 17.5046C10.1628 17.0671 9.99415 16.5635 9.99415 15.9939V15.9802C9.99415 15.5518 10.0921 15.1644 10.2881 14.8181C10.4886 14.4717 10.7621 14.1846 11.1084 13.9567C11.4548 13.7243 11.8512 13.5648 12.2979 13.4782V13.4372C11.7191 13.2959 11.2497 13.0316 10.8897 12.6442C10.5342 12.2523 10.3565 11.7875 10.3565 11.2497V11.236C10.3565 10.7256 10.5114 10.2722 10.8213 9.87569C11.1312 9.47465 11.5596 9.1602 12.1065 8.93233C12.6533 8.69991 13.2845 8.5837 14 8.5837C14.7155 8.5837 15.3467 8.69991 15.8936 8.93233C16.4404 9.1602 16.8688 9.47465 17.1787 9.87569C17.4886 10.2722 17.6436 10.7256 17.6436 11.236V11.2497C17.6436 11.7875 17.4636 12.2523 17.1035 12.6442C16.7435 13.0316 16.2764 13.2959 15.7022 13.4372V13.4782C16.1488 13.5648 16.5453 13.7243 16.8916 13.9567C17.238 14.1846 17.5091 14.4717 17.7051 14.8181C17.9056 15.1644 18.0059 15.5518 18.0059 15.9802V15.9939C18.0059 16.5635 17.8373 17.0671 17.5 17.5046C17.1628 17.9375 16.6911 18.2771 16.085 18.5232C15.4834 18.7647 14.7884 18.8855 14 18.8855ZM14 17.3816C14.36 17.3816 14.679 17.3177 14.957 17.1901C15.235 17.058 15.4515 16.878 15.6065 16.6501C15.766 16.4177 15.8457 16.1534 15.8457 15.8571V15.8435C15.8457 15.5472 15.7682 15.2852 15.6133 15.0573C15.4583 14.8249 15.2419 14.6426 14.9639 14.5105C14.6859 14.3783 14.3646 14.3122 14 14.3122C13.6354 14.3122 13.3141 14.3783 13.0361 14.5105C12.7581 14.6426 12.5394 14.8249 12.3799 15.0573C12.2249 15.2852 12.1475 15.5472 12.1475 15.8435V15.8571C12.1475 16.1534 12.2272 16.4177 12.3867 16.6501C12.5462 16.878 12.765 17.058 13.043 17.1901C13.321 17.3177 13.64 17.3816 14 17.3816ZM14 12.8151C14.3145 12.8151 14.5925 12.7582 14.834 12.6442C15.0755 12.5258 15.2624 12.364 15.3945 12.1589C15.5313 11.9538 15.5996 11.7168 15.5996 11.448V11.4343C15.5996 11.1654 15.5313 10.9284 15.3945 10.7233C15.2578 10.5183 15.0687 10.3588 14.8272 10.2448C14.5902 10.1309 14.3145 10.0739 14 10.0739C13.6856 10.0739 13.4076 10.1309 13.166 10.2448C12.9245 10.3588 12.7354 10.5183 12.5986 10.7233C12.4619 10.9284 12.3936 11.1654 12.3936 11.4343V11.448C12.3936 11.7168 12.4619 11.9538 12.5986 12.1589C12.7354 12.364 12.9245 12.5258 13.166 12.6442C13.4076 12.7582 13.6856 12.8151 14 12.8151Z" fill="black"/>
</svg>
