<svg width="28" height="28" viewBox="0 0 28 28" fill="none" xmlns="http://www.w3.org/2000/svg">
<path d="M23.3333 5.83333H20.125V12.25C20.125 12.894 19.6035 13.4167 18.9583 13.4167C18.3132 13.4167 17.7917 12.894 17.7917 12.25V5.83333H14.5833C13.9393 5.83333 13.4167 5.31183 13.4167 4.66667C13.4167 4.0215 13.9393 3.5 14.5833 3.5H23.3333C23.9773 3.5 24.5 4.0215 24.5 4.66667C24.5 5.31183 23.9773 5.83333 23.3333 5.83333Z" fill="black"/>
<path d="M9.91667 5.83333H4.66667C4.0215 5.83333 3.5 5.31067 3.5 4.66667C3.5 4.02267 4.0215 3.5 4.66667 3.5H9.91667C10.5618 3.5 11.0833 4.02267 11.0833 4.66667C11.0833 5.31067 10.5618 5.83333 9.91667 5.83333Z" fill="black"/>
<path d="M4.66667 15.9448H23.3333C23.9785 15.9448 24.5 16.4663 24.5 17.1115C24.5 17.7567 23.9785 18.2782 23.3333 18.2782H4.66667C4.0215 18.2782 3.5 17.7567 3.5 17.1115C3.5 16.4663 4.0215 15.9448 4.66667 15.9448Z" fill="black"/>
<path d="M4.66667 22.1667H23.3333C23.9785 22.1667 24.5 22.6882 24.5 23.3333C24.5 23.9785 23.9785 24.5 23.3333 24.5H4.66667C4.0215 24.5 3.5 23.9785 3.5 23.3333C3.5 22.6882 4.0215 22.1667 4.66667 22.1667Z" fill="black"/>
<path d="M4.66667 9.72183H9.91667C10.5618 9.72183 11.0833 10.2445 11.0833 10.8885C11.0833 11.5325 10.5618 12.0552 9.91667 12.0552H4.66667C4.0215 12.0552 3.5 11.5325 3.5 10.8885C3.5 10.2445 4.0215 9.72183 4.66667 9.72183Z" fill="black"/>
</svg>
