<svg width="28" height="28" viewBox="0 0 28 28" fill="none" xmlns="http://www.w3.org/2000/svg">
<path d="M4.66667 5.83333H7.875V12.25C7.875 12.894 8.3965 13.4167 9.04167 13.4167C9.68683 13.4167 10.2083 12.894 10.2083 12.25V5.83333H13.4167C14.0607 5.83333 14.5833 5.31183 14.5833 4.66667C14.5833 4.0215 14.0607 3.5 13.4167 3.5H4.66667C4.02267 3.5 3.5 4.0215 3.5 4.66667C3.5 5.31183 4.02267 5.83333 4.66667 5.83333Z" fill="black"/>
<path d="M18.0833 5.83333H23.3333C23.9785 5.83333 24.5 5.31067 24.5 4.66667C24.5 4.02267 23.9785 3.5 23.3333 3.5H18.0833C17.4382 3.5 16.9167 4.02267 16.9167 4.66667C16.9167 5.31067 17.4382 5.83333 18.0833 5.83333Z" fill="black"/>
<path d="M23.3333 15.9448H4.66667C4.0215 15.9448 3.5 16.4663 3.5 17.1115C3.5 17.7567 4.0215 18.2782 4.66667 18.2782H23.3333C23.9785 18.2782 24.5 17.7567 24.5 17.1115C24.5 16.4663 23.9785 15.9448 23.3333 15.9448Z" fill="black"/>
<path d="M23.3333 22.1667H4.66667C4.0215 22.1667 3.5 22.6882 3.5 23.3333C3.5 23.9785 4.0215 24.5 4.66667 24.5H23.3333C23.9785 24.5 24.5 23.9785 24.5 23.3333C24.5 22.6882 23.9785 22.1667 23.3333 22.1667Z" fill="black"/>
<path d="M23.3333 9.72183H18.0833C17.4382 9.72183 16.9167 10.2445 16.9167 10.8885C16.9167 11.5325 17.4382 12.0552 18.0833 12.0552H23.3333C23.9785 12.0552 24.5 11.5325 24.5 10.8885C24.5 10.2445 23.9785 9.72183 23.3333 9.72183Z" fill="black"/>
</svg>
