<svg width="28" height="28" viewBox="0 0 28 28" fill="none" xmlns="http://www.w3.org/2000/svg">
<path fill-rule="evenodd" clip-rule="evenodd" d="M12.0006 4.19284C12.1878 3.77152 12.6056 3.5 13.0667 3.5C15.2574 3.5 17.0333 5.27594 17.0333 7.46667V10.0333H21.1435C22.0307 10.0254 22.8771 10.4064 23.4594 11.0761C24.0434 11.7477 24.303 12.6419 24.1695 13.5217L22.8815 21.9216C22.8814 21.9219 22.8815 21.9212 22.8815 21.9216C22.6546 23.4142 21.3645 24.5135 19.8554 24.5H6.53333C6.53332 24.5 6.53335 24.5 6.53333 24.5C4.85809 24.5 3.5 23.1419 3.5 21.4667V14.9333C3.5 13.2581 4.85807 11.9 6.53333 11.9H8.57515L12.0006 4.19284ZM8.16667 14.2333H6.53333C6.14673 14.2333 5.83333 14.5467 5.83333 14.9333V21.4667C5.83333 21.8533 6.14673 22.1667 6.53333 22.1667L8.16667 22.1667V14.2333ZM10.5 22.1668L19.8745 22.1667C20.2236 22.1706 20.5222 21.9169 20.5745 21.5717L21.8625 13.1716C21.8625 13.1719 21.8626 13.1713 21.8625 13.1716C21.893 12.9688 21.8333 12.762 21.6987 12.6072C21.5639 12.4522 21.3679 12.3643 21.1625 12.3666L21.1493 12.3667L15.8667 12.3667C15.2223 12.3667 14.7 11.8443 14.7 11.2V7.46667C14.7 6.81132 14.314 6.24611 13.757 5.98597L10.5 13.3142V22.1668Z" fill="black"/>
</svg>
