<svg width="28" height="28" viewBox="0 0 28 28" fill="none" xmlns="http://www.w3.org/2000/svg">
<path d="M13.0667 24.5C12.841 24.4985 12.6205 24.4316 12.4321 24.3074C12.2436 24.1831 12.0953 24.0069 12.005 23.8L8.575 16.1H6.53333C5.73073 16.0939 4.96273 15.7724 4.39519 15.2048C3.82765 14.6373 3.5061 13.8693 3.5 13.0667V6.53333C3.50307 5.72979 3.82364 4.96003 4.39184 4.39184C4.96003 3.82364 5.72979 3.50307 6.53333 3.5H20.195C20.9185 3.50295 21.6172 3.76441 22.1648 4.23721C22.7125 4.71001 23.0731 5.363 23.1817 6.07833L24.465 14.4783C24.5306 14.913 24.5021 15.3567 24.3813 15.7794C24.2606 16.2021 24.0504 16.5939 23.765 16.9283C23.4739 17.2594 23.1147 17.5236 22.712 17.7029C22.3092 17.8821 21.8725 17.9721 21.4317 17.9667H17.0333V20.5333C17.0364 21.0551 16.9359 21.5723 16.7377 22.055C16.5394 22.5376 16.2474 22.9761 15.8784 23.3451C15.5095 23.7141 15.071 24.0061 14.5883 24.2044C14.1056 24.4026 13.5884 24.5031 13.0667 24.5ZM10.5 14.6883L13.7667 22.015C14.0468 21.8821 14.2834 21.6722 14.4487 21.4098C14.614 21.1474 14.7011 20.8434 14.7 20.5333V16.8C14.7 16.4906 14.8229 16.1938 15.0417 15.975C15.2605 15.7562 15.5572 15.6333 15.8667 15.6333H21.4433C21.5367 15.6217 21.665 15.61 21.7583 15.575C21.8968 15.5108 22.0105 15.4031 22.0821 15.2683C22.1537 15.1335 22.1793 14.979 22.155 14.8283L20.8717 6.42833C20.8464 6.26142 20.7616 6.10927 20.6329 5.99993C20.5043 5.89059 20.3405 5.83142 20.1717 5.83333H10.5V14.6883ZM6.53333 5.83333C6.34768 5.83333 6.16963 5.90708 6.03836 6.03836C5.90708 6.16963 5.83333 6.34768 5.83333 6.53333V13.0667C5.83333 13.2533 5.90333 13.4283 6.04333 13.5683C6.17447 13.6959 6.35036 13.7671 6.53333 13.7667H8.16667V5.83333H6.53333Z" fill="black"/>
</svg>
