<svg width="28" height="28" viewBox="0 0 28 28" fill="none" xmlns="http://www.w3.org/2000/svg">
<path d="M7 3.5H6.53333C5.72979 3.50307 4.96003 3.82364 4.39184 4.39184C3.82364 4.96003 3.50307 5.72979 3.5 6.53333V13.0667C3.50307 13.8702 3.82364 14.64 4.39184 15.2082C4.96003 15.7764 5.72979 16.0969 6.53333 16.1H7V3.5ZM24.465 14.4667L23.1817 6.07833C23.0728 5.36102 22.7105 4.70646 22.1604 4.23342C21.6103 3.76037 20.9089 3.50016 20.1833 3.5H9.33333V17.5L12.005 23.8C12.0953 24.0069 12.2436 24.1831 12.4321 24.3074C12.6205 24.4316 12.841 24.4985 13.0667 24.5C14.1167 24.5 14.42 24.0917 15.1667 23.3333C15.925 22.5867 16.3333 21.5833 16.3333 20.5333V17.9667H21.4317C21.8731 17.9739 22.3108 17.8844 22.7139 17.7043C23.117 17.5243 23.4758 17.258 23.7649 16.9244C24.0541 16.5907 24.2666 16.1978 24.3876 15.7732C24.5085 15.3486 24.535 14.9026 24.465 14.4667Z" fill="black"/>
</svg>
