<svg width="28" height="28" viewBox="0 0 28 28" fill="none" xmlns="http://www.w3.org/2000/svg">
<path fill-rule="evenodd" clip-rule="evenodd" d="M7 11.9H6.53333C4.858 11.9 3.5 13.258 3.5 14.9333V21.4667C3.5 23.142 4.858 24.5 6.53333 24.5H7V11.9Z" fill="black"/>
<path fill-rule="evenodd" clip-rule="evenodd" d="M23.7557 11.0763C23.1735 10.4067 22.3265 10.0252 21.4398 10.0333H16.3333V7.46667C16.3333 5.27567 15.2577 3.5 13.0667 3.5C12.6058 3.5 12.1882 3.77183 12.0003 4.193L9.33333 10.5V24.5H20.1518C21.6603 24.514 22.9507 23.4138 23.1782 21.9217L24.4662 13.5217C24.5992 12.642 24.339 11.7472 23.7557 11.0763Z" fill="black"/>
</svg>
