<svg width="28" height="28" viewBox="0 0 28 28" fill="none" xmlns="http://www.w3.org/2000/svg">
<path d="M25.5967 24.0917L21.3033 12.425C21.1283 11.97 20.685 11.6667 20.2067 11.6667H18.9817C18.4917 11.6667 18.06 11.97 17.885 12.425L16.6717 15.7267C15.5517 15.2367 13.965 14.42 12.4017 13.16C14.28 11.0717 15.1083 8.96001 15.4583 7.58334H17.6867C18.3283 7.58334 18.8533 7.05834 18.8533 6.41668C18.8533 5.77501 18.3283 5.25001 17.6867 5.25001H11.76V3.50001C11.76 2.85834 11.235 2.33334 10.5933 2.33334C9.95167 2.33334 9.42667 2.85834 9.42667 3.50001V5.25001H3.46501C2.82334 5.25001 2.29834 5.77501 2.29834 6.41668C2.29834 7.05834 2.82334 7.58334 3.46501 7.58334H5.95001C6.31167 8.96001 7.14001 11.0717 9.00667 13.16C6.17167 15.4467 3.22001 16.31 3.18501 16.3217C2.56667 16.4967 2.20501 17.1383 2.38001 17.7567C2.52001 18.27 2.98667 18.6083 3.50001 18.6083C3.60501 18.6083 3.71001 18.5967 3.81501 18.5617C3.96667 18.515 7.42001 17.535 10.71 14.7933C12.6 16.3683 14.5483 17.36 15.8667 17.9317L13.5917 24.1033C13.37 24.71 13.6733 25.375 14.28 25.5967C14.8867 25.8183 15.5517 25.515 15.7733 24.9083L17.08 21.3733H22.1083L23.415 24.9083C23.5783 25.375 24.0217 25.6667 24.5 25.6667C24.64 25.6667 24.7683 25.6433 24.9083 25.5967C25.5033 25.375 25.8183 24.6983 25.5967 24.0917ZM13.02 7.58334C12.67 8.66834 11.9933 10.1033 10.6983 11.5617C9.41501 10.1033 8.73834 8.66834 8.37667 7.58334H13.02ZM17.9317 19.04L19.5883 14.5483L21.245 19.04H17.9317Z" fill="black"/>
</svg>
