<svg width="28" height="28" viewBox="0 0 28 28" fill="none" xmlns="http://www.w3.org/2000/svg">
<path d="M25.5967 24.0916L21.3033 12.4249C21.1283 11.9699 20.685 11.6666 20.2067 11.6666H18.9817C18.4917 11.6666 18.06 11.9699 17.885 12.4249L16.6717 15.7266C15.5517 15.2366 13.965 14.4199 12.4017 13.1599C14.28 11.0716 15.1083 8.95992 15.4583 7.58325H17.6867C18.3283 7.58325 18.8533 7.05825 18.8533 6.41658C18.8533 5.77492 18.3283 5.24992 17.6867 5.24992H11.76V3.49992C11.76 2.85825 11.235 2.33325 10.5933 2.33325C9.95167 2.33325 9.42667 2.85825 9.42667 3.49992V5.24992H3.46501C2.82334 5.24992 2.29834 5.77492 2.29834 6.41658C2.29834 7.05825 2.82334 7.58325 3.46501 7.58325H5.95001C6.31167 8.95992 7.14001 11.0716 9.00667 13.1599C6.17167 15.4466 3.22001 16.3099 3.18501 16.3216C2.56667 16.4966 2.20501 17.1383 2.38001 17.7566C2.52001 18.2699 2.98667 18.6083 3.50001 18.6083C3.60501 18.6083 3.71001 18.5966 3.81501 18.5616C3.96667 18.5149 7.42001 17.5349 10.71 14.7933C12.6 16.3683 14.5483 17.3599 15.8667 17.9316L13.5917 24.1033C13.37 24.7099 13.6733 25.3749 14.28 25.5966C14.8867 25.8183 15.5517 25.5149 15.7733 24.9083L17.08 21.3733H22.1083L23.415 24.9083C23.5783 25.3749 24.0217 25.6666 24.5 25.6666C24.64 25.6666 24.7683 25.6433 24.9083 25.5966C25.5033 25.3749 25.8183 24.6982 25.5967 24.0916ZM13.02 7.58325C12.67 8.66825 11.9933 10.1033 10.6983 11.5616C9.41501 10.1033 8.73834 8.66825 8.37667 7.58325H13.02ZM17.9317 19.0399L19.5883 14.5483L21.245 19.0399H17.9317Z" fill="black"/>
</svg>
