<svg width="28" height="28" viewBox="0 0 28 28" fill="none" xmlns="http://www.w3.org/2000/svg">
<path d="M20.3467 11.6666H10.5V9.20498C10.5 8.37665 10.815 7.58331 11.3984 6.96498C11.9934 6.33498 12.7984 5.93831 13.685 5.85665C14.5717 5.77498 15.4467 5.99665 16.17 6.50998C16.87 7.01165 17.36 7.73498 17.5234 8.55165C17.6517 9.18165 18.2817 9.58998 18.9 9.44998C19.53 9.32165 19.9384 8.70331 19.7984 8.06165C19.5067 6.67331 18.69 5.43665 17.5117 4.59665C16.345 3.76831 14.8984 3.38331 13.4517 3.52331C12.0167 3.67498 10.675 4.31665 9.69502 5.36665C8.70335 6.41665 8.16669 7.78165 8.16669 9.20498V11.6666H7.65335C6.00835 11.6666 4.66669 13.0433 4.66669 14.7466V21.4316C4.66669 23.1233 6.00835 24.5 7.65335 24.5H20.3584C22.0034 24.5 23.345 23.1233 23.345 21.42V14.735C23.3334 13.0433 21.9917 11.6666 20.3467 11.6666ZM21 21.42C21 21.8283 20.7084 22.1666 20.3467 22.1666H7.65335C7.29169 22.1666 7.00002 21.8283 7.00002 21.42V14.735C7.00002 14.3383 7.29169 14 7.65335 14H20.3584C20.72 14 21.0117 14.3383 21.0117 14.7466V21.42H21Z" fill="black"/>
</svg>
