<svg width="28" height="28" viewBox="0 0 28 28" fill="none" xmlns="http://www.w3.org/2000/svg">
<path d="M20.3467 11.6667H10.5V9.205C10.5 8.37666 10.815 7.58333 11.3983 6.965C11.9933 6.335 12.7983 5.93833 13.685 5.85666C14.5717 5.775 15.4467 5.99666 16.17 6.51C16.87 7.01166 17.36 7.735 17.5233 8.55166C17.6517 9.18166 18.2817 9.59 18.9 9.45C19.53 9.32166 19.9383 8.70333 19.7983 8.06166C19.5067 6.67333 18.69 5.43666 17.5117 4.59666C16.345 3.76833 14.8983 3.38333 13.4517 3.52333C12.0167 3.675 10.675 4.31666 9.69499 5.36666C8.70332 6.41666 8.16666 7.78166 8.16666 9.205V11.6667H7.65332C6.00832 11.6667 4.66666 13.0433 4.66666 14.7467V21.4317C4.66666 23.1233 6.00832 24.5 7.65332 24.5H20.3583C22.0033 24.5 23.345 23.1233 23.345 21.42V14.735C23.3333 13.0433 21.9917 11.6667 20.3467 11.6667ZM21 21.42C21 21.8283 20.7083 22.1667 20.3467 22.1667H7.65332C7.29166 22.1667 6.99999 21.8283 6.99999 21.42V14.735C6.99999 14.3383 7.29166 14 7.65332 14H20.3583C20.72 14 21.0117 14.3383 21.0117 14.7467V21.42H21Z" fill="black"/>
</svg>
