<svg width="28" height="28" viewBox="0 0 28 28" fill="none" xmlns="http://www.w3.org/2000/svg">
<path d="M24.7415 17.745C24.2853 17.2888 23.548 17.2888 23.0918 17.745L20.3198 20.517V4.66667C20.3198 4.02267 19.7983 3.5 19.1532 3.5C18.508 3.5 17.9865 4.02267 17.9865 4.66667V20.517L15.2145 17.745C14.7572 17.2888 14.0198 17.2888 13.5637 17.745C13.1075 18.2012 13.1075 18.9385 13.5637 19.3947L18.3272 24.1582C18.5558 24.3857 18.8545 24.5 19.1532 24.5C19.4518 24.5 19.7505 24.3857 19.978 24.1582L24.7415 19.3947C25.1977 18.9385 25.1977 18.2012 24.7415 17.745Z" fill="black"/>
<path d="M14.4363 10.2562C14.8925 9.8 14.8925 9.06267 14.4363 8.6065L9.67284 3.84183C9.45351 3.6225 9.15717 3.5 8.84684 3.5C8.53651 3.5 8.24017 3.6225 8.02201 3.84183L3.25851 8.60533C2.80234 9.0615 2.80234 9.79883 3.25851 10.255C3.71467 10.7112 4.45201 10.7112 4.90817 10.255L7.68017 7.483V23.3333C7.68017 23.9785 8.20284 24.5 8.84684 24.5C9.49084 24.5 10.0135 23.9785 10.0135 23.3333V7.48417L12.7855 10.2562C13.2417 10.7112 13.9802 10.7112 14.4363 10.2562Z" fill="black"/>
</svg>
