<svg width="28" height="28" viewBox="0 0 28 28" fill="none" xmlns="http://www.w3.org/2000/svg">
<path d="M23.7183 4.28175C22.8316 3.40675 21.665 2.91675 20.4166 2.91675H7.58329C6.33496 2.91675 5.16829 3.40675 4.28163 4.28175C3.39496 5.15675 2.91663 6.33508 2.91663 7.58341V20.4167C2.91663 21.6651 3.40663 22.8317 4.28163 23.7184C5.15663 24.6051 6.33496 25.0834 7.58329 25.0834H16.6366L16.1933 24.6401C15.19 23.6367 14.9333 22.1667 15.4116 20.9067H8.66829C8.66829 19.4834 9.21663 18.1417 10.2316 17.1384C11.2233 16.1467 12.6 15.5751 14 15.5751C15.4 15.5751 16.7766 16.1467 17.7683 17.1384C18.2233 17.5934 18.5733 18.1184 18.83 18.6784C19.4833 18.7134 20.1133 18.9117 20.6383 19.2617L22.33 17.0917C22.9833 16.2517 24.01 15.7501 25.095 15.7501V7.58341C25.0833 6.33508 24.5933 5.16841 23.7183 4.28175ZM16.4966 13.1601C15.1666 14.4901 12.845 14.4901 11.5033 13.1601C10.8383 12.4834 10.465 11.5967 10.465 10.6634C10.465 9.73008 10.8383 8.83175 11.5033 8.16675C12.1333 7.53675 13.0433 7.17508 14 7.17508C14.9566 7.17508 15.8666 7.53675 16.4966 8.16675C17.1616 8.83175 17.535 9.71841 17.535 10.6634C17.535 11.6084 17.1616 12.4834 16.4966 13.1601Z" fill="black"/>
<path d="M25.795 18.3284C25.2933 17.9434 24.535 18.0367 24.1616 18.5384L20.895 22.7384L19.495 21.3384C19.0516 20.8951 18.2816 20.8951 17.85 21.3384C17.395 21.7934 17.395 22.5284 17.85 22.9834L20.1833 25.3167C20.3933 25.5384 20.6966 25.6667 21 25.6667H21.07C21.4083 25.6434 21.7116 25.4801 21.9216 25.2234L26.005 19.9734C26.1916 19.7284 26.285 19.4251 26.2383 19.1101C26.2033 18.7951 26.0516 18.5267 25.795 18.3284Z" fill="black"/>
</svg>
