<svg width="28" height="28" viewBox="0 0 28 28" fill="none" xmlns="http://www.w3.org/2000/svg">
<path d="M18.8417 20.5683H16.5084C16.5084 19.9033 16.2517 19.2733 15.7734 18.795C14.84 17.8617 13.16 17.8617 12.2267 18.795C11.7484 19.2733 11.4917 19.9033 11.4917 20.5683H9.15835C9.15835 19.2733 9.66002 18.06 10.5817 17.15C11.48 16.2517 12.7284 15.7267 14 15.7267C15.2717 15.7267 16.52 16.24 17.4184 17.15C18.34 18.06 18.8417 19.285 18.8417 20.5683Z" fill="black"/>
<path d="M14 15.05C12.985 15.05 12.04 14.6533 11.3167 13.9417C10.5934 13.23 10.2084 12.2733 10.2084 11.2583C10.2084 10.2433 10.605 9.29834 11.3167 8.575C12.7517 7.14 15.2484 7.14 16.6834 8.575C17.395 9.28667 17.7917 10.2433 17.7917 11.2583C17.7917 12.2733 17.395 13.2183 16.6834 13.9417C15.9717 14.665 15.015 15.05 14 15.05ZM14 9.8C13.615 9.8 13.2417 9.95167 12.9734 10.2317C12.705 10.5117 12.5417 10.8733 12.5417 11.2583C12.5417 11.6433 12.6934 12.0167 12.9734 12.285C13.51 12.8217 14.49 12.8217 15.0384 12.285C15.3067 12.0167 15.47 11.6433 15.47 11.2583C15.47 10.8733 15.3067 10.5 15.0267 10.2317C14.7467 9.96334 14.385 9.8 14 9.8Z" fill="black"/>
<path d="M16.3334 22.75H7.58335C6.96502 22.75 6.37002 22.505 5.93835 22.0617C5.50669 21.6183 5.25002 21.035 5.25002 20.4167V7.58334C5.25002 6.965 5.49502 6.37001 5.93835 5.93834C6.38169 5.50667 6.96502 5.25001 7.58335 5.25001H20.4167C21.035 5.25001 21.63 5.49501 22.0617 5.93834C22.4934 6.38167 22.75 6.965 22.75 7.58334V16.3333C23.6484 16.3333 24.465 16.6717 25.0834 17.2317V7.58334C25.0834 6.335 24.5934 5.16834 23.7184 4.28167C22.8434 3.39501 21.665 2.91667 20.4167 2.91667H7.58335C6.33502 2.91667 5.16835 3.40667 4.28169 4.28167C3.39502 5.15667 2.91669 6.335 2.91669 7.58334V20.4167C2.91669 21.665 3.40669 22.8317 4.28169 23.7183C5.15669 24.605 6.33502 25.0833 7.58335 25.0833H17.2317C16.6717 24.465 16.3334 23.6483 16.3334 22.75Z" fill="black"/>
<path d="M25.6667 21.5833H23.9167V19.8333C23.9167 19.1917 23.3917 18.6667 22.75 18.6667C22.1084 18.6667 21.5834 19.1917 21.5834 19.8333V21.5833H19.8334C19.1917 21.5833 18.6667 22.1083 18.6667 22.75C18.6667 23.3917 19.1917 23.9167 19.8334 23.9167H21.5834V25.6667C21.5834 26.3083 22.1084 26.8333 22.75 26.8333C23.3917 26.8333 23.9167 26.3083 23.9167 25.6667V23.9167H25.6667C26.3084 23.9167 26.8334 23.3917 26.8334 22.75C26.8334 22.1083 26.3084 21.5833 25.6667 21.5833Z" fill="black"/>
</svg>
