<svg width="28" height="28" viewBox="0 0 28 28" fill="none" xmlns="http://www.w3.org/2000/svg">
<path d="M18.8417 20.5684H16.5084C16.5084 19.9034 16.2517 19.2734 15.7734 18.7951C14.84 17.8617 13.16 17.8617 12.2267 18.7951C11.7484 19.2734 11.4917 19.9034 11.4917 20.5684H9.15835C9.15835 19.2734 9.66002 18.0601 10.5817 17.1501C11.48 16.2517 12.7284 15.7267 14 15.7267C15.2717 15.7267 16.52 16.2401 17.4184 17.1501C18.34 18.0601 18.8417 19.2851 18.8417 20.5684Z" fill="black"/>
<path d="M14 15.0501C12.985 15.0501 12.04 14.6534 11.3167 13.9417C10.5934 13.2301 10.2084 12.2734 10.2084 11.2584C10.2084 10.2434 10.605 9.29841 11.3167 8.57508C12.7517 7.14008 15.2484 7.14008 16.6834 8.57508C17.395 9.28675 17.7917 10.2434 17.7917 11.2584C17.7917 12.2734 17.395 13.2184 16.6834 13.9417C15.9717 14.6651 15.015 15.0501 14 15.0501ZM14 9.80008C13.615 9.80008 13.2417 9.95175 12.9734 10.2317C12.705 10.5117 12.5417 10.8734 12.5417 11.2584C12.5417 11.6434 12.6934 12.0167 12.9734 12.2851C13.51 12.8217 14.49 12.8217 15.0384 12.2851C15.3067 12.0167 15.47 11.6434 15.47 11.2584C15.47 10.8734 15.3067 10.5001 15.0267 10.2317C14.7467 9.96342 14.385 9.80008 14 9.80008Z" fill="black"/>
<path d="M16.3334 22.7501H7.58335C6.96502 22.7501 6.37002 22.5051 5.93835 22.0617C5.50669 21.6184 5.25002 21.0351 5.25002 20.4167V7.58341C5.25002 6.96508 5.49502 6.37008 5.93835 5.93841C6.38169 5.50675 6.96502 5.25008 7.58335 5.25008H20.4167C21.035 5.25008 21.63 5.49508 22.0617 5.93841C22.4934 6.38175 22.75 6.96508 22.75 7.58341V16.3334C23.6484 16.3334 24.465 16.6717 25.0834 17.2317V7.58341C25.0834 6.33508 24.5934 5.16841 23.7184 4.28175C22.8434 3.39508 21.665 2.91675 20.4167 2.91675H7.58335C6.33502 2.91675 5.16835 3.40675 4.28169 4.28175C3.39502 5.15675 2.91669 6.33508 2.91669 7.58341V20.4167C2.91669 21.6651 3.40669 22.8317 4.28169 23.7184C5.15669 24.6051 6.33502 25.0834 7.58335 25.0834H17.2317C16.6717 24.4651 16.3334 23.6484 16.3334 22.7501Z" fill="black"/>
<path d="M25.6667 21.5834H23.9167V19.8334C23.9167 19.1917 23.3917 18.6667 22.75 18.6667C22.1084 18.6667 21.5834 19.1917 21.5834 19.8334V21.5834H19.8334C19.1917 21.5834 18.6667 22.1084 18.6667 22.7501C18.6667 23.3917 19.1917 23.9167 19.8334 23.9167H21.5834V25.6667C21.5834 26.3084 22.1084 26.8334 22.75 26.8334C23.3917 26.8334 23.9167 26.3084 23.9167 25.6667V23.9167H25.6667C26.3084 23.9167 26.8334 23.3917 26.8334 22.7501C26.8334 22.1084 26.3084 21.5834 25.6667 21.5834Z" fill="black"/>
</svg>
