<svg width="28" height="28" viewBox="0 0 28 28" fill="none" xmlns="http://www.w3.org/2000/svg">
<path d="M23.7184 4.28167C22.8317 3.40667 21.665 2.91667 20.4167 2.91667H7.58335C6.33502 2.91667 5.16835 3.40667 4.28169 4.28167C3.39502 5.15667 2.91669 6.335 2.91669 7.58334V20.4167C2.91669 21.665 3.40669 22.8317 4.28169 23.7183C5.15669 24.605 6.33502 25.0833 7.58335 25.0833H16.6367L16.1934 24.64C15.19 23.6367 14.9334 22.1667 15.4117 20.9067H8.66835C8.66835 19.4833 9.21669 18.1417 10.2317 17.1383C11.2234 16.1467 12.6 15.575 14 15.575C15.4 15.575 16.7767 16.1467 17.7684 17.1383C18.2234 17.5933 18.5734 18.1183 18.83 18.6783C19.4834 18.7133 20.1134 18.9117 20.6384 19.2617L22.33 17.0917C22.9834 16.2517 24.01 15.75 25.095 15.75V7.58334C25.0834 6.335 24.5934 5.16834 23.7184 4.28167ZM16.4967 13.16C15.1667 14.49 12.845 14.49 11.5034 13.16C10.8384 12.4833 10.465 11.5967 10.465 10.6633C10.465 9.73001 10.8384 8.83167 11.5034 8.16667C12.1334 7.53667 13.0434 7.175 14 7.175C14.9567 7.175 15.8667 7.53667 16.4967 8.16667C17.1617 8.83167 17.535 9.71834 17.535 10.6633C17.535 11.6083 17.1617 12.4833 16.4967 13.16Z" fill="black"/>
<path d="M25.795 18.3283C25.2934 17.9433 24.535 18.0367 24.1617 18.5383L20.895 22.7383L19.495 21.3383C19.0517 20.895 18.2817 20.895 17.85 21.3383C17.395 21.7933 17.395 22.5283 17.85 22.9833L20.1834 25.3167C20.3934 25.5383 20.6967 25.6667 21 25.6667H21.07C21.4084 25.6433 21.7117 25.48 21.9217 25.2233L26.005 19.9733C26.1917 19.7283 26.285 19.425 26.2384 19.11C26.2034 18.795 26.0517 18.5267 25.795 18.3283Z" fill="black"/>
</svg>
