<svg width="28" height="28" viewBox="0 0 28 28" fill="none" xmlns="http://www.w3.org/2000/svg">
<path d="M19.9245 22.3614C19.6756 22.3614 19.4268 22.2661 19.2372 22.0765C18.857 21.6964 18.857 21.0819 19.2372 20.7018C21.0008 18.9382 21.972 16.5922 21.972 14.0975C21.972 11.6027 21.0008 9.25677 19.2372 7.49315C18.857 7.11302 18.857 6.49857 19.2372 6.11843C19.6173 5.73829 20.2318 5.73829 20.6119 6.11843C22.743 8.24954 23.9165 11.0836 23.9165 14.0975C23.9165 17.1124 22.743 19.9454 20.6119 22.0765C20.4213 22.2661 20.1724 22.3614 19.9245 22.3614Z" fill="black"/>
<path d="M16.5735 18.7105C16.3246 18.7105 16.0757 18.6152 15.8861 18.4256C15.506 18.0465 15.506 17.4311 15.8861 17.0509C16.6756 16.2605 17.1111 15.2086 17.1111 14.0924C17.1111 12.9754 16.6765 11.9244 15.8861 11.134C15.506 10.7539 15.506 10.1385 15.8861 9.75832C16.2662 9.37915 16.8807 9.37915 17.2608 9.75832C18.4178 10.9162 19.0556 12.4542 19.0556 14.0915C19.0556 15.7277 18.4187 17.2667 17.2608 18.4256C17.0712 18.6152 16.8224 18.7105 16.5735 18.7105Z" fill="black"/>
<path d="M13.2222 22.3614C13.0054 22.3614 12.7906 22.2894 12.6146 22.1485L8.01986 18.4725H4.47222C3.93556 18.4725 3.5 18.0379 3.5 17.5003V10.6947C3.5 10.1581 3.93556 9.72251 4.47222 9.72251H8.01986L12.6146 6.04654C12.9062 5.8132 13.3058 5.76848 13.6432 5.9289C13.9806 6.09126 14.1944 6.43251 14.1944 6.80584V21.3892C14.1944 21.7635 13.9806 22.1028 13.6432 22.2651C13.509 22.3303 13.3651 22.3614 13.2222 22.3614ZM5.44444 16.5281H8.36111C8.5818 16.5281 8.79569 16.6029 8.96875 16.741L12.25 19.366V8.82904L8.96875 11.454C8.79569 11.5921 8.5818 11.667 8.36111 11.667H5.44444V16.5281Z" fill="black"/>
</svg>
