<svg width="28" height="28" viewBox="0 0 28 28" fill="none" xmlns="http://www.w3.org/2000/svg">
<path d="M19.9245 22.3613C19.6756 22.3613 19.4268 22.266 19.2372 22.0765C18.857 21.6963 18.857 21.0819 19.2372 20.7017C21.0008 18.9381 21.972 16.5921 21.972 14.0974C21.972 11.6027 21.0008 9.25669 19.2372 7.49308C18.857 7.11294 18.857 6.49849 19.2372 6.11836C19.6173 5.73822 20.2318 5.73822 20.6119 6.11836C22.743 8.24947 23.9165 11.0835 23.9165 14.0974C23.9165 17.1123 22.743 19.9453 20.6119 22.0765C20.4213 22.266 20.1724 22.3613 19.9245 22.3613Z" fill="black"/>
<path d="M16.5735 18.7104C16.3246 18.7104 16.0757 18.6151 15.8861 18.4256C15.506 18.0464 15.506 17.431 15.8861 17.0508C16.6756 16.2604 17.1111 15.2085 17.1111 14.0924C17.1111 12.9753 16.6765 11.9244 15.8861 11.1339C15.506 10.7538 15.506 10.1384 15.8861 9.75824C16.2662 9.37907 16.8807 9.37907 17.2608 9.75824C18.4178 10.9162 19.0556 12.4542 19.0556 14.0914C19.0556 15.7276 18.4187 17.2667 17.2608 18.4256C17.0712 18.6151 16.8224 18.7104 16.5735 18.7104Z" fill="black"/>
<path d="M13.2222 22.3613C13.0054 22.3613 12.7906 22.2894 12.6146 22.1484L8.01986 18.4724H4.47222C3.93556 18.4724 3.5 18.0378 3.5 17.5002V10.6947C3.5 10.158 3.93556 9.72243 4.47222 9.72243H8.01986L12.6146 6.04646C12.9062 5.81313 13.3058 5.76841 13.6432 5.92882C13.9806 6.09118 14.1944 6.43243 14.1944 6.80577V21.3891C14.1944 21.7634 13.9806 22.1027 13.6432 22.2651C13.509 22.3302 13.3651 22.3613 13.2222 22.3613ZM5.44444 16.528H8.36111C8.5818 16.528 8.79569 16.6028 8.96875 16.7409L12.25 19.3659V8.82896L8.96875 11.454C8.79569 11.592 8.5818 11.6669 8.36111 11.6669H5.44444V16.528Z" fill="black"/>
</svg>
