<svg width="28" height="28" viewBox="0 0 28 28" fill="none" xmlns="http://www.w3.org/2000/svg">
<path fill-rule="evenodd" clip-rule="evenodd" d="M12 2C6.48193 2 2 6.48193 2 12C2 17.5181 6.48193 22 12 22C17.5181 22 22 17.5181 22 12C22 6.48193 17.5181 2 12 2ZM7.98539 8H5.08155C6.08416 6.27372 7.71142 4.94854 9.65557 4.34763C9.04006 5.20167 8.40427 6.39477 7.98539 8ZM16.0146 8C15.5957 6.39477 14.9599 5.20167 14.3444 4.34763C16.2886 4.94854 17.9158 6.27372 18.9185 8H16.0146ZM10.0539 8C10.6093 6.21414 11.4636 5.19035 12.0023 4.67665C12.5434 5.18227 13.3911 6.21182 13.9461 8H10.0539ZM4 12C4 11.3113 4.09674 10.6449 4.26199 10H7.61733C7.54578 10.6182 7.5 11.2785 7.5 12C7.5 12.7215 7.54578 13.3818 7.61733 14H4.26199C4.09674 13.3551 4 12.6887 4 12ZM9.5 12C9.5 11.2686 9.54727 10.6092 9.62756 10H14.3724C14.4527 10.6092 14.5 11.2686 14.5 12C14.5 12.7314 14.4527 13.3908 14.3724 14H9.62756C9.54727 13.3908 9.5 12.7314 9.5 12ZM16.5 12C16.5 11.2785 16.4542 10.6182 16.3827 10H19.738C19.9033 10.6449 20 11.3113 20 12C20 12.6887 19.9033 13.3551 19.738 14H16.3827C16.4542 13.3818 16.5 12.7215 16.5 12ZM9.65557 19.6524C7.71142 19.0515 6.08416 17.7263 5.08155 16H7.98539C8.40427 17.6052 9.04006 18.7983 9.65557 19.6524ZM11.9988 19.3244C11.4578 18.8192 10.6093 17.7894 10.0539 16H13.9461C13.3905 17.7891 12.5415 18.8126 11.9988 19.3244ZM14.3444 19.6524C14.9599 18.7983 15.5957 17.6052 16.0146 16H18.9185C17.9158 17.7263 16.2886 19.0515 14.3444 19.6524Z" fill="black"/>
</svg>
