<svg width="28" height="28" viewBox="0 0 28 28" fill="none" xmlns="http://www.w3.org/2000/svg">
<path d="M23.135 4.87667C21.7816 3.52334 19.5766 3.52334 18.2233 4.87667L5.82163 17.2783C5.69329 17.4067 5.59996 17.5583 5.54163 17.7333L3.91996 22.6217C3.77996 23.0417 3.88496 23.4967 4.19996 23.8117C4.42163 24.0333 4.72496 24.15 5.02829 24.15C5.14496 24.15 5.27329 24.1267 5.38996 24.0917L10.2783 22.4583C10.4533 22.4 10.605 22.3067 10.7333 22.1783L23.135 9.78834C24.4883 8.43501 24.4883 6.23 23.135 4.87667ZM21.4783 8.13167L9.28663 20.335L7.83996 20.8133L7.19829 20.1717L7.67663 18.725L19.8683 6.52167C20.3116 6.07834 21.035 6.07834 21.4783 6.52167C21.9216 6.965 21.9216 7.68834 21.4783 8.13167Z" fill="black"/>
<path d="M23.9166 13.4167C23.275 13.4167 22.75 13.9417 22.75 14.5833V22.75H14.5833C13.9416 22.75 13.4166 23.275 13.4166 23.9167C13.4166 24.5583 13.9416 25.0833 14.5833 25.0833H23.9166C24.5583 25.0833 25.0833 24.5583 25.0833 23.9167V14.5833C25.0833 13.9417 24.5583 13.4167 23.9166 13.4167Z" fill="black"/>
<path d="M5.24996 13.4167V5.25001H13.4166C14.0583 5.25001 14.5833 4.72501 14.5833 4.08334C14.5833 3.44167 14.0583 2.91667 13.4166 2.91667H4.08329C3.44163 2.91667 2.91663 3.44167 2.91663 4.08334V13.4167C2.91663 14.0583 3.44163 14.5833 4.08329 14.5833C4.72496 14.5833 5.24996 14.0583 5.24996 13.4167Z" fill="black"/>
</svg>
