<svg width="28" height="28" viewBox="0 0 28 28" fill="none" xmlns="http://www.w3.org/2000/svg">
<path d="M23.135 4.87675C21.7816 3.52341 19.5766 3.52341 18.2233 4.87675L5.82163 17.2784C5.69329 17.4067 5.59996 17.5584 5.54163 17.7334L3.91996 22.6217C3.77996 23.0417 3.88496 23.4967 4.19996 23.8117C4.42163 24.0334 4.72496 24.1501 5.02829 24.1501C5.14496 24.1501 5.27329 24.1267 5.38996 24.0917L10.2783 22.4584C10.4533 22.4001 10.605 22.3067 10.7333 22.1784L23.135 9.78841C24.4883 8.43508 24.4883 6.23008 23.135 4.87675ZM21.4783 8.13175L9.28663 20.3351L7.83996 20.8134L7.19829 20.1717L7.67663 18.7251L19.8683 6.52175C20.3116 6.07841 21.035 6.07841 21.4783 6.52175C21.9216 6.96508 21.9216 7.68841 21.4783 8.13175Z" fill="black"/>
<path d="M23.9166 13.4167C23.275 13.4167 22.75 13.9417 22.75 14.5834V22.7501H14.5833C13.9416 22.7501 13.4166 23.2751 13.4166 23.9167C13.4166 24.5584 13.9416 25.0834 14.5833 25.0834H23.9166C24.5583 25.0834 25.0833 24.5584 25.0833 23.9167V14.5834C25.0833 13.9417 24.5583 13.4167 23.9166 13.4167Z" fill="black"/>
<path d="M5.24996 13.4167V5.25008H13.4166C14.0583 5.25008 14.5833 4.72508 14.5833 4.08341C14.5833 3.44175 14.0583 2.91675 13.4166 2.91675H4.08329C3.44163 2.91675 2.91663 3.44175 2.91663 4.08341V13.4167C2.91663 14.0584 3.44163 14.5834 4.08329 14.5834C4.72496 14.5834 5.24996 14.0584 5.24996 13.4167Z" fill="black"/>
</svg>
